ISO-10303-21;
HEADER;
/* Generated by software containing ST-Developer
 * from STEP Tools, Inc. (www.steptools.com) 
 */

FILE_DESCRIPTION(
/* description */ (''),
/* implementation_level */ '2;1');

FILE_NAME(
/* name */ 'OVOS_Sat v41.step',
/* time_stamp */ '2025-07-17T00:45:41+02:00',
/* author */ (''),
/* organization */ (''),
/* preprocessor_version */ 'ST-DEVELOPER v20.1',
/* originating_system */ 'Autodesk Translation Framework v14.4.0.0',
/* authorisation */ '');

FILE_SCHEMA (('AUTOMOTIVE_DESIGN { 1 0 10303 214 3 1 1 }'));
ENDSEC;

DATA;
#10=MECHANICAL_DESIGN_GEOMETRIC_PRESENTATION_REPRESENTATION('',(#17,#18,
#19,#20,#21,#22,#23,#24,#25),#2104);
#11=SHAPE_REPRESENTATION_RELATIONSHIP('SRR','None',#2111,#12);
#12=ADVANCED_BREP_SHAPE_REPRESENTATION('',(#26,#27,#28,#29,#30,#31,#32,
#33,#34),#2103);
#13=CONICAL_SURFACE('',#1271,0.6,1.02974425867665);
#14=CONICAL_SURFACE('',#1280,0.6,1.02974425867665);
#15=CONICAL_SURFACE('',#1289,0.6,1.02974425867665);
#16=CONICAL_SURFACE('',#1298,0.6,1.02974425867665);
#17=STYLED_ITEM('',(#2120),#26);
#18=STYLED_ITEM('',(#2120),#27);
#19=STYLED_ITEM('',(#2120),#28);
#20=STYLED_ITEM('',(#2120),#29);
#21=STYLED_ITEM('',(#2120),#30);
#22=STYLED_ITEM('',(#2120),#31);
#23=STYLED_ITEM('',(#2120),#32);
#24=STYLED_ITEM('',(#2120),#33);
#25=STYLED_ITEM('',(#2120),#34);
#26=MANIFOLD_SOLID_BREP('paal1',#1228);
#27=MANIFOLD_SOLID_BREP('kpaal1',#1229);
#28=MANIFOLD_SOLID_BREP('kpaal2',#1230);
#29=MANIFOLD_SOLID_BREP('kpaal3',#1231);
#30=MANIFOLD_SOLID_BREP('kpaal4',#1232);
#31=MANIFOLD_SOLID_BREP('paal2',#1233);
#32=MANIFOLD_SOLID_BREP('paal3',#1234);
#33=MANIFOLD_SOLID_BREP('paal4',#1235);
#34=MANIFOLD_SOLID_BREP('bodem',#1236);
#35=FACE_BOUND('',#156,.T.);
#36=FACE_BOUND('',#159,.T.);
#37=FACE_BOUND('',#161,.T.);
#38=FACE_BOUND('',#167,.T.);
#39=FACE_BOUND('',#173,.T.);
#40=FACE_BOUND('',#179,.T.);
#41=FACE_BOUND('',#185,.T.);
#42=FACE_BOUND('',#195,.T.);
#43=FACE_BOUND('',#203,.T.);
#44=FACE_BOUND('',#207,.T.);
#45=FACE_BOUND('',#218,.T.);
#46=FACE_BOUND('',#220,.T.);
#47=FACE_BOUND('',#234,.T.);
#48=FACE_BOUND('',#236,.T.);
#49=CYLINDRICAL_SURFACE('',#1254,5.00000000000001);
#50=CYLINDRICAL_SURFACE('',#1259,4.);
#51=CYLINDRICAL_SURFACE('',#1265,1.15);
#52=CYLINDRICAL_SURFACE('',#1273,1.2);
#53=CYLINDRICAL_SURFACE('',#1274,3.);
#54=CYLINDRICAL_SURFACE('',#1282,1.2);
#55=CYLINDRICAL_SURFACE('',#1283,3.);
#56=CYLINDRICAL_SURFACE('',#1291,1.2);
#57=CYLINDRICAL_SURFACE('',#1292,3.);
#58=CYLINDRICAL_SURFACE('',#1300,1.2);
#59=CYLINDRICAL_SURFACE('',#1301,3.00000000000001);
#60=CYLINDRICAL_SURFACE('',#1313,4.99999999999999);
#61=CYLINDRICAL_SURFACE('',#1317,4.);
#62=CYLINDRICAL_SURFACE('',#1319,1.15);
#63=CYLINDRICAL_SURFACE('',#1327,5.);
#64=CYLINDRICAL_SURFACE('',#1334,1.15);
#65=CYLINDRICAL_SURFACE('',#1336,4.);
#66=CYLINDRICAL_SURFACE('',#1347,4.99999999999997);
#67=CYLINDRICAL_SURFACE('',#1351,4.);
#68=CYLINDRICAL_SURFACE('',#1354,1.15);
#69=CYLINDRICAL_SURFACE('',#1364,5.);
#70=CYLINDRICAL_SURFACE('',#1368,5.);
#71=CYLINDRICAL_SURFACE('',#1372,5.);
#72=CYLINDRICAL_SURFACE('',#1376,5.);
#73=FACE_OUTER_BOUND('',#148,.T.);
#74=FACE_OUTER_BOUND('',#149,.T.);
#75=FACE_OUTER_BOUND('',#150,.T.);
#76=FACE_OUTER_BOUND('',#151,.T.);
#77=FACE_OUTER_BOUND('',#152,.T.);
#78=FACE_OUTER_BOUND('',#153,.T.);
#79=FACE_OUTER_BOUND('',#154,.T.);
#80=FACE_OUTER_BOUND('',#155,.T.);
#81=FACE_OUTER_BOUND('',#157,.T.);
#82=FACE_OUTER_BOUND('',#158,.T.);
#83=FACE_OUTER_BOUND('',#160,.T.);
#84=FACE_OUTER_BOUND('',#162,.T.);
#85=FACE_OUTER_BOUND('',#163,.T.);
#86=FACE_OUTER_BOUND('',#164,.T.);
#87=FACE_OUTER_BOUND('',#165,.T.);
#88=FACE_OUTER_BOUND('',#166,.T.);
#89=FACE_OUTER_BOUND('',#168,.T.);
#90=FACE_OUTER_BOUND('',#169,.T.);
#91=FACE_OUTER_BOUND('',#170,.T.);
#92=FACE_OUTER_BOUND('',#171,.T.);
#93=FACE_OUTER_BOUND('',#172,.T.);
#94=FACE_OUTER_BOUND('',#174,.T.);
#95=FACE_OUTER_BOUND('',#175,.T.);
#96=FACE_OUTER_BOUND('',#176,.T.);
#97=FACE_OUTER_BOUND('',#177,.T.);
#98=FACE_OUTER_BOUND('',#178,.T.);
#99=FACE_OUTER_BOUND('',#180,.T.);
#100=FACE_OUTER_BOUND('',#181,.T.);
#101=FACE_OUTER_BOUND('',#182,.T.);
#102=FACE_OUTER_BOUND('',#183,.T.);
#103=FACE_OUTER_BOUND('',#184,.T.);
#104=FACE_OUTER_BOUND('',#186,.T.);
#105=FACE_OUTER_BOUND('',#187,.T.);
#106=FACE_OUTER_BOUND('',#188,.T.);
#107=FACE_OUTER_BOUND('',#189,.T.);
#108=FACE_OUTER_BOUND('',#190,.T.);
#109=FACE_OUTER_BOUND('',#191,.T.);
#110=FACE_OUTER_BOUND('',#192,.T.);
#111=FACE_OUTER_BOUND('',#193,.T.);
#112=FACE_OUTER_BOUND('',#194,.T.);
#113=FACE_OUTER_BOUND('',#196,.T.);
#114=FACE_OUTER_BOUND('',#197,.T.);
#115=FACE_OUTER_BOUND('',#198,.T.);
#116=FACE_OUTER_BOUND('',#199,.T.);
#117=FACE_OUTER_BOUND('',#200,.T.);
#118=FACE_OUTER_BOUND('',#201,.T.);
#119=FACE_OUTER_BOUND('',#202,.T.);
#120=FACE_OUTER_BOUND('',#204,.T.);
#121=FACE_OUTER_BOUND('',#205,.T.);
#122=FACE_OUTER_BOUND('',#206,.T.);
#123=FACE_OUTER_BOUND('',#208,.T.);
#124=FACE_OUTER_BOUND('',#209,.T.);
#125=FACE_OUTER_BOUND('',#210,.T.);
#126=FACE_OUTER_BOUND('',#211,.T.);
#127=FACE_OUTER_BOUND('',#212,.T.);
#128=FACE_OUTER_BOUND('',#213,.T.);
#129=FACE_OUTER_BOUND('',#214,.T.);
#130=FACE_OUTER_BOUND('',#215,.T.);
#131=FACE_OUTER_BOUND('',#216,.T.);
#132=FACE_OUTER_BOUND('',#217,.T.);
#133=FACE_OUTER_BOUND('',#219,.T.);
#134=FACE_OUTER_BOUND('',#221,.T.);
#135=FACE_OUTER_BOUND('',#222,.T.);
#136=FACE_OUTER_BOUND('',#223,.T.);
#137=FACE_OUTER_BOUND('',#224,.T.);
#138=FACE_OUTER_BOUND('',#225,.T.);
#139=FACE_OUTER_BOUND('',#226,.T.);
#140=FACE_OUTER_BOUND('',#227,.T.);
#141=FACE_OUTER_BOUND('',#228,.T.);
#142=FACE_OUTER_BOUND('',#229,.T.);
#143=FACE_OUTER_BOUND('',#230,.T.);
#144=FACE_OUTER_BOUND('',#231,.T.);
#145=FACE_OUTER_BOUND('',#232,.T.);
#146=FACE_OUTER_BOUND('',#233,.T.);
#147=FACE_OUTER_BOUND('',#235,.T.);
#148=EDGE_LOOP('',(#780,#781,#782,#783,#784,#785));
#149=EDGE_LOOP('',(#786,#787,#788,#789));
#150=EDGE_LOOP('',(#790,#791,#792,#793));
#151=EDGE_LOOP('',(#794,#795,#796,#797));
#152=EDGE_LOOP('',(#798,#799,#800,#801));
#153=EDGE_LOOP('',(#802,#803,#804,#805));
#154=EDGE_LOOP('',(#806,#807,#808,#809,#810,#811,#812,#813));
#155=EDGE_LOOP('',(#814));
#156=EDGE_LOOP('',(#815));
#157=EDGE_LOOP('',(#816,#817,#818,#819));
#158=EDGE_LOOP('',(#820,#821,#822,#823,#824,#825,#826));
#159=EDGE_LOOP('',(#827));
#160=EDGE_LOOP('',(#828));
#161=EDGE_LOOP('',(#829));
#162=EDGE_LOOP('',(#830,#831,#832));
#163=EDGE_LOOP('',(#833,#834,#835,#836));
#164=EDGE_LOOP('',(#837,#838,#839,#840));
#165=EDGE_LOOP('',(#841));
#166=EDGE_LOOP('',(#842));
#167=EDGE_LOOP('',(#843));
#168=EDGE_LOOP('',(#844,#845,#846));
#169=EDGE_LOOP('',(#847,#848,#849,#850));
#170=EDGE_LOOP('',(#851,#852,#853,#854));
#171=EDGE_LOOP('',(#855));
#172=EDGE_LOOP('',(#856));
#173=EDGE_LOOP('',(#857));
#174=EDGE_LOOP('',(#858,#859,#860));
#175=EDGE_LOOP('',(#861,#862,#863,#864));
#176=EDGE_LOOP('',(#865,#866,#867,#868));
#177=EDGE_LOOP('',(#869));
#178=EDGE_LOOP('',(#870));
#179=EDGE_LOOP('',(#871));
#180=EDGE_LOOP('',(#872,#873,#874));
#181=EDGE_LOOP('',(#875,#876,#877,#878));
#182=EDGE_LOOP('',(#879,#880,#881,#882));
#183=EDGE_LOOP('',(#883));
#184=EDGE_LOOP('',(#884));
#185=EDGE_LOOP('',(#885));
#186=EDGE_LOOP('',(#886,#887,#888,#889,#890,#891,#892));
#187=EDGE_LOOP('',(#893,#894,#895,#896));
#188=EDGE_LOOP('',(#897,#898,#899,#900));
#189=EDGE_LOOP('',(#901,#902,#903,#904));
#190=EDGE_LOOP('',(#905,#906,#907,#908));
#191=EDGE_LOOP('',(#909,#910,#911,#912));
#192=EDGE_LOOP('',(#913,#914,#915,#916,#917,#918,#919,#920));
#193=EDGE_LOOP('',(#921,#922,#923,#924));
#194=EDGE_LOOP('',(#925,#926,#927,#928,#929,#930));
#195=EDGE_LOOP('',(#931));
#196=EDGE_LOOP('',(#932,#933,#934,#935,#936,#937));
#197=EDGE_LOOP('',(#938,#939,#940,#941));
#198=EDGE_LOOP('',(#942,#943,#944,#945));
#199=EDGE_LOOP('',(#946,#947,#948,#949));
#200=EDGE_LOOP('',(#950,#951,#952,#953));
#201=EDGE_LOOP('',(#954,#955,#956,#957));
#202=EDGE_LOOP('',(#958));
#203=EDGE_LOOP('',(#959));
#204=EDGE_LOOP('',(#960,#961,#962,#963));
#205=EDGE_LOOP('',(#964,#965,#966,#967,#968,#969,#970,#971));
#206=EDGE_LOOP('',(#972,#973,#974,#975,#976,#977,#978));
#207=EDGE_LOOP('',(#979));
#208=EDGE_LOOP('',(#980,#981,#982,#983,#984,#985,#986,#987));
#209=EDGE_LOOP('',(#988,#989,#990,#991));
#210=EDGE_LOOP('',(#992,#993,#994,#995));
#211=EDGE_LOOP('',(#996,#997,#998,#999));
#212=EDGE_LOOP('',(#1000,#1001,#1002,#1003));
#213=EDGE_LOOP('',(#1004,#1005,#1006,#1007));
#214=EDGE_LOOP('',(#1008,#1009,#1010,#1011));
#215=EDGE_LOOP('',(#1012,#1013,#1014,#1015,#1016,#1017,#1018,#1019));
#216=EDGE_LOOP('',(#1020,#1021,#1022,#1023));
#217=EDGE_LOOP('',(#1024));
#218=EDGE_LOOP('',(#1025));
#219=EDGE_LOOP('',(#1026,#1027,#1028,#1029,#1030,#1031,#1032));
#220=EDGE_LOOP('',(#1033));
#221=EDGE_LOOP('',(#1034,#1035,#1036,#1037));
#222=EDGE_LOOP('',(#1038,#1039,#1040,#1041));
#223=EDGE_LOOP('',(#1042,#1043,#1044,#1045));
#224=EDGE_LOOP('',(#1046,#1047,#1048,#1049));
#225=EDGE_LOOP('',(#1050,#1051,#1052,#1053));
#226=EDGE_LOOP('',(#1054,#1055,#1056,#1057));
#227=EDGE_LOOP('',(#1058,#1059,#1060,#1061));
#228=EDGE_LOOP('',(#1062,#1063,#1064,#1065));
#229=EDGE_LOOP('',(#1066,#1067,#1068,#1069));
#230=EDGE_LOOP('',(#1070,#1071,#1072,#1073));
#231=EDGE_LOOP('',(#1074,#1075,#1076,#1077));
#232=EDGE_LOOP('',(#1078,#1079,#1080,#1081));
#233=EDGE_LOOP('',(#1082,#1083,#1084,#1085,#1086,#1087,#1088,#1089));
#234=EDGE_LOOP('',(#1090,#1091,#1092,#1093));
#235=EDGE_LOOP('',(#1094,#1095,#1096,#1097,#1098,#1099,#1100,#1101));
#236=EDGE_LOOP('',(#1102,#1103,#1104,#1105));
#237=CIRCLE('',#1251,5.00000000000001);
#238=CIRCLE('',#1252,4.);
#239=CIRCLE('',#1255,5.00000000000001);
#240=CIRCLE('',#1260,4.);
#241=CIRCLE('',#1261,4.);
#242=CIRCLE('',#1262,4.);
#243=CIRCLE('',#1264,1.15);
#244=CIRCLE('',#1266,1.15);
#245=CIRCLE('',#1269,3.);
#246=CIRCLE('',#1270,1.2);
#247=CIRCLE('',#1272,1.2);
#248=CIRCLE('',#1275,3.);
#249=CIRCLE('',#1278,3.);
#250=CIRCLE('',#1279,1.2);
#251=CIRCLE('',#1281,1.2);
#252=CIRCLE('',#1284,3.);
#253=CIRCLE('',#1287,3.);
#254=CIRCLE('',#1288,1.2);
#255=CIRCLE('',#1290,1.2);
#256=CIRCLE('',#1293,3.);
#257=CIRCLE('',#1296,3.00000000000001);
#258=CIRCLE('',#1297,1.2);
#259=CIRCLE('',#1299,1.2);
#260=CIRCLE('',#1302,3.00000000000001);
#261=CIRCLE('',#1305,4.);
#262=CIRCLE('',#1306,1.15);
#263=CIRCLE('',#1308,4.99999999999999);
#264=CIRCLE('',#1309,4.);
#265=CIRCLE('',#1310,4.);
#266=CIRCLE('',#1314,4.99999999999999);
#267=CIRCLE('',#1318,4.);
#268=CIRCLE('',#1320,1.15);
#269=CIRCLE('',#1323,4.);
#270=CIRCLE('',#1324,5.);
#271=CIRCLE('',#1328,5.);
#272=CIRCLE('',#1332,4.);
#273=CIRCLE('',#1333,1.15);
#274=CIRCLE('',#1335,1.15);
#275=CIRCLE('',#1337,4.);
#276=CIRCLE('',#1338,4.);
#277=CIRCLE('',#1341,4.);
#278=CIRCLE('',#1342,4.);
#279=CIRCLE('',#1343,4.99999999999997);
#280=CIRCLE('',#1348,4.99999999999997);
#281=CIRCLE('',#1352,4.);
#282=CIRCLE('',#1353,4.);
#283=CIRCLE('',#1355,1.15);
#284=CIRCLE('',#1356,1.15);
#285=CIRCLE('',#1365,5.);
#286=CIRCLE('',#1366,5.);
#287=CIRCLE('',#1369,5.);
#288=CIRCLE('',#1370,5.);
#289=CIRCLE('',#1373,5.);
#290=CIRCLE('',#1374,5.);
#291=CIRCLE('',#1377,5.);
#292=CIRCLE('',#1378,5.);
#293=LINE('',#1756,#400);
#294=LINE('',#1758,#401);
#295=LINE('',#1762,#402);
#296=LINE('',#1764,#403);
#297=LINE('',#1768,#404);
#298=LINE('',#1770,#405);
#299=LINE('',#1771,#406);
#300=LINE('',#1774,#407);
#301=LINE('',#1778,#408);
#302=LINE('',#1779,#409);
#303=LINE('',#1782,#410);
#304=LINE('',#1783,#411);
#305=LINE('',#1786,#412);
#306=LINE('',#1787,#413);
#307=LINE('',#1792,#414);
#308=LINE('',#1800,#415);
#309=LINE('',#1812,#416);
#310=LINE('',#1814,#417);
#311=LINE('',#1817,#418);
#312=LINE('',#1829,#419);
#313=LINE('',#1831,#420);
#314=LINE('',#1834,#421);
#315=LINE('',#1846,#422);
#316=LINE('',#1848,#423);
#317=LINE('',#1851,#424);
#318=LINE('',#1863,#425);
#319=LINE('',#1865,#426);
#320=LINE('',#1868,#427);
#321=LINE('',#1881,#428);
#322=LINE('',#1883,#429);
#323=LINE('',#1889,#430);
#324=LINE('',#1890,#431);
#325=LINE('',#1893,#432);
#326=LINE('',#1895,#433);
#327=LINE('',#1896,#434);
#328=LINE('',#1899,#435);
#329=LINE('',#1900,#436);
#330=LINE('',#1903,#437);
#331=LINE('',#1907,#438);
#332=LINE('',#1908,#439);
#333=LINE('',#1911,#440);
#334=LINE('',#1912,#441);
#335=LINE('',#1914,#442);
#336=LINE('',#1918,#443);
#337=LINE('',#1924,#444);
#338=LINE('',#1928,#445);
#339=LINE('',#1930,#446);
#340=LINE('',#1933,#447);
#341=LINE('',#1936,#448);
#342=LINE('',#1938,#449);
#343=LINE('',#1939,#450);
#344=LINE('',#1942,#451);
#345=LINE('',#1943,#452);
#346=LINE('',#1946,#453);
#347=LINE('',#1950,#454);
#348=LINE('',#1951,#455);
#349=LINE('',#1954,#456);
#350=LINE('',#1955,#457);
#351=LINE('',#1963,#458);
#352=LINE('',#1967,#459);
#353=LINE('',#1974,#460);
#354=LINE('',#1980,#461);
#355=LINE('',#1982,#462);
#356=LINE('',#1984,#463);
#357=LINE('',#1987,#464);
#358=LINE('',#1990,#465);
#359=LINE('',#1992,#466);
#360=LINE('',#1993,#467);
#361=LINE('',#1996,#468);
#362=LINE('',#1998,#469);
#363=LINE('',#1999,#470);
#364=LINE('',#2002,#471);
#365=LINE('',#2003,#472);
#366=LINE('',#2006,#473);
#367=LINE('',#2010,#474);
#368=LINE('',#2011,#475);
#369=LINE('',#2013,#476);
#370=LINE('',#2017,#477);
#371=LINE('',#2023,#478);
#372=LINE('',#2030,#479);
#373=LINE('',#2032,#480);
#374=LINE('',#2034,#481);
#375=LINE('',#2035,#482);
#376=LINE('',#2038,#483);
#377=LINE('',#2040,#484);
#378=LINE('',#2041,#485);
#379=LINE('',#2044,#486);
#380=LINE('',#2046,#487);
#381=LINE('',#2047,#488);
#382=LINE('',#2049,#489);
#383=LINE('',#2050,#490);
#384=LINE('',#2054,#491);
#385=LINE('',#2056,#492);
#386=LINE('',#2058,#493);
#387=LINE('',#2059,#494);
#388=LINE('',#2065,#495);
#389=LINE('',#2068,#496);
#390=LINE('',#2070,#497);
#391=LINE('',#2071,#498);
#392=LINE('',#2077,#499);
#393=LINE('',#2080,#500);
#394=LINE('',#2082,#501);
#395=LINE('',#2083,#502);
#396=LINE('',#2089,#503);
#397=LINE('',#2092,#504);
#398=LINE('',#2094,#505);
#399=LINE('',#2095,#506);
#400=VECTOR('',#1385,10.);
#401=VECTOR('',#1386,10.);
#402=VECTOR('',#1389,10.);
#403=VECTOR('',#1390,10.);
#404=VECTOR('',#1395,10.);
#405=VECTOR('',#1396,10.);
#406=VECTOR('',#1397,10.);
#407=VECTOR('',#1400,10.);
#408=VECTOR('',#1405,10.);
#409=VECTOR('',#1406,10.);
#410=VECTOR('',#1409,10.);
#411=VECTOR('',#1410,10.);
#412=VECTOR('',#1413,10.);
#413=VECTOR('',#1414,10.);
#414=VECTOR('',#1419,4.);
#415=VECTOR('',#1430,1.15);
#416=VECTOR('',#1445,0.6);
#417=VECTOR('',#1448,1.2);
#418=VECTOR('',#1451,3.);
#419=VECTOR('',#1466,0.6);
#420=VECTOR('',#1469,1.2);
#421=VECTOR('',#1472,3.);
#422=VECTOR('',#1487,0.6);
#423=VECTOR('',#1490,1.2);
#424=VECTOR('',#1493,3.);
#425=VECTOR('',#1508,0.6);
#426=VECTOR('',#1511,1.2);
#427=VECTOR('',#1514,3.00000000000001);
#428=VECTOR('',#1529,10.);
#429=VECTOR('',#1530,10.);
#430=VECTOR('',#1535,10.);
#431=VECTOR('',#1536,10.);
#432=VECTOR('',#1539,10.);
#433=VECTOR('',#1540,10.);
#434=VECTOR('',#1541,10.);
#435=VECTOR('',#1544,10.);
#436=VECTOR('',#1545,10.);
#437=VECTOR('',#1548,10.);
#438=VECTOR('',#1553,10.);
#439=VECTOR('',#1554,10.);
#440=VECTOR('',#1557,10.);
#441=VECTOR('',#1558,10.);
#442=VECTOR('',#1561,4.);
#443=VECTOR('',#1566,1.15);
#444=VECTOR('',#1573,10.);
#445=VECTOR('',#1576,10.);
#446=VECTOR('',#1577,10.);
#447=VECTOR('',#1580,10.);
#448=VECTOR('',#1583,10.);
#449=VECTOR('',#1584,10.);
#450=VECTOR('',#1585,10.);
#451=VECTOR('',#1588,10.);
#452=VECTOR('',#1589,10.);
#453=VECTOR('',#1592,10.);
#454=VECTOR('',#1597,10.);
#455=VECTOR('',#1598,10.);
#456=VECTOR('',#1601,10.);
#457=VECTOR('',#1602,10.);
#458=VECTOR('',#1611,1.15);
#459=VECTOR('',#1616,4.);
#460=VECTOR('',#1625,10.);
#461=VECTOR('',#1630,10.);
#462=VECTOR('',#1631,10.);
#463=VECTOR('',#1632,10.);
#464=VECTOR('',#1635,10.);
#465=VECTOR('',#1638,10.);
#466=VECTOR('',#1639,10.);
#467=VECTOR('',#1640,10.);
#468=VECTOR('',#1643,10.);
#469=VECTOR('',#1644,10.);
#470=VECTOR('',#1645,10.);
#471=VECTOR('',#1648,10.);
#472=VECTOR('',#1649,10.);
#473=VECTOR('',#1652,10.);
#474=VECTOR('',#1657,10.);
#475=VECTOR('',#1658,10.);
#476=VECTOR('',#1661,10.);
#477=VECTOR('',#1666,4.);
#478=VECTOR('',#1673,1.15);
#479=VECTOR('',#1682,10.);
#480=VECTOR('',#1683,10.);
#481=VECTOR('',#1684,10.);
#482=VECTOR('',#1685,10.);
#483=VECTOR('',#1688,10.);
#484=VECTOR('',#1689,10.);
#485=VECTOR('',#1690,10.);
#486=VECTOR('',#1693,10.);
#487=VECTOR('',#1694,10.);
#488=VECTOR('',#1695,10.);
#489=VECTOR('',#1698,10.);
#490=VECTOR('',#1699,10.);
#491=VECTOR('',#1702,10.);
#492=VECTOR('',#1703,10.);
#493=VECTOR('',#1704,10.);
#494=VECTOR('',#1705,10.);
#495=VECTOR('',#1712,10.);
#496=VECTOR('',#1715,10.);
#497=VECTOR('',#1716,10.);
#498=VECTOR('',#1717,10.);
#499=VECTOR('',#1724,10.);
#500=VECTOR('',#1727,10.);
#501=VECTOR('',#1728,10.);
#502=VECTOR('',#1729,10.);
#503=VECTOR('',#1736,10.);
#504=VECTOR('',#1739,10.);
#505=VECTOR('',#1740,10.);
#506=VECTOR('',#1741,10.);
#507=VERTEX_POINT('',#1754);
#508=VERTEX_POINT('',#1755);
#509=VERTEX_POINT('',#1757);
#510=VERTEX_POINT('',#1759);
#511=VERTEX_POINT('',#1761);
#512=VERTEX_POINT('',#1763);
#513=VERTEX_POINT('',#1767);
#514=VERTEX_POINT('',#1769);
#515=VERTEX_POINT('',#1773);
#516=VERTEX_POINT('',#1777);
#517=VERTEX_POINT('',#1781);
#518=VERTEX_POINT('',#1785);
#519=VERTEX_POINT('',#1789);
#520=VERTEX_POINT('',#1791);
#521=VERTEX_POINT('',#1796);
#522=VERTEX_POINT('',#1799);
#523=VERTEX_POINT('',#1804);
#524=VERTEX_POINT('',#1806);
#525=VERTEX_POINT('',#1809);
#526=VERTEX_POINT('',#1811);
#527=VERTEX_POINT('',#1816);
#528=VERTEX_POINT('',#1821);
#529=VERTEX_POINT('',#1823);
#530=VERTEX_POINT('',#1826);
#531=VERTEX_POINT('',#1828);
#532=VERTEX_POINT('',#1833);
#533=VERTEX_POINT('',#1838);
#534=VERTEX_POINT('',#1840);
#535=VERTEX_POINT('',#1843);
#536=VERTEX_POINT('',#1845);
#537=VERTEX_POINT('',#1850);
#538=VERTEX_POINT('',#1855);
#539=VERTEX_POINT('',#1857);
#540=VERTEX_POINT('',#1860);
#541=VERTEX_POINT('',#1862);
#542=VERTEX_POINT('',#1867);
#543=VERTEX_POINT('',#1872);
#544=VERTEX_POINT('',#1874);
#545=VERTEX_POINT('',#1877);
#546=VERTEX_POINT('',#1878);
#547=VERTEX_POINT('',#1880);
#548=VERTEX_POINT('',#1882);
#549=VERTEX_POINT('',#1884);
#550=VERTEX_POINT('',#1886);
#551=VERTEX_POINT('',#1888);
#552=VERTEX_POINT('',#1892);
#553=VERTEX_POINT('',#1894);
#554=VERTEX_POINT('',#1898);
#555=VERTEX_POINT('',#1902);
#556=VERTEX_POINT('',#1906);
#557=VERTEX_POINT('',#1910);
#558=VERTEX_POINT('',#1917);
#559=VERTEX_POINT('',#1922);
#560=VERTEX_POINT('',#1923);
#561=VERTEX_POINT('',#1925);
#562=VERTEX_POINT('',#1927);
#563=VERTEX_POINT('',#1929);
#564=VERTEX_POINT('',#1931);
#565=VERTEX_POINT('',#1935);
#566=VERTEX_POINT('',#1937);
#567=VERTEX_POINT('',#1941);
#568=VERTEX_POINT('',#1945);
#569=VERTEX_POINT('',#1949);
#570=VERTEX_POINT('',#1953);
#571=VERTEX_POINT('',#1957);
#572=VERTEX_POINT('',#1959);
#573=VERTEX_POINT('',#1962);
#574=VERTEX_POINT('',#1966);
#575=VERTEX_POINT('',#1972);
#576=VERTEX_POINT('',#1973);
#577=VERTEX_POINT('',#1975);
#578=VERTEX_POINT('',#1977);
#579=VERTEX_POINT('',#1979);
#580=VERTEX_POINT('',#1981);
#581=VERTEX_POINT('',#1983);
#582=VERTEX_POINT('',#1985);
#583=VERTEX_POINT('',#1989);
#584=VERTEX_POINT('',#1991);
#585=VERTEX_POINT('',#1995);
#586=VERTEX_POINT('',#1997);
#587=VERTEX_POINT('',#2001);
#588=VERTEX_POINT('',#2005);
#589=VERTEX_POINT('',#2009);
#590=VERTEX_POINT('',#2015);
#591=VERTEX_POINT('',#2020);
#592=VERTEX_POINT('',#2022);
#593=VERTEX_POINT('',#2028);
#594=VERTEX_POINT('',#2029);
#595=VERTEX_POINT('',#2031);
#596=VERTEX_POINT('',#2033);
#597=VERTEX_POINT('',#2037);
#598=VERTEX_POINT('',#2039);
#599=VERTEX_POINT('',#2043);
#600=VERTEX_POINT('',#2045);
#601=VERTEX_POINT('',#2052);
#602=VERTEX_POINT('',#2053);
#603=VERTEX_POINT('',#2055);
#604=VERTEX_POINT('',#2057);
#605=VERTEX_POINT('',#2061);
#606=VERTEX_POINT('',#2063);
#607=VERTEX_POINT('',#2067);
#608=VERTEX_POINT('',#2069);
#609=VERTEX_POINT('',#2073);
#610=VERTEX_POINT('',#2075);
#611=VERTEX_POINT('',#2079);
#612=VERTEX_POINT('',#2081);
#613=VERTEX_POINT('',#2085);
#614=VERTEX_POINT('',#2087);
#615=VERTEX_POINT('',#2091);
#616=VERTEX_POINT('',#2093);
#617=EDGE_CURVE('',#507,#508,#293,.T.);
#618=EDGE_CURVE('',#509,#507,#294,.T.);
#619=EDGE_CURVE('',#510,#509,#237,.T.);
#620=EDGE_CURVE('',#511,#510,#295,.T.);
#621=EDGE_CURVE('',#512,#511,#296,.T.);
#622=EDGE_CURVE('',#508,#512,#238,.T.);
#623=EDGE_CURVE('',#513,#510,#297,.T.);
#624=EDGE_CURVE('',#514,#513,#298,.T.);
#625=EDGE_CURVE('',#514,#511,#299,.T.);
#626=EDGE_CURVE('',#515,#509,#300,.T.);
#627=EDGE_CURVE('',#515,#513,#239,.T.);
#628=EDGE_CURVE('',#516,#507,#301,.T.);
#629=EDGE_CURVE('',#516,#515,#302,.T.);
#630=EDGE_CURVE('',#517,#508,#303,.T.);
#631=EDGE_CURVE('',#517,#516,#304,.T.);
#632=EDGE_CURVE('',#518,#514,#305,.T.);
#633=EDGE_CURVE('',#512,#518,#306,.T.);
#634=EDGE_CURVE('',#519,#519,#240,.T.);
#635=EDGE_CURVE('',#519,#520,#307,.T.);
#636=EDGE_CURVE('',#520,#517,#241,.T.);
#637=EDGE_CURVE('',#518,#520,#242,.T.);
#638=EDGE_CURVE('',#521,#521,#243,.T.);
#639=EDGE_CURVE('',#521,#522,#308,.T.);
#640=EDGE_CURVE('',#522,#522,#244,.T.);
#641=EDGE_CURVE('',#523,#523,#245,.T.);
#642=EDGE_CURVE('',#524,#524,#246,.T.);
#643=EDGE_CURVE('',#525,#525,#247,.T.);
#644=EDGE_CURVE('',#525,#526,#309,.T.);
#645=EDGE_CURVE('',#524,#525,#310,.T.);
#646=EDGE_CURVE('',#523,#527,#311,.T.);
#647=EDGE_CURVE('',#527,#527,#248,.T.);
#648=EDGE_CURVE('',#528,#528,#249,.T.);
#649=EDGE_CURVE('',#529,#529,#250,.T.);
#650=EDGE_CURVE('',#530,#530,#251,.T.);
#651=EDGE_CURVE('',#530,#531,#312,.T.);
#652=EDGE_CURVE('',#529,#530,#313,.T.);
#653=EDGE_CURVE('',#528,#532,#314,.T.);
#654=EDGE_CURVE('',#532,#532,#252,.T.);
#655=EDGE_CURVE('',#533,#533,#253,.T.);
#656=EDGE_CURVE('',#534,#534,#254,.T.);
#657=EDGE_CURVE('',#535,#535,#255,.T.);
#658=EDGE_CURVE('',#535,#536,#315,.T.);
#659=EDGE_CURVE('',#534,#535,#316,.T.);
#660=EDGE_CURVE('',#533,#537,#317,.T.);
#661=EDGE_CURVE('',#537,#537,#256,.T.);
#662=EDGE_CURVE('',#538,#538,#257,.T.);
#663=EDGE_CURVE('',#539,#539,#258,.T.);
#664=EDGE_CURVE('',#540,#540,#259,.T.);
#665=EDGE_CURVE('',#540,#541,#318,.T.);
#666=EDGE_CURVE('',#539,#540,#319,.T.);
#667=EDGE_CURVE('',#538,#542,#320,.T.);
#668=EDGE_CURVE('',#542,#542,#260,.T.);
#669=EDGE_CURVE('',#543,#543,#261,.T.);
#670=EDGE_CURVE('',#544,#544,#262,.T.);
#671=EDGE_CURVE('',#545,#546,#263,.T.);
#672=EDGE_CURVE('',#547,#545,#321,.T.);
#673=EDGE_CURVE('',#548,#547,#322,.T.);
#674=EDGE_CURVE('',#549,#548,#264,.T.);
#675=EDGE_CURVE('',#550,#549,#265,.T.);
#676=EDGE_CURVE('',#551,#550,#323,.T.);
#677=EDGE_CURVE('',#546,#551,#324,.T.);
#678=EDGE_CURVE('',#552,#547,#325,.T.);
#679=EDGE_CURVE('',#552,#553,#326,.T.);
#680=EDGE_CURVE('',#548,#553,#327,.T.);
#681=EDGE_CURVE('',#554,#545,#328,.T.);
#682=EDGE_CURVE('',#554,#552,#329,.T.);
#683=EDGE_CURVE('',#555,#546,#330,.T.);
#684=EDGE_CURVE('',#555,#554,#266,.T.);
#685=EDGE_CURVE('',#556,#551,#331,.T.);
#686=EDGE_CURVE('',#555,#556,#332,.T.);
#687=EDGE_CURVE('',#557,#550,#333,.T.);
#688=EDGE_CURVE('',#557,#556,#334,.T.);
#689=EDGE_CURVE('',#543,#549,#335,.T.);
#690=EDGE_CURVE('',#553,#557,#267,.T.);
#691=EDGE_CURVE('',#544,#558,#336,.T.);
#692=EDGE_CURVE('',#558,#558,#268,.T.);
#693=EDGE_CURVE('',#559,#560,#337,.T.);
#694=EDGE_CURVE('',#561,#559,#269,.T.);
#695=EDGE_CURVE('',#562,#561,#338,.T.);
#696=EDGE_CURVE('',#563,#562,#339,.T.);
#697=EDGE_CURVE('',#564,#563,#270,.T.);
#698=EDGE_CURVE('',#560,#564,#340,.T.);
#699=EDGE_CURVE('',#565,#560,#341,.T.);
#700=EDGE_CURVE('',#565,#566,#342,.T.);
#701=EDGE_CURVE('',#559,#566,#343,.T.);
#702=EDGE_CURVE('',#567,#564,#344,.T.);
#703=EDGE_CURVE('',#565,#567,#345,.T.);
#704=EDGE_CURVE('',#568,#563,#346,.T.);
#705=EDGE_CURVE('',#568,#567,#271,.T.);
#706=EDGE_CURVE('',#569,#562,#347,.T.);
#707=EDGE_CURVE('',#568,#569,#348,.T.);
#708=EDGE_CURVE('',#570,#561,#349,.T.);
#709=EDGE_CURVE('',#570,#569,#350,.T.);
#710=EDGE_CURVE('',#571,#571,#272,.T.);
#711=EDGE_CURVE('',#572,#572,#273,.T.);
#712=EDGE_CURVE('',#572,#573,#351,.T.);
#713=EDGE_CURVE('',#573,#573,#274,.T.);
#714=EDGE_CURVE('',#571,#574,#352,.T.);
#715=EDGE_CURVE('',#574,#570,#275,.T.);
#716=EDGE_CURVE('',#566,#574,#276,.T.);
#717=EDGE_CURVE('',#575,#576,#353,.T.);
#718=EDGE_CURVE('',#577,#575,#277,.T.);
#719=EDGE_CURVE('',#578,#577,#278,.T.);
#720=EDGE_CURVE('',#579,#578,#354,.T.);
#721=EDGE_CURVE('',#580,#579,#355,.T.);
#722=EDGE_CURVE('',#581,#580,#356,.T.);
#723=EDGE_CURVE('',#582,#581,#279,.T.);
#724=EDGE_CURVE('',#576,#582,#357,.T.);
#725=EDGE_CURVE('',#583,#578,#358,.T.);
#726=EDGE_CURVE('',#583,#584,#359,.T.);
#727=EDGE_CURVE('',#584,#579,#360,.T.);
#728=EDGE_CURVE('',#585,#576,#361,.T.);
#729=EDGE_CURVE('',#586,#585,#362,.T.);
#730=EDGE_CURVE('',#575,#586,#363,.T.);
#731=EDGE_CURVE('',#587,#582,#364,.T.);
#732=EDGE_CURVE('',#587,#585,#365,.T.);
#733=EDGE_CURVE('',#588,#581,#366,.T.);
#734=EDGE_CURVE('',#588,#587,#280,.T.);
#735=EDGE_CURVE('',#589,#580,#367,.T.);
#736=EDGE_CURVE('',#589,#588,#368,.T.);
#737=EDGE_CURVE('',#584,#589,#369,.T.);
#738=EDGE_CURVE('',#590,#590,#281,.T.);
#739=EDGE_CURVE('',#590,#577,#370,.T.);
#740=EDGE_CURVE('',#586,#583,#282,.T.);
#741=EDGE_CURVE('',#591,#591,#283,.T.);
#742=EDGE_CURVE('',#591,#592,#371,.T.);
#743=EDGE_CURVE('',#592,#592,#284,.T.);
#744=EDGE_CURVE('',#593,#594,#372,.T.);
#745=EDGE_CURVE('',#593,#595,#373,.T.);
#746=EDGE_CURVE('',#596,#595,#374,.T.);
#747=EDGE_CURVE('',#594,#596,#375,.T.);
#748=EDGE_CURVE('',#597,#593,#376,.T.);
#749=EDGE_CURVE('',#597,#598,#377,.T.);
#750=EDGE_CURVE('',#595,#598,#378,.T.);
#751=EDGE_CURVE('',#599,#597,#379,.T.);
#752=EDGE_CURVE('',#599,#600,#380,.T.);
#753=EDGE_CURVE('',#598,#600,#381,.T.);
#754=EDGE_CURVE('',#594,#599,#382,.T.);
#755=EDGE_CURVE('',#600,#596,#383,.T.);
#756=EDGE_CURVE('',#601,#602,#384,.T.);
#757=EDGE_CURVE('',#602,#603,#385,.T.);
#758=EDGE_CURVE('',#604,#603,#386,.T.);
#759=EDGE_CURVE('',#601,#604,#387,.T.);
#760=EDGE_CURVE('',#601,#605,#285,.T.);
#761=EDGE_CURVE('',#606,#604,#286,.T.);
#762=EDGE_CURVE('',#605,#606,#388,.T.);
#763=EDGE_CURVE('',#607,#605,#389,.T.);
#764=EDGE_CURVE('',#608,#606,#390,.T.);
#765=EDGE_CURVE('',#607,#608,#391,.T.);
#766=EDGE_CURVE('',#607,#609,#287,.T.);
#767=EDGE_CURVE('',#610,#608,#288,.T.);
#768=EDGE_CURVE('',#609,#610,#392,.T.);
#769=EDGE_CURVE('',#611,#609,#393,.T.);
#770=EDGE_CURVE('',#612,#610,#394,.T.);
#771=EDGE_CURVE('',#611,#612,#395,.T.);
#772=EDGE_CURVE('',#611,#613,#289,.T.);
#773=EDGE_CURVE('',#614,#612,#290,.T.);
#774=EDGE_CURVE('',#613,#614,#396,.T.);
#775=EDGE_CURVE('',#615,#613,#397,.T.);
#776=EDGE_CURVE('',#616,#614,#398,.T.);
#777=EDGE_CURVE('',#615,#616,#399,.T.);
#778=EDGE_CURVE('',#615,#602,#291,.T.);
#779=EDGE_CURVE('',#603,#616,#292,.T.);
#780=ORIENTED_EDGE('',*,*,#617,.F.);
#781=ORIENTED_EDGE('',*,*,#618,.F.);
#782=ORIENTED_EDGE('',*,*,#619,.F.);
#783=ORIENTED_EDGE('',*,*,#620,.F.);
#784=ORIENTED_EDGE('',*,*,#621,.F.);
#785=ORIENTED_EDGE('',*,*,#622,.F.);
#786=ORIENTED_EDGE('',*,*,#620,.T.);
#787=ORIENTED_EDGE('',*,*,#623,.F.);
#788=ORIENTED_EDGE('',*,*,#624,.F.);
#789=ORIENTED_EDGE('',*,*,#625,.T.);
#790=ORIENTED_EDGE('',*,*,#619,.T.);
#791=ORIENTED_EDGE('',*,*,#626,.F.);
#792=ORIENTED_EDGE('',*,*,#627,.T.);
#793=ORIENTED_EDGE('',*,*,#623,.T.);
#794=ORIENTED_EDGE('',*,*,#618,.T.);
#795=ORIENTED_EDGE('',*,*,#628,.F.);
#796=ORIENTED_EDGE('',*,*,#629,.T.);
#797=ORIENTED_EDGE('',*,*,#626,.T.);
#798=ORIENTED_EDGE('',*,*,#617,.T.);
#799=ORIENTED_EDGE('',*,*,#630,.F.);
#800=ORIENTED_EDGE('',*,*,#631,.T.);
#801=ORIENTED_EDGE('',*,*,#628,.T.);
#802=ORIENTED_EDGE('',*,*,#621,.T.);
#803=ORIENTED_EDGE('',*,*,#625,.F.);
#804=ORIENTED_EDGE('',*,*,#632,.F.);
#805=ORIENTED_EDGE('',*,*,#633,.F.);
#806=ORIENTED_EDGE('',*,*,#634,.F.);
#807=ORIENTED_EDGE('',*,*,#635,.T.);
#808=ORIENTED_EDGE('',*,*,#636,.T.);
#809=ORIENTED_EDGE('',*,*,#630,.T.);
#810=ORIENTED_EDGE('',*,*,#622,.T.);
#811=ORIENTED_EDGE('',*,*,#633,.T.);
#812=ORIENTED_EDGE('',*,*,#637,.T.);
#813=ORIENTED_EDGE('',*,*,#635,.F.);
#814=ORIENTED_EDGE('',*,*,#634,.T.);
#815=ORIENTED_EDGE('',*,*,#638,.T.);
#816=ORIENTED_EDGE('',*,*,#638,.F.);
#817=ORIENTED_EDGE('',*,*,#639,.T.);
#818=ORIENTED_EDGE('',*,*,#640,.T.);
#819=ORIENTED_EDGE('',*,*,#639,.F.);
#820=ORIENTED_EDGE('',*,*,#637,.F.);
#821=ORIENTED_EDGE('',*,*,#632,.T.);
#822=ORIENTED_EDGE('',*,*,#624,.T.);
#823=ORIENTED_EDGE('',*,*,#627,.F.);
#824=ORIENTED_EDGE('',*,*,#629,.F.);
#825=ORIENTED_EDGE('',*,*,#631,.F.);
#826=ORIENTED_EDGE('',*,*,#636,.F.);
#827=ORIENTED_EDGE('',*,*,#640,.F.);
#828=ORIENTED_EDGE('',*,*,#641,.T.);
#829=ORIENTED_EDGE('',*,*,#642,.T.);
#830=ORIENTED_EDGE('',*,*,#643,.F.);
#831=ORIENTED_EDGE('',*,*,#644,.T.);
#832=ORIENTED_EDGE('',*,*,#644,.F.);
#833=ORIENTED_EDGE('',*,*,#642,.F.);
#834=ORIENTED_EDGE('',*,*,#645,.T.);
#835=ORIENTED_EDGE('',*,*,#643,.T.);
#836=ORIENTED_EDGE('',*,*,#645,.F.);
#837=ORIENTED_EDGE('',*,*,#641,.F.);
#838=ORIENTED_EDGE('',*,*,#646,.T.);
#839=ORIENTED_EDGE('',*,*,#647,.T.);
#840=ORIENTED_EDGE('',*,*,#646,.F.);
#841=ORIENTED_EDGE('',*,*,#647,.F.);
#842=ORIENTED_EDGE('',*,*,#648,.T.);
#843=ORIENTED_EDGE('',*,*,#649,.T.);
#844=ORIENTED_EDGE('',*,*,#650,.F.);
#845=ORIENTED_EDGE('',*,*,#651,.T.);
#846=ORIENTED_EDGE('',*,*,#651,.F.);
#847=ORIENTED_EDGE('',*,*,#649,.F.);
#848=ORIENTED_EDGE('',*,*,#652,.T.);
#849=ORIENTED_EDGE('',*,*,#650,.T.);
#850=ORIENTED_EDGE('',*,*,#652,.F.);
#851=ORIENTED_EDGE('',*,*,#648,.F.);
#852=ORIENTED_EDGE('',*,*,#653,.T.);
#853=ORIENTED_EDGE('',*,*,#654,.T.);
#854=ORIENTED_EDGE('',*,*,#653,.F.);
#855=ORIENTED_EDGE('',*,*,#654,.F.);
#856=ORIENTED_EDGE('',*,*,#655,.T.);
#857=ORIENTED_EDGE('',*,*,#656,.T.);
#858=ORIENTED_EDGE('',*,*,#657,.F.);
#859=ORIENTED_EDGE('',*,*,#658,.T.);
#860=ORIENTED_EDGE('',*,*,#658,.F.);
#861=ORIENTED_EDGE('',*,*,#656,.F.);
#862=ORIENTED_EDGE('',*,*,#659,.T.);
#863=ORIENTED_EDGE('',*,*,#657,.T.);
#864=ORIENTED_EDGE('',*,*,#659,.F.);
#865=ORIENTED_EDGE('',*,*,#655,.F.);
#866=ORIENTED_EDGE('',*,*,#660,.T.);
#867=ORIENTED_EDGE('',*,*,#661,.T.);
#868=ORIENTED_EDGE('',*,*,#660,.F.);
#869=ORIENTED_EDGE('',*,*,#661,.F.);
#870=ORIENTED_EDGE('',*,*,#662,.T.);
#871=ORIENTED_EDGE('',*,*,#663,.T.);
#872=ORIENTED_EDGE('',*,*,#664,.F.);
#873=ORIENTED_EDGE('',*,*,#665,.T.);
#874=ORIENTED_EDGE('',*,*,#665,.F.);
#875=ORIENTED_EDGE('',*,*,#663,.F.);
#876=ORIENTED_EDGE('',*,*,#666,.T.);
#877=ORIENTED_EDGE('',*,*,#664,.T.);
#878=ORIENTED_EDGE('',*,*,#666,.F.);
#879=ORIENTED_EDGE('',*,*,#662,.F.);
#880=ORIENTED_EDGE('',*,*,#667,.T.);
#881=ORIENTED_EDGE('',*,*,#668,.T.);
#882=ORIENTED_EDGE('',*,*,#667,.F.);
#883=ORIENTED_EDGE('',*,*,#668,.F.);
#884=ORIENTED_EDGE('',*,*,#669,.T.);
#885=ORIENTED_EDGE('',*,*,#670,.T.);
#886=ORIENTED_EDGE('',*,*,#671,.F.);
#887=ORIENTED_EDGE('',*,*,#672,.F.);
#888=ORIENTED_EDGE('',*,*,#673,.F.);
#889=ORIENTED_EDGE('',*,*,#674,.F.);
#890=ORIENTED_EDGE('',*,*,#675,.F.);
#891=ORIENTED_EDGE('',*,*,#676,.F.);
#892=ORIENTED_EDGE('',*,*,#677,.F.);
#893=ORIENTED_EDGE('',*,*,#673,.T.);
#894=ORIENTED_EDGE('',*,*,#678,.F.);
#895=ORIENTED_EDGE('',*,*,#679,.T.);
#896=ORIENTED_EDGE('',*,*,#680,.F.);
#897=ORIENTED_EDGE('',*,*,#672,.T.);
#898=ORIENTED_EDGE('',*,*,#681,.F.);
#899=ORIENTED_EDGE('',*,*,#682,.T.);
#900=ORIENTED_EDGE('',*,*,#678,.T.);
#901=ORIENTED_EDGE('',*,*,#671,.T.);
#902=ORIENTED_EDGE('',*,*,#683,.F.);
#903=ORIENTED_EDGE('',*,*,#684,.T.);
#904=ORIENTED_EDGE('',*,*,#681,.T.);
#905=ORIENTED_EDGE('',*,*,#677,.T.);
#906=ORIENTED_EDGE('',*,*,#685,.F.);
#907=ORIENTED_EDGE('',*,*,#686,.F.);
#908=ORIENTED_EDGE('',*,*,#683,.T.);
#909=ORIENTED_EDGE('',*,*,#676,.T.);
#910=ORIENTED_EDGE('',*,*,#687,.F.);
#911=ORIENTED_EDGE('',*,*,#688,.T.);
#912=ORIENTED_EDGE('',*,*,#685,.T.);
#913=ORIENTED_EDGE('',*,*,#669,.F.);
#914=ORIENTED_EDGE('',*,*,#689,.T.);
#915=ORIENTED_EDGE('',*,*,#674,.T.);
#916=ORIENTED_EDGE('',*,*,#680,.T.);
#917=ORIENTED_EDGE('',*,*,#690,.T.);
#918=ORIENTED_EDGE('',*,*,#687,.T.);
#919=ORIENTED_EDGE('',*,*,#675,.T.);
#920=ORIENTED_EDGE('',*,*,#689,.F.);
#921=ORIENTED_EDGE('',*,*,#670,.F.);
#922=ORIENTED_EDGE('',*,*,#691,.T.);
#923=ORIENTED_EDGE('',*,*,#692,.T.);
#924=ORIENTED_EDGE('',*,*,#691,.F.);
#925=ORIENTED_EDGE('',*,*,#690,.F.);
#926=ORIENTED_EDGE('',*,*,#679,.F.);
#927=ORIENTED_EDGE('',*,*,#682,.F.);
#928=ORIENTED_EDGE('',*,*,#684,.F.);
#929=ORIENTED_EDGE('',*,*,#686,.T.);
#930=ORIENTED_EDGE('',*,*,#688,.F.);
#931=ORIENTED_EDGE('',*,*,#692,.F.);
#932=ORIENTED_EDGE('',*,*,#693,.F.);
#933=ORIENTED_EDGE('',*,*,#694,.F.);
#934=ORIENTED_EDGE('',*,*,#695,.F.);
#935=ORIENTED_EDGE('',*,*,#696,.F.);
#936=ORIENTED_EDGE('',*,*,#697,.F.);
#937=ORIENTED_EDGE('',*,*,#698,.F.);
#938=ORIENTED_EDGE('',*,*,#693,.T.);
#939=ORIENTED_EDGE('',*,*,#699,.F.);
#940=ORIENTED_EDGE('',*,*,#700,.T.);
#941=ORIENTED_EDGE('',*,*,#701,.F.);
#942=ORIENTED_EDGE('',*,*,#698,.T.);
#943=ORIENTED_EDGE('',*,*,#702,.F.);
#944=ORIENTED_EDGE('',*,*,#703,.F.);
#945=ORIENTED_EDGE('',*,*,#699,.T.);
#946=ORIENTED_EDGE('',*,*,#697,.T.);
#947=ORIENTED_EDGE('',*,*,#704,.F.);
#948=ORIENTED_EDGE('',*,*,#705,.T.);
#949=ORIENTED_EDGE('',*,*,#702,.T.);
#950=ORIENTED_EDGE('',*,*,#696,.T.);
#951=ORIENTED_EDGE('',*,*,#706,.F.);
#952=ORIENTED_EDGE('',*,*,#707,.F.);
#953=ORIENTED_EDGE('',*,*,#704,.T.);
#954=ORIENTED_EDGE('',*,*,#695,.T.);
#955=ORIENTED_EDGE('',*,*,#708,.F.);
#956=ORIENTED_EDGE('',*,*,#709,.T.);
#957=ORIENTED_EDGE('',*,*,#706,.T.);
#958=ORIENTED_EDGE('',*,*,#710,.F.);
#959=ORIENTED_EDGE('',*,*,#711,.F.);
#960=ORIENTED_EDGE('',*,*,#711,.T.);
#961=ORIENTED_EDGE('',*,*,#712,.T.);
#962=ORIENTED_EDGE('',*,*,#713,.T.);
#963=ORIENTED_EDGE('',*,*,#712,.F.);
#964=ORIENTED_EDGE('',*,*,#710,.T.);
#965=ORIENTED_EDGE('',*,*,#714,.T.);
#966=ORIENTED_EDGE('',*,*,#715,.T.);
#967=ORIENTED_EDGE('',*,*,#708,.T.);
#968=ORIENTED_EDGE('',*,*,#694,.T.);
#969=ORIENTED_EDGE('',*,*,#701,.T.);
#970=ORIENTED_EDGE('',*,*,#716,.T.);
#971=ORIENTED_EDGE('',*,*,#714,.F.);
#972=ORIENTED_EDGE('',*,*,#716,.F.);
#973=ORIENTED_EDGE('',*,*,#700,.F.);
#974=ORIENTED_EDGE('',*,*,#703,.T.);
#975=ORIENTED_EDGE('',*,*,#705,.F.);
#976=ORIENTED_EDGE('',*,*,#707,.T.);
#977=ORIENTED_EDGE('',*,*,#709,.F.);
#978=ORIENTED_EDGE('',*,*,#715,.F.);
#979=ORIENTED_EDGE('',*,*,#713,.F.);
#980=ORIENTED_EDGE('',*,*,#717,.F.);
#981=ORIENTED_EDGE('',*,*,#718,.F.);
#982=ORIENTED_EDGE('',*,*,#719,.F.);
#983=ORIENTED_EDGE('',*,*,#720,.F.);
#984=ORIENTED_EDGE('',*,*,#721,.F.);
#985=ORIENTED_EDGE('',*,*,#722,.F.);
#986=ORIENTED_EDGE('',*,*,#723,.F.);
#987=ORIENTED_EDGE('',*,*,#724,.F.);
#988=ORIENTED_EDGE('',*,*,#720,.T.);
#989=ORIENTED_EDGE('',*,*,#725,.F.);
#990=ORIENTED_EDGE('',*,*,#726,.T.);
#991=ORIENTED_EDGE('',*,*,#727,.T.);
#992=ORIENTED_EDGE('',*,*,#717,.T.);
#993=ORIENTED_EDGE('',*,*,#728,.F.);
#994=ORIENTED_EDGE('',*,*,#729,.F.);
#995=ORIENTED_EDGE('',*,*,#730,.F.);
#996=ORIENTED_EDGE('',*,*,#724,.T.);
#997=ORIENTED_EDGE('',*,*,#731,.F.);
#998=ORIENTED_EDGE('',*,*,#732,.T.);
#999=ORIENTED_EDGE('',*,*,#728,.T.);
#1000=ORIENTED_EDGE('',*,*,#723,.T.);
#1001=ORIENTED_EDGE('',*,*,#733,.F.);
#1002=ORIENTED_EDGE('',*,*,#734,.T.);
#1003=ORIENTED_EDGE('',*,*,#731,.T.);
#1004=ORIENTED_EDGE('',*,*,#722,.T.);
#1005=ORIENTED_EDGE('',*,*,#735,.F.);
#1006=ORIENTED_EDGE('',*,*,#736,.T.);
#1007=ORIENTED_EDGE('',*,*,#733,.T.);
#1008=ORIENTED_EDGE('',*,*,#721,.T.);
#1009=ORIENTED_EDGE('',*,*,#727,.F.);
#1010=ORIENTED_EDGE('',*,*,#737,.T.);
#1011=ORIENTED_EDGE('',*,*,#735,.T.);
#1012=ORIENTED_EDGE('',*,*,#738,.F.);
#1013=ORIENTED_EDGE('',*,*,#739,.T.);
#1014=ORIENTED_EDGE('',*,*,#718,.T.);
#1015=ORIENTED_EDGE('',*,*,#730,.T.);
#1016=ORIENTED_EDGE('',*,*,#740,.T.);
#1017=ORIENTED_EDGE('',*,*,#725,.T.);
#1018=ORIENTED_EDGE('',*,*,#719,.T.);
#1019=ORIENTED_EDGE('',*,*,#739,.F.);
#1020=ORIENTED_EDGE('',*,*,#741,.F.);
#1021=ORIENTED_EDGE('',*,*,#742,.T.);
#1022=ORIENTED_EDGE('',*,*,#743,.T.);
#1023=ORIENTED_EDGE('',*,*,#742,.F.);
#1024=ORIENTED_EDGE('',*,*,#738,.T.);
#1025=ORIENTED_EDGE('',*,*,#741,.T.);
#1026=ORIENTED_EDGE('',*,*,#740,.F.);
#1027=ORIENTED_EDGE('',*,*,#729,.T.);
#1028=ORIENTED_EDGE('',*,*,#732,.F.);
#1029=ORIENTED_EDGE('',*,*,#734,.F.);
#1030=ORIENTED_EDGE('',*,*,#736,.F.);
#1031=ORIENTED_EDGE('',*,*,#737,.F.);
#1032=ORIENTED_EDGE('',*,*,#726,.F.);
#1033=ORIENTED_EDGE('',*,*,#743,.F.);
#1034=ORIENTED_EDGE('',*,*,#744,.F.);
#1035=ORIENTED_EDGE('',*,*,#745,.T.);
#1036=ORIENTED_EDGE('',*,*,#746,.F.);
#1037=ORIENTED_EDGE('',*,*,#747,.F.);
#1038=ORIENTED_EDGE('',*,*,#748,.F.);
#1039=ORIENTED_EDGE('',*,*,#749,.T.);
#1040=ORIENTED_EDGE('',*,*,#750,.F.);
#1041=ORIENTED_EDGE('',*,*,#745,.F.);
#1042=ORIENTED_EDGE('',*,*,#751,.F.);
#1043=ORIENTED_EDGE('',*,*,#752,.T.);
#1044=ORIENTED_EDGE('',*,*,#753,.F.);
#1045=ORIENTED_EDGE('',*,*,#749,.F.);
#1046=ORIENTED_EDGE('',*,*,#754,.F.);
#1047=ORIENTED_EDGE('',*,*,#747,.T.);
#1048=ORIENTED_EDGE('',*,*,#755,.F.);
#1049=ORIENTED_EDGE('',*,*,#752,.F.);
#1050=ORIENTED_EDGE('',*,*,#756,.T.);
#1051=ORIENTED_EDGE('',*,*,#757,.T.);
#1052=ORIENTED_EDGE('',*,*,#758,.F.);
#1053=ORIENTED_EDGE('',*,*,#759,.F.);
#1054=ORIENTED_EDGE('',*,*,#760,.F.);
#1055=ORIENTED_EDGE('',*,*,#759,.T.);
#1056=ORIENTED_EDGE('',*,*,#761,.F.);
#1057=ORIENTED_EDGE('',*,*,#762,.F.);
#1058=ORIENTED_EDGE('',*,*,#763,.T.);
#1059=ORIENTED_EDGE('',*,*,#762,.T.);
#1060=ORIENTED_EDGE('',*,*,#764,.F.);
#1061=ORIENTED_EDGE('',*,*,#765,.F.);
#1062=ORIENTED_EDGE('',*,*,#766,.F.);
#1063=ORIENTED_EDGE('',*,*,#765,.T.);
#1064=ORIENTED_EDGE('',*,*,#767,.F.);
#1065=ORIENTED_EDGE('',*,*,#768,.F.);
#1066=ORIENTED_EDGE('',*,*,#769,.T.);
#1067=ORIENTED_EDGE('',*,*,#768,.T.);
#1068=ORIENTED_EDGE('',*,*,#770,.F.);
#1069=ORIENTED_EDGE('',*,*,#771,.F.);
#1070=ORIENTED_EDGE('',*,*,#772,.F.);
#1071=ORIENTED_EDGE('',*,*,#771,.T.);
#1072=ORIENTED_EDGE('',*,*,#773,.F.);
#1073=ORIENTED_EDGE('',*,*,#774,.F.);
#1074=ORIENTED_EDGE('',*,*,#775,.T.);
#1075=ORIENTED_EDGE('',*,*,#774,.T.);
#1076=ORIENTED_EDGE('',*,*,#776,.F.);
#1077=ORIENTED_EDGE('',*,*,#777,.F.);
#1078=ORIENTED_EDGE('',*,*,#778,.F.);
#1079=ORIENTED_EDGE('',*,*,#777,.T.);
#1080=ORIENTED_EDGE('',*,*,#779,.F.);
#1081=ORIENTED_EDGE('',*,*,#757,.F.);
#1082=ORIENTED_EDGE('',*,*,#778,.T.);
#1083=ORIENTED_EDGE('',*,*,#756,.F.);
#1084=ORIENTED_EDGE('',*,*,#760,.T.);
#1085=ORIENTED_EDGE('',*,*,#763,.F.);
#1086=ORIENTED_EDGE('',*,*,#766,.T.);
#1087=ORIENTED_EDGE('',*,*,#769,.F.);
#1088=ORIENTED_EDGE('',*,*,#772,.T.);
#1089=ORIENTED_EDGE('',*,*,#775,.F.);
#1090=ORIENTED_EDGE('',*,*,#744,.T.);
#1091=ORIENTED_EDGE('',*,*,#754,.T.);
#1092=ORIENTED_EDGE('',*,*,#751,.T.);
#1093=ORIENTED_EDGE('',*,*,#748,.T.);
#1094=ORIENTED_EDGE('',*,*,#779,.T.);
#1095=ORIENTED_EDGE('',*,*,#776,.T.);
#1096=ORIENTED_EDGE('',*,*,#773,.T.);
#1097=ORIENTED_EDGE('',*,*,#770,.T.);
#1098=ORIENTED_EDGE('',*,*,#767,.T.);
#1099=ORIENTED_EDGE('',*,*,#764,.T.);
#1100=ORIENTED_EDGE('',*,*,#761,.T.);
#1101=ORIENTED_EDGE('',*,*,#758,.T.);
#1102=ORIENTED_EDGE('',*,*,#746,.T.);
#1103=ORIENTED_EDGE('',*,*,#750,.T.);
#1104=ORIENTED_EDGE('',*,*,#753,.T.);
#1105=ORIENTED_EDGE('',*,*,#755,.T.);
#1106=PLANE('',#1250);
#1107=PLANE('',#1253);
#1108=PLANE('',#1256);
#1109=PLANE('',#1257);
#1110=PLANE('',#1258);
#1111=PLANE('',#1263);
#1112=PLANE('',#1267);
#1113=PLANE('',#1268);
#1114=PLANE('',#1276);
#1115=PLANE('',#1277);
#1116=PLANE('',#1285);
#1117=PLANE('',#1286);
#1118=PLANE('',#1294);
#1119=PLANE('',#1295);
#1120=PLANE('',#1303);
#1121=PLANE('',#1304);
#1122=PLANE('',#1307);
#1123=PLANE('',#1311);
#1124=PLANE('',#1312);
#1125=PLANE('',#1315);
#1126=PLANE('',#1316);
#1127=PLANE('',#1321);
#1128=PLANE('',#1322);
#1129=PLANE('',#1325);
#1130=PLANE('',#1326);
#1131=PLANE('',#1329);
#1132=PLANE('',#1330);
#1133=PLANE('',#1331);
#1134=PLANE('',#1339);
#1135=PLANE('',#1340);
#1136=PLANE('',#1344);
#1137=PLANE('',#1345);
#1138=PLANE('',#1346);
#1139=PLANE('',#1349);
#1140=PLANE('',#1350);
#1141=PLANE('',#1357);
#1142=PLANE('',#1358);
#1143=PLANE('',#1359);
#1144=PLANE('',#1360);
#1145=PLANE('',#1361);
#1146=PLANE('',#1362);
#1147=PLANE('',#1363);
#1148=PLANE('',#1367);
#1149=PLANE('',#1371);
#1150=PLANE('',#1375);
#1151=PLANE('',#1379);
#1152=PLANE('',#1380);
#1153=ADVANCED_FACE('',(#73),#1106,.T.);
#1154=ADVANCED_FACE('',(#74),#1107,.T.);
#1155=ADVANCED_FACE('',(#75),#49,.T.);
#1156=ADVANCED_FACE('',(#76),#1108,.T.);
#1157=ADVANCED_FACE('',(#77),#1109,.T.);
#1158=ADVANCED_FACE('',(#78),#1110,.T.);
#1159=ADVANCED_FACE('',(#79),#50,.T.);
#1160=ADVANCED_FACE('',(#80,#35),#1111,.T.);
#1161=ADVANCED_FACE('',(#81),#51,.F.);
#1162=ADVANCED_FACE('',(#82,#36),#1112,.F.);
#1163=ADVANCED_FACE('',(#83,#37),#1113,.T.);
#1164=ADVANCED_FACE('',(#84),#13,.F.);
#1165=ADVANCED_FACE('',(#85),#52,.F.);
#1166=ADVANCED_FACE('',(#86),#53,.T.);
#1167=ADVANCED_FACE('',(#87),#1114,.F.);
#1168=ADVANCED_FACE('',(#88,#38),#1115,.T.);
#1169=ADVANCED_FACE('',(#89),#14,.F.);
#1170=ADVANCED_FACE('',(#90),#54,.F.);
#1171=ADVANCED_FACE('',(#91),#55,.T.);
#1172=ADVANCED_FACE('',(#92),#1116,.F.);
#1173=ADVANCED_FACE('',(#93,#39),#1117,.T.);
#1174=ADVANCED_FACE('',(#94),#15,.F.);
#1175=ADVANCED_FACE('',(#95),#56,.F.);
#1176=ADVANCED_FACE('',(#96),#57,.T.);
#1177=ADVANCED_FACE('',(#97),#1118,.F.);
#1178=ADVANCED_FACE('',(#98,#40),#1119,.T.);
#1179=ADVANCED_FACE('',(#99),#16,.F.);
#1180=ADVANCED_FACE('',(#100),#58,.F.);
#1181=ADVANCED_FACE('',(#101),#59,.T.);
#1182=ADVANCED_FACE('',(#102),#1120,.F.);
#1183=ADVANCED_FACE('',(#103,#41),#1121,.T.);
#1184=ADVANCED_FACE('',(#104),#1122,.T.);
#1185=ADVANCED_FACE('',(#105),#1123,.T.);
#1186=ADVANCED_FACE('',(#106),#1124,.T.);
#1187=ADVANCED_FACE('',(#107),#60,.T.);
#1188=ADVANCED_FACE('',(#108),#1125,.T.);
#1189=ADVANCED_FACE('',(#109),#1126,.T.);
#1190=ADVANCED_FACE('',(#110),#61,.T.);
#1191=ADVANCED_FACE('',(#111),#62,.F.);
#1192=ADVANCED_FACE('',(#112,#42),#1127,.F.);
#1193=ADVANCED_FACE('',(#113),#1128,.T.);
#1194=ADVANCED_FACE('',(#114),#1129,.T.);
#1195=ADVANCED_FACE('',(#115),#1130,.T.);
#1196=ADVANCED_FACE('',(#116),#63,.T.);
#1197=ADVANCED_FACE('',(#117),#1131,.T.);
#1198=ADVANCED_FACE('',(#118),#1132,.T.);
#1199=ADVANCED_FACE('',(#119,#43),#1133,.T.);
#1200=ADVANCED_FACE('',(#120),#64,.F.);
#1201=ADVANCED_FACE('',(#121),#65,.T.);
#1202=ADVANCED_FACE('',(#122,#44),#1134,.F.);
#1203=ADVANCED_FACE('',(#123),#1135,.T.);
#1204=ADVANCED_FACE('',(#124),#1136,.T.);
#1205=ADVANCED_FACE('',(#125),#1137,.T.);
#1206=ADVANCED_FACE('',(#126),#1138,.T.);
#1207=ADVANCED_FACE('',(#127),#66,.T.);
#1208=ADVANCED_FACE('',(#128),#1139,.T.);
#1209=ADVANCED_FACE('',(#129),#1140,.T.);
#1210=ADVANCED_FACE('',(#130),#67,.T.);
#1211=ADVANCED_FACE('',(#131),#68,.F.);
#1212=ADVANCED_FACE('',(#132,#45),#1141,.T.);
#1213=ADVANCED_FACE('',(#133,#46),#1142,.F.);
#1214=ADVANCED_FACE('',(#134),#1143,.F.);
#1215=ADVANCED_FACE('',(#135),#1144,.F.);
#1216=ADVANCED_FACE('',(#136),#1145,.F.);
#1217=ADVANCED_FACE('',(#137),#1146,.F.);
#1218=ADVANCED_FACE('',(#138),#1147,.T.);
#1219=ADVANCED_FACE('',(#139),#69,.T.);
#1220=ADVANCED_FACE('',(#140),#1148,.T.);
#1221=ADVANCED_FACE('',(#141),#70,.T.);
#1222=ADVANCED_FACE('',(#142),#1149,.T.);
#1223=ADVANCED_FACE('',(#143),#71,.T.);
#1224=ADVANCED_FACE('',(#144),#1150,.T.);
#1225=ADVANCED_FACE('',(#145),#72,.T.);
#1226=ADVANCED_FACE('',(#146,#47),#1151,.T.);
#1227=ADVANCED_FACE('',(#147,#48),#1152,.F.);
#1228=CLOSED_SHELL('',(#1153,#1154,#1155,#1156,#1157,#1158,#1159,#1160,
#1161,#1162));
#1229=CLOSED_SHELL('',(#1163,#1164,#1165,#1166,#1167));
#1230=CLOSED_SHELL('',(#1168,#1169,#1170,#1171,#1172));
#1231=CLOSED_SHELL('',(#1173,#1174,#1175,#1176,#1177));
#1232=CLOSED_SHELL('',(#1178,#1179,#1180,#1181,#1182));
#1233=CLOSED_SHELL('',(#1183,#1184,#1185,#1186,#1187,#1188,#1189,#1190,
#1191,#1192));
#1234=CLOSED_SHELL('',(#1193,#1194,#1195,#1196,#1197,#1198,#1199,#1200,
#1201,#1202));
#1235=CLOSED_SHELL('',(#1203,#1204,#1205,#1206,#1207,#1208,#1209,#1210,
#1211,#1212,#1213));
#1236=CLOSED_SHELL('',(#1214,#1215,#1216,#1217,#1218,#1219,#1220,#1221,
#1222,#1223,#1224,#1225,#1226,#1227));
#1237=DERIVED_UNIT_ELEMENT(#1239,1.);
#1238=DERIVED_UNIT_ELEMENT(#2106,-3.);
#1239=(
MASS_UNIT()
NAMED_UNIT(*)
SI_UNIT(.KILO.,.GRAM.)
);
#1240=DERIVED_UNIT((#1237,#1238));
#1241=MEASURE_REPRESENTATION_ITEM('density measure',
POSITIVE_RATIO_MEASURE(7850.),#1240);
#1242=PROPERTY_DEFINITION_REPRESENTATION(#1247,#1244);
#1243=PROPERTY_DEFINITION_REPRESENTATION(#1248,#1245);
#1244=REPRESENTATION('material name',(#1246),#2103);
#1245=REPRESENTATION('density',(#1241),#2103);
#1246=DESCRIPTIVE_REPRESENTATION_ITEM('Steel','Steel');
#1247=PROPERTY_DEFINITION('material property','material name',#2113);
#1248=PROPERTY_DEFINITION('material property','density of part',#2113);
#1249=AXIS2_PLACEMENT_3D('',#1752,#1381,#1382);
#1250=AXIS2_PLACEMENT_3D('',#1753,#1383,#1384);
#1251=AXIS2_PLACEMENT_3D('',#1760,#1387,#1388);
#1252=AXIS2_PLACEMENT_3D('',#1765,#1391,#1392);
#1253=AXIS2_PLACEMENT_3D('',#1766,#1393,#1394);
#1254=AXIS2_PLACEMENT_3D('',#1772,#1398,#1399);
#1255=AXIS2_PLACEMENT_3D('',#1775,#1401,#1402);
#1256=AXIS2_PLACEMENT_3D('',#1776,#1403,#1404);
#1257=AXIS2_PLACEMENT_3D('',#1780,#1407,#1408);
#1258=AXIS2_PLACEMENT_3D('',#1784,#1411,#1412);
#1259=AXIS2_PLACEMENT_3D('',#1788,#1415,#1416);
#1260=AXIS2_PLACEMENT_3D('',#1790,#1417,#1418);
#1261=AXIS2_PLACEMENT_3D('',#1793,#1420,#1421);
#1262=AXIS2_PLACEMENT_3D('',#1794,#1422,#1423);
#1263=AXIS2_PLACEMENT_3D('',#1795,#1424,#1425);
#1264=AXIS2_PLACEMENT_3D('',#1797,#1426,#1427);
#1265=AXIS2_PLACEMENT_3D('',#1798,#1428,#1429);
#1266=AXIS2_PLACEMENT_3D('',#1801,#1431,#1432);
#1267=AXIS2_PLACEMENT_3D('',#1802,#1433,#1434);
#1268=AXIS2_PLACEMENT_3D('',#1803,#1435,#1436);
#1269=AXIS2_PLACEMENT_3D('',#1805,#1437,#1438);
#1270=AXIS2_PLACEMENT_3D('',#1807,#1439,#1440);
#1271=AXIS2_PLACEMENT_3D('',#1808,#1441,#1442);
#1272=AXIS2_PLACEMENT_3D('',#1810,#1443,#1444);
#1273=AXIS2_PLACEMENT_3D('',#1813,#1446,#1447);
#1274=AXIS2_PLACEMENT_3D('',#1815,#1449,#1450);
#1275=AXIS2_PLACEMENT_3D('',#1818,#1452,#1453);
#1276=AXIS2_PLACEMENT_3D('',#1819,#1454,#1455);
#1277=AXIS2_PLACEMENT_3D('',#1820,#1456,#1457);
#1278=AXIS2_PLACEMENT_3D('',#1822,#1458,#1459);
#1279=AXIS2_PLACEMENT_3D('',#1824,#1460,#1461);
#1280=AXIS2_PLACEMENT_3D('',#1825,#1462,#1463);
#1281=AXIS2_PLACEMENT_3D('',#1827,#1464,#1465);
#1282=AXIS2_PLACEMENT_3D('',#1830,#1467,#1468);
#1283=AXIS2_PLACEMENT_3D('',#1832,#1470,#1471);
#1284=AXIS2_PLACEMENT_3D('',#1835,#1473,#1474);
#1285=AXIS2_PLACEMENT_3D('',#1836,#1475,#1476);
#1286=AXIS2_PLACEMENT_3D('',#1837,#1477,#1478);
#1287=AXIS2_PLACEMENT_3D('',#1839,#1479,#1480);
#1288=AXIS2_PLACEMENT_3D('',#1841,#1481,#1482);
#1289=AXIS2_PLACEMENT_3D('',#1842,#1483,#1484);
#1290=AXIS2_PLACEMENT_3D('',#1844,#1485,#1486);
#1291=AXIS2_PLACEMENT_3D('',#1847,#1488,#1489);
#1292=AXIS2_PLACEMENT_3D('',#1849,#1491,#1492);
#1293=AXIS2_PLACEMENT_3D('',#1852,#1494,#1495);
#1294=AXIS2_PLACEMENT_3D('',#1853,#1496,#1497);
#1295=AXIS2_PLACEMENT_3D('',#1854,#1498,#1499);
#1296=AXIS2_PLACEMENT_3D('',#1856,#1500,#1501);
#1297=AXIS2_PLACEMENT_3D('',#1858,#1502,#1503);
#1298=AXIS2_PLACEMENT_3D('',#1859,#1504,#1505);
#1299=AXIS2_PLACEMENT_3D('',#1861,#1506,#1507);
#1300=AXIS2_PLACEMENT_3D('',#1864,#1509,#1510);
#1301=AXIS2_PLACEMENT_3D('',#1866,#1512,#1513);
#1302=AXIS2_PLACEMENT_3D('',#1869,#1515,#1516);
#1303=AXIS2_PLACEMENT_3D('',#1870,#1517,#1518);
#1304=AXIS2_PLACEMENT_3D('',#1871,#1519,#1520);
#1305=AXIS2_PLACEMENT_3D('',#1873,#1521,#1522);
#1306=AXIS2_PLACEMENT_3D('',#1875,#1523,#1524);
#1307=AXIS2_PLACEMENT_3D('',#1876,#1525,#1526);
#1308=AXIS2_PLACEMENT_3D('',#1879,#1527,#1528);
#1309=AXIS2_PLACEMENT_3D('',#1885,#1531,#1532);
#1310=AXIS2_PLACEMENT_3D('',#1887,#1533,#1534);
#1311=AXIS2_PLACEMENT_3D('',#1891,#1537,#1538);
#1312=AXIS2_PLACEMENT_3D('',#1897,#1542,#1543);
#1313=AXIS2_PLACEMENT_3D('',#1901,#1546,#1547);
#1314=AXIS2_PLACEMENT_3D('',#1904,#1549,#1550);
#1315=AXIS2_PLACEMENT_3D('',#1905,#1551,#1552);
#1316=AXIS2_PLACEMENT_3D('',#1909,#1555,#1556);
#1317=AXIS2_PLACEMENT_3D('',#1913,#1559,#1560);
#1318=AXIS2_PLACEMENT_3D('',#1915,#1562,#1563);
#1319=AXIS2_PLACEMENT_3D('',#1916,#1564,#1565);
#1320=AXIS2_PLACEMENT_3D('',#1919,#1567,#1568);
#1321=AXIS2_PLACEMENT_3D('',#1920,#1569,#1570);
#1322=AXIS2_PLACEMENT_3D('',#1921,#1571,#1572);
#1323=AXIS2_PLACEMENT_3D('',#1926,#1574,#1575);
#1324=AXIS2_PLACEMENT_3D('',#1932,#1578,#1579);
#1325=AXIS2_PLACEMENT_3D('',#1934,#1581,#1582);
#1326=AXIS2_PLACEMENT_3D('',#1940,#1586,#1587);
#1327=AXIS2_PLACEMENT_3D('',#1944,#1590,#1591);
#1328=AXIS2_PLACEMENT_3D('',#1947,#1593,#1594);
#1329=AXIS2_PLACEMENT_3D('',#1948,#1595,#1596);
#1330=AXIS2_PLACEMENT_3D('',#1952,#1599,#1600);
#1331=AXIS2_PLACEMENT_3D('',#1956,#1603,#1604);
#1332=AXIS2_PLACEMENT_3D('',#1958,#1605,#1606);
#1333=AXIS2_PLACEMENT_3D('',#1960,#1607,#1608);
#1334=AXIS2_PLACEMENT_3D('',#1961,#1609,#1610);
#1335=AXIS2_PLACEMENT_3D('',#1964,#1612,#1613);
#1336=AXIS2_PLACEMENT_3D('',#1965,#1614,#1615);
#1337=AXIS2_PLACEMENT_3D('',#1968,#1617,#1618);
#1338=AXIS2_PLACEMENT_3D('',#1969,#1619,#1620);
#1339=AXIS2_PLACEMENT_3D('',#1970,#1621,#1622);
#1340=AXIS2_PLACEMENT_3D('',#1971,#1623,#1624);
#1341=AXIS2_PLACEMENT_3D('',#1976,#1626,#1627);
#1342=AXIS2_PLACEMENT_3D('',#1978,#1628,#1629);
#1343=AXIS2_PLACEMENT_3D('',#1986,#1633,#1634);
#1344=AXIS2_PLACEMENT_3D('',#1988,#1636,#1637);
#1345=AXIS2_PLACEMENT_3D('',#1994,#1641,#1642);
#1346=AXIS2_PLACEMENT_3D('',#2000,#1646,#1647);
#1347=AXIS2_PLACEMENT_3D('',#2004,#1650,#1651);
#1348=AXIS2_PLACEMENT_3D('',#2007,#1653,#1654);
#1349=AXIS2_PLACEMENT_3D('',#2008,#1655,#1656);
#1350=AXIS2_PLACEMENT_3D('',#2012,#1659,#1660);
#1351=AXIS2_PLACEMENT_3D('',#2014,#1662,#1663);
#1352=AXIS2_PLACEMENT_3D('',#2016,#1664,#1665);
#1353=AXIS2_PLACEMENT_3D('',#2018,#1667,#1668);
#1354=AXIS2_PLACEMENT_3D('',#2019,#1669,#1670);
#1355=AXIS2_PLACEMENT_3D('',#2021,#1671,#1672);
#1356=AXIS2_PLACEMENT_3D('',#2024,#1674,#1675);
#1357=AXIS2_PLACEMENT_3D('',#2025,#1676,#1677);
#1358=AXIS2_PLACEMENT_3D('',#2026,#1678,#1679);
#1359=AXIS2_PLACEMENT_3D('',#2027,#1680,#1681);
#1360=AXIS2_PLACEMENT_3D('',#2036,#1686,#1687);
#1361=AXIS2_PLACEMENT_3D('',#2042,#1691,#1692);
#1362=AXIS2_PLACEMENT_3D('',#2048,#1696,#1697);
#1363=AXIS2_PLACEMENT_3D('',#2051,#1700,#1701);
#1364=AXIS2_PLACEMENT_3D('',#2060,#1706,#1707);
#1365=AXIS2_PLACEMENT_3D('',#2062,#1708,#1709);
#1366=AXIS2_PLACEMENT_3D('',#2064,#1710,#1711);
#1367=AXIS2_PLACEMENT_3D('',#2066,#1713,#1714);
#1368=AXIS2_PLACEMENT_3D('',#2072,#1718,#1719);
#1369=AXIS2_PLACEMENT_3D('',#2074,#1720,#1721);
#1370=AXIS2_PLACEMENT_3D('',#2076,#1722,#1723);
#1371=AXIS2_PLACEMENT_3D('',#2078,#1725,#1726);
#1372=AXIS2_PLACEMENT_3D('',#2084,#1730,#1731);
#1373=AXIS2_PLACEMENT_3D('',#2086,#1732,#1733);
#1374=AXIS2_PLACEMENT_3D('',#2088,#1734,#1735);
#1375=AXIS2_PLACEMENT_3D('',#2090,#1737,#1738);
#1376=AXIS2_PLACEMENT_3D('',#2096,#1742,#1743);
#1377=AXIS2_PLACEMENT_3D('',#2097,#1744,#1745);
#1378=AXIS2_PLACEMENT_3D('',#2098,#1746,#1747);
#1379=AXIS2_PLACEMENT_3D('',#2099,#1748,#1749);
#1380=AXIS2_PLACEMENT_3D('',#2100,#1750,#1751);
#1381=DIRECTION('axis',(0.,0.,1.));
#1382=DIRECTION('refdir',(1.,0.,0.));
#1383=DIRECTION('center_axis',(0.,1.,0.));
#1384=DIRECTION('ref_axis',(1.,0.,0.));
#1385=DIRECTION('',(0.,0.,-1.));
#1386=DIRECTION('',(-1.,0.,0.));
#1387=DIRECTION('center_axis',(0.,-1.,0.));
#1388=DIRECTION('ref_axis',(3.55271367880049E-15,0.,1.));
#1389=DIRECTION('',(-2.44731770012759E-16,0.,1.));
#1390=DIRECTION('',(1.,0.,0.));
#1391=DIRECTION('center_axis',(0.,1.,0.));
#1392=DIRECTION('ref_axis',(1.,0.,0.));
#1393=DIRECTION('center_axis',(1.,0.,2.44731770012759E-16));
#1394=DIRECTION('ref_axis',(2.44731770012759E-16,-1.83548827509569E-16,
-1.));
#1395=DIRECTION('',(0.,1.,0.));
#1396=DIRECTION('',(-2.44731770012759E-16,1.83548827509569E-16,1.));
#1397=DIRECTION('',(0.,1.,0.));
#1398=DIRECTION('center_axis',(0.,1.,0.));
#1399=DIRECTION('ref_axis',(3.55271367880049E-15,0.,1.));
#1400=DIRECTION('',(0.,1.,0.));
#1401=DIRECTION('center_axis',(-1.56378036900036E-14,1.,-1.68753899743023E-14));
#1402=DIRECTION('ref_axis',(3.55271367880049E-15,1.68753899743023E-14,1.));
#1403=DIRECTION('center_axis',(0.,0.,1.));
#1404=DIRECTION('ref_axis',(1.,0.,0.));
#1405=DIRECTION('',(0.,1.,0.));
#1406=DIRECTION('',(1.,0.,0.));
#1407=DIRECTION('center_axis',(-1.,0.,0.));
#1408=DIRECTION('ref_axis',(0.,0.,1.));
#1409=DIRECTION('',(0.,1.,0.));
#1410=DIRECTION('',(0.,0.,1.));
#1411=DIRECTION('center_axis',(0.,0.,-1.));
#1412=DIRECTION('ref_axis',(-1.,0.,0.));
#1413=DIRECTION('',(1.,0.,0.));
#1414=DIRECTION('',(0.,-1.,0.));
#1415=DIRECTION('center_axis',(0.,1.,0.));
#1416=DIRECTION('ref_axis',(1.,0.,0.));
#1417=DIRECTION('center_axis',(0.,1.,0.));
#1418=DIRECTION('ref_axis',(1.,0.,0.));
#1419=DIRECTION('',(0.,-1.,0.));
#1420=DIRECTION('center_axis',(0.,1.,0.));
#1421=DIRECTION('ref_axis',(1.,0.,0.));
#1422=DIRECTION('center_axis',(0.,1.,0.));
#1423=DIRECTION('ref_axis',(1.,0.,0.));
#1424=DIRECTION('center_axis',(0.,1.,0.));
#1425=DIRECTION('ref_axis',(1.,0.,0.));
#1426=DIRECTION('center_axis',(0.,-1.,0.));
#1427=DIRECTION('ref_axis',(1.,0.,0.));
#1428=DIRECTION('center_axis',(0.,1.,0.));
#1429=DIRECTION('ref_axis',(1.,0.,0.));
#1430=DIRECTION('',(0.,-1.,0.));
#1431=DIRECTION('center_axis',(0.,-1.,0.));
#1432=DIRECTION('ref_axis',(1.,0.,0.));
#1433=DIRECTION('center_axis',(0.,1.,0.));
#1434=DIRECTION('ref_axis',(1.,0.,0.));
#1435=DIRECTION('center_axis',(0.,1.,0.));
#1436=DIRECTION('ref_axis',(1.,0.,0.));
#1437=DIRECTION('center_axis',(0.,1.,0.));
#1438=DIRECTION('ref_axis',(1.,0.,0.));
#1439=DIRECTION('center_axis',(0.,-1.,0.));
#1440=DIRECTION('ref_axis',(0.,0.,1.));
#1441=DIRECTION('center_axis',(0.,1.,0.));
#1442=DIRECTION('ref_axis',(0.,0.,1.));
#1443=DIRECTION('center_axis',(0.,-1.,0.));
#1444=DIRECTION('ref_axis',(0.,0.,1.));
#1445=DIRECTION('',(-1.04972719113862E-16,-0.515038074910054,0.857167300702112));
#1446=DIRECTION('center_axis',(0.,-1.,0.));
#1447=DIRECTION('ref_axis',(0.,0.,1.));
#1448=DIRECTION('',(0.,-1.,0.));
#1449=DIRECTION('center_axis',(0.,1.,0.));
#1450=DIRECTION('ref_axis',(1.,0.,0.));
#1451=DIRECTION('',(0.,-1.,0.));
#1452=DIRECTION('center_axis',(0.,1.,0.));
#1453=DIRECTION('ref_axis',(1.,0.,0.));
#1454=DIRECTION('center_axis',(0.,1.,0.));
#1455=DIRECTION('ref_axis',(1.,0.,0.));
#1456=DIRECTION('center_axis',(0.,1.,0.));
#1457=DIRECTION('ref_axis',(1.,0.,0.));
#1458=DIRECTION('center_axis',(0.,1.,0.));
#1459=DIRECTION('ref_axis',(1.,0.,0.));
#1460=DIRECTION('center_axis',(0.,-1.,0.));
#1461=DIRECTION('ref_axis',(0.,0.,1.));
#1462=DIRECTION('center_axis',(0.,1.,0.));
#1463=DIRECTION('ref_axis',(0.,0.,1.));
#1464=DIRECTION('center_axis',(0.,-1.,0.));
#1465=DIRECTION('ref_axis',(0.,0.,1.));
#1466=DIRECTION('',(-1.04972719113862E-16,-0.515038074910054,0.857167300702112));
#1467=DIRECTION('center_axis',(0.,-1.,0.));
#1468=DIRECTION('ref_axis',(0.,0.,1.));
#1469=DIRECTION('',(0.,-1.,0.));
#1470=DIRECTION('center_axis',(0.,1.,0.));
#1471=DIRECTION('ref_axis',(1.,0.,0.));
#1472=DIRECTION('',(0.,-1.,0.));
#1473=DIRECTION('center_axis',(0.,1.,0.));
#1474=DIRECTION('ref_axis',(1.,0.,0.));
#1475=DIRECTION('center_axis',(0.,1.,0.));
#1476=DIRECTION('ref_axis',(1.,0.,0.));
#1477=DIRECTION('center_axis',(0.,1.,0.));
#1478=DIRECTION('ref_axis',(1.,0.,0.));
#1479=DIRECTION('center_axis',(0.,1.,0.));
#1480=DIRECTION('ref_axis',(1.,0.,0.));
#1481=DIRECTION('center_axis',(0.,-1.,0.));
#1482=DIRECTION('ref_axis',(0.,0.,1.));
#1483=DIRECTION('center_axis',(0.,1.,0.));
#1484=DIRECTION('ref_axis',(0.,0.,1.));
#1485=DIRECTION('center_axis',(0.,-1.,0.));
#1486=DIRECTION('ref_axis',(0.,0.,1.));
#1487=DIRECTION('',(-1.04972719113862E-16,-0.515038074910054,0.857167300702112));
#1488=DIRECTION('center_axis',(0.,-1.,0.));
#1489=DIRECTION('ref_axis',(0.,0.,1.));
#1490=DIRECTION('',(0.,-1.,0.));
#1491=DIRECTION('center_axis',(0.,1.,0.));
#1492=DIRECTION('ref_axis',(1.,0.,0.));
#1493=DIRECTION('',(0.,-1.,0.));
#1494=DIRECTION('center_axis',(0.,1.,0.));
#1495=DIRECTION('ref_axis',(1.,0.,0.));
#1496=DIRECTION('center_axis',(0.,1.,0.));
#1497=DIRECTION('ref_axis',(1.,0.,0.));
#1498=DIRECTION('center_axis',(0.,1.,0.));
#1499=DIRECTION('ref_axis',(1.,0.,0.));
#1500=DIRECTION('center_axis',(0.,1.,0.));
#1501=DIRECTION('ref_axis',(1.,0.,0.));
#1502=DIRECTION('center_axis',(0.,-1.,0.));
#1503=DIRECTION('ref_axis',(0.,0.,1.));
#1504=DIRECTION('center_axis',(0.,1.,0.));
#1505=DIRECTION('ref_axis',(0.,0.,1.));
#1506=DIRECTION('center_axis',(0.,-1.,0.));
#1507=DIRECTION('ref_axis',(0.,0.,1.));
#1508=DIRECTION('',(-1.04972719113862E-16,-0.515038074910054,0.857167300702112));
#1509=DIRECTION('center_axis',(0.,-1.,0.));
#1510=DIRECTION('ref_axis',(0.,0.,1.));
#1511=DIRECTION('',(0.,-1.,0.));
#1512=DIRECTION('center_axis',(0.,1.,0.));
#1513=DIRECTION('ref_axis',(1.,0.,0.));
#1514=DIRECTION('',(0.,-1.,0.));
#1515=DIRECTION('center_axis',(0.,1.,0.));
#1516=DIRECTION('ref_axis',(1.,0.,0.));
#1517=DIRECTION('center_axis',(0.,1.,0.));
#1518=DIRECTION('ref_axis',(1.,0.,0.));
#1519=DIRECTION('center_axis',(0.,1.,0.));
#1520=DIRECTION('ref_axis',(1.,0.,0.));
#1521=DIRECTION('center_axis',(0.,1.,0.));
#1522=DIRECTION('ref_axis',(1.,0.,0.));
#1523=DIRECTION('center_axis',(0.,-1.,0.));
#1524=DIRECTION('ref_axis',(1.,0.,0.));
#1525=DIRECTION('center_axis',(0.,1.,0.));
#1526=DIRECTION('ref_axis',(1.,0.,0.));
#1527=DIRECTION('center_axis',(0.,-1.,0.));
#1528=DIRECTION('ref_axis',(-1.47714203890814E-6,0.,-0.999999999998909));
#1529=DIRECTION('',(-2.14243258419247E-6,0.,-0.999999999997705));
#1530=DIRECTION('',(-1.,0.,0.));
#1531=DIRECTION('center_axis',(0.,1.,0.));
#1532=DIRECTION('ref_axis',(1.,0.,0.));
#1533=DIRECTION('center_axis',(0.,1.,0.));
#1534=DIRECTION('ref_axis',(1.,0.,0.));
#1535=DIRECTION('',(0.,0.,1.));
#1536=DIRECTION('',(1.,0.,0.));
#1537=DIRECTION('center_axis',(0.,0.,1.));
#1538=DIRECTION('ref_axis',(1.,4.20113513408176E-15,0.));
#1539=DIRECTION('',(0.,1.,0.));
#1540=DIRECTION('',(1.,4.20113513408176E-15,0.));
#1541=DIRECTION('',(0.,-1.,0.));
#1542=DIRECTION('center_axis',(-0.999999999997705,0.,2.14243258419247E-6));
#1543=DIRECTION('ref_axis',(2.14243258419247E-6,-2.10979417381329E-15,0.999999999997705));
#1544=DIRECTION('',(0.,1.,0.));
#1545=DIRECTION('',(2.14243258419247E-6,-2.10979417381329E-15,0.999999999997705));
#1546=DIRECTION('center_axis',(0.,1.,0.));
#1547=DIRECTION('ref_axis',(-1.47714203890814E-6,0.,-0.999999999998909));
#1548=DIRECTION('',(0.,1.,0.));
#1549=DIRECTION('center_axis',(3.49360253150558E-14,1.,2.66448365363162E-15));
#1550=DIRECTION('ref_axis',(-1.47714203890814E-6,2.66453525910038E-15,-0.999999999998909));
#1551=DIRECTION('center_axis',(0.,0.,-1.));
#1552=DIRECTION('ref_axis',(-1.,7.45415894928451E-17,0.));
#1553=DIRECTION('',(0.,1.,0.));
#1554=DIRECTION('',(1.,-7.45415894928451E-17,0.));
#1555=DIRECTION('center_axis',(1.,0.,0.));
#1556=DIRECTION('ref_axis',(0.,0.,-1.));
#1557=DIRECTION('',(0.,1.,0.));
#1558=DIRECTION('',(0.,0.,-1.));
#1559=DIRECTION('center_axis',(0.,1.,0.));
#1560=DIRECTION('ref_axis',(1.,0.,0.));
#1561=DIRECTION('',(0.,-1.,0.));
#1562=DIRECTION('center_axis',(0.,1.,0.));
#1563=DIRECTION('ref_axis',(1.,0.,0.));
#1564=DIRECTION('center_axis',(0.,1.,0.));
#1565=DIRECTION('ref_axis',(1.,0.,0.));
#1566=DIRECTION('',(0.,-1.,0.));
#1567=DIRECTION('center_axis',(0.,-1.,0.));
#1568=DIRECTION('ref_axis',(1.,0.,0.));
#1569=DIRECTION('center_axis',(0.,1.,0.));
#1570=DIRECTION('ref_axis',(1.,0.,0.));
#1571=DIRECTION('center_axis',(0.,1.,0.));
#1572=DIRECTION('ref_axis',(1.,0.,0.));
#1573=DIRECTION('',(0.,0.,-1.));
#1574=DIRECTION('center_axis',(0.,1.,0.));
#1575=DIRECTION('ref_axis',(1.,0.,0.));
#1576=DIRECTION('',(-1.,0.,0.));
#1577=DIRECTION('',(-2.44731770012759E-16,0.,1.));
#1578=DIRECTION('center_axis',(0.,-1.,0.));
#1579=DIRECTION('ref_axis',(1.,0.,1.77635683940025E-15));
#1580=DIRECTION('',(1.,0.,0.));
#1581=DIRECTION('center_axis',(-1.,0.,0.));
#1582=DIRECTION('ref_axis',(0.,8.31518746280807E-14,1.));
#1583=DIRECTION('',(0.,1.,0.));
#1584=DIRECTION('',(0.,8.31518746280807E-14,1.));
#1585=DIRECTION('',(0.,-1.,0.));
#1586=DIRECTION('center_axis',(0.,0.,-1.));
#1587=DIRECTION('ref_axis',(-1.,6.94201536125273E-15,0.));
#1588=DIRECTION('',(0.,1.,0.));
#1589=DIRECTION('',(1.,-6.94201536125273E-15,0.));
#1590=DIRECTION('center_axis',(0.,1.,0.));
#1591=DIRECTION('ref_axis',(1.,0.,1.77635683940025E-15));
#1592=DIRECTION('',(0.,1.,0.));
#1593=DIRECTION('center_axis',(-2.66453525910028E-15,1.,-5.32907051820083E-14));
#1594=DIRECTION('ref_axis',(1.,2.66453525910038E-15,1.77635683940025E-15));
#1595=DIRECTION('center_axis',(1.,0.,2.44731770012759E-16));
#1596=DIRECTION('ref_axis',(2.44731770012759E-16,-1.83548827509569E-16,
-1.));
#1597=DIRECTION('',(0.,1.,0.));
#1598=DIRECTION('',(-2.44731770012759E-16,1.83548827509569E-16,1.));
#1599=DIRECTION('center_axis',(0.,0.,1.));
#1600=DIRECTION('ref_axis',(1.,0.,0.));
#1601=DIRECTION('',(0.,1.,0.));
#1602=DIRECTION('',(1.,0.,0.));
#1603=DIRECTION('center_axis',(0.,1.,0.));
#1604=DIRECTION('ref_axis',(1.,0.,0.));
#1605=DIRECTION('center_axis',(0.,-1.,0.));
#1606=DIRECTION('ref_axis',(1.,0.,0.));
#1607=DIRECTION('center_axis',(0.,1.,0.));
#1608=DIRECTION('ref_axis',(1.,0.,0.));
#1609=DIRECTION('center_axis',(0.,1.,0.));
#1610=DIRECTION('ref_axis',(1.,0.,0.));
#1611=DIRECTION('',(0.,-1.,0.));
#1612=DIRECTION('center_axis',(0.,-1.,0.));
#1613=DIRECTION('ref_axis',(1.,0.,0.));
#1614=DIRECTION('center_axis',(0.,1.,0.));
#1615=DIRECTION('ref_axis',(1.,0.,0.));
#1616=DIRECTION('',(0.,-1.,0.));
#1617=DIRECTION('center_axis',(0.,1.,0.));
#1618=DIRECTION('ref_axis',(1.,0.,0.));
#1619=DIRECTION('center_axis',(0.,1.,0.));
#1620=DIRECTION('ref_axis',(1.,0.,0.));
#1621=DIRECTION('center_axis',(0.,1.,0.));
#1622=DIRECTION('ref_axis',(1.,0.,0.));
#1623=DIRECTION('center_axis',(0.,1.,0.));
#1624=DIRECTION('ref_axis',(1.,0.,0.));
#1625=DIRECTION('',(0.,0.,1.));
#1626=DIRECTION('center_axis',(0.,1.,0.));
#1627=DIRECTION('ref_axis',(1.,0.,0.));
#1628=DIRECTION('center_axis',(0.,1.,0.));
#1629=DIRECTION('ref_axis',(1.,0.,0.));
#1630=DIRECTION('',(1.,0.,0.));
#1631=DIRECTION('',(0.000893372253035964,0.,-0.999999600942929));
#1632=DIRECTION('',(0.000428246851285682,0.,-0.999999908302313));
#1633=DIRECTION('center_axis',(0.,-1.,0.));
#1634=DIRECTION('ref_axis',(-0.999999999999446,0.,-1.05301086605892E-6));
#1635=DIRECTION('',(-0.999999352100324,0.,0.00113833164456478));
#1636=DIRECTION('center_axis',(0.,0.,-1.));
#1637=DIRECTION('ref_axis',(-1.,0.,0.));
#1638=DIRECTION('',(0.,1.,0.));
#1639=DIRECTION('',(-1.,0.,0.));
#1640=DIRECTION('',(0.,1.,0.));
#1641=DIRECTION('center_axis',(1.,0.,0.));
#1642=DIRECTION('ref_axis',(0.,0.,-1.));
#1643=DIRECTION('',(0.,1.,0.));
#1644=DIRECTION('',(0.,0.,1.));
#1645=DIRECTION('',(0.,-1.,0.));
#1646=DIRECTION('center_axis',(0.00113833164456478,0.,0.999999352100324));
#1647=DIRECTION('ref_axis',(0.999999352100324,-4.05338981333544E-15,-0.00113833164456478));
#1648=DIRECTION('',(0.,1.,0.));
#1649=DIRECTION('',(0.999999352100324,-4.05338981333544E-15,-0.00113833164456478));
#1650=DIRECTION('center_axis',(0.,1.,0.));
#1651=DIRECTION('ref_axis',(-0.999999999999446,0.,-1.05301086605892E-6));
#1652=DIRECTION('',(0.,1.,0.));
#1653=DIRECTION('center_axis',(3.55271274171736E-15,1.,8.89910219739038E-16));
#1654=DIRECTION('ref_axis',(-0.999999999999446,3.55271367880052E-15,-1.05301086605892E-6));
#1655=DIRECTION('center_axis',(-0.999999908302313,0.,-0.000428246851285682));
#1656=DIRECTION('ref_axis',(-0.000428246851285682,0.,0.999999908302313));
#1657=DIRECTION('',(0.,1.,0.));
#1658=DIRECTION('',(-0.000428246851285682,0.,0.999999908302313));
#1659=DIRECTION('center_axis',(-0.999999600942929,0.,-0.000893372253035964));
#1660=DIRECTION('ref_axis',(-0.000893372253035964,0.,0.999999600942929));
#1661=DIRECTION('',(-0.000893372253035964,0.,0.999999600942929));
#1662=DIRECTION('center_axis',(0.,1.,0.));
#1663=DIRECTION('ref_axis',(1.,0.,0.));
#1664=DIRECTION('center_axis',(0.,1.,0.));
#1665=DIRECTION('ref_axis',(1.,0.,0.));
#1666=DIRECTION('',(0.,-1.,0.));
#1667=DIRECTION('center_axis',(0.,1.,0.));
#1668=DIRECTION('ref_axis',(1.,0.,0.));
#1669=DIRECTION('center_axis',(0.,1.,0.));
#1670=DIRECTION('ref_axis',(1.,0.,0.));
#1671=DIRECTION('center_axis',(0.,-1.,0.));
#1672=DIRECTION('ref_axis',(1.,0.,0.));
#1673=DIRECTION('',(0.,-1.,0.));
#1674=DIRECTION('center_axis',(0.,-1.,0.));
#1675=DIRECTION('ref_axis',(1.,0.,0.));
#1676=DIRECTION('center_axis',(0.,1.,0.));
#1677=DIRECTION('ref_axis',(1.,0.,0.));
#1678=DIRECTION('center_axis',(0.,1.,0.));
#1679=DIRECTION('ref_axis',(1.,0.,0.));
#1680=DIRECTION('center_axis',(1.,0.,0.));
#1681=DIRECTION('ref_axis',(0.,4.44089203232618E-16,1.));
#1682=DIRECTION('',(0.,2.91369472848648E-31,1.));
#1683=DIRECTION('',(0.,-1.,7.40148683083438E-16));
#1684=DIRECTION('',(0.,-2.91369472848648E-31,-1.));
#1685=DIRECTION('',(0.,-1.,7.40148683083438E-16));
#1686=DIRECTION('center_axis',(0.,-7.40148683083438E-16,-1.));
#1687=DIRECTION('ref_axis',(1.,0.,0.));
#1688=DIRECTION('',(1.,-1.2889820310155E-15,9.54038352774335E-31));
#1689=DIRECTION('',(0.,-1.,7.40148683083438E-16));
#1690=DIRECTION('',(-1.,1.2889820310155E-15,-9.54038352774335E-31));
#1691=DIRECTION('center_axis',(-1.,0.,0.));
#1692=DIRECTION('ref_axis',(0.,0.,-1.));
#1693=DIRECTION('',(0.,-2.91369472848648E-31,-1.));
#1694=DIRECTION('',(0.,-1.,7.40148683083438E-16));
#1695=DIRECTION('',(0.,2.91369472848648E-31,1.));
#1696=DIRECTION('center_axis',(-2.73910032453496E-31,7.40148683083438E-16,
1.));
#1697=DIRECTION('ref_axis',(-1.,-3.70074336027182E-16,0.));
#1698=DIRECTION('',(-1.,1.2889820310155E-15,-1.22794838522783E-30));
#1699=DIRECTION('',(1.,-1.2889820310155E-15,1.22794838522783E-30));
#1700=DIRECTION('center_axis',(-1.,0.,2.2604618670991E-16));
#1701=DIRECTION('ref_axis',(-2.2604618670991E-16,0.,-1.));
#1702=DIRECTION('',(-2.2604618670991E-16,0.,-1.));
#1703=DIRECTION('',(0.,-1.,0.));
#1704=DIRECTION('',(-2.2604618670991E-16,0.,-1.));
#1705=DIRECTION('',(0.,-1.,0.));
#1706=DIRECTION('center_axis',(0.,-1.,0.));
#1707=DIRECTION('ref_axis',(-1.,0.,-1.77635683940025E-15));
#1708=DIRECTION('center_axis',(1.77635683940025E-15,1.,8.88178419700127E-16));
#1709=DIRECTION('ref_axis',(-1.,1.77635683940025E-15,-1.77635683940025E-15));
#1710=DIRECTION('center_axis',(-1.77635683940025E-15,-1.,-8.88178419700127E-16));
#1711=DIRECTION('ref_axis',(-1.,1.77635683940025E-15,-1.77635683940025E-15));
#1712=DIRECTION('',(0.,-1.,0.));
#1713=DIRECTION('center_axis',(0.,0.,1.));
#1714=DIRECTION('ref_axis',(-1.,1.2889820310155E-15,0.));
#1715=DIRECTION('',(-1.,1.2889820310155E-15,0.));
#1716=DIRECTION('',(-1.,1.2889820310155E-15,0.));
#1717=DIRECTION('',(0.,-1.,0.));
#1718=DIRECTION('center_axis',(0.,-1.,0.));
#1719=DIRECTION('ref_axis',(0.,0.,1.));
#1720=DIRECTION('center_axis',(1.77635683940025E-15,1.,1.77635683940025E-15));
#1721=DIRECTION('ref_axis',(0.,-1.77635683940025E-15,1.));
#1722=DIRECTION('center_axis',(-1.77635683940025E-15,-1.,-1.77635683940025E-15));
#1723=DIRECTION('ref_axis',(0.,-1.77635683940025E-15,1.));
#1724=DIRECTION('',(0.,-1.,0.));
#1725=DIRECTION('center_axis',(1.,0.,0.));
#1726=DIRECTION('ref_axis',(0.,-1.86488104035676E-15,1.));
#1727=DIRECTION('',(0.,-1.86488104035676E-15,1.));
#1728=DIRECTION('',(0.,-1.86488104035676E-15,1.));
#1729=DIRECTION('',(0.,-1.,0.));
#1730=DIRECTION('center_axis',(0.,-1.,0.));
#1731=DIRECTION('ref_axis',(1.,0.,-1.77635683940025E-15));
#1732=DIRECTION('center_axis',(1.77635683940025E-15,1.,8.88178419700121E-16));
#1733=DIRECTION('ref_axis',(1.,-1.77635683940025E-15,-1.77635683940025E-15));
#1734=DIRECTION('center_axis',(-1.77635683940025E-15,-1.,-8.88178419700121E-16));
#1735=DIRECTION('ref_axis',(1.,-1.77635683940025E-15,-1.77635683940025E-15));
#1736=DIRECTION('',(0.,-1.,0.));
#1737=DIRECTION('center_axis',(8.05613769384685E-17,0.,-1.));
#1738=DIRECTION('ref_axis',(1.,4.02806884692343E-17,8.05613769384685E-17));
#1739=DIRECTION('',(1.,4.02806884692343E-17,8.05613769384685E-17));
#1740=DIRECTION('',(1.,4.02806884692343E-17,8.05613769384685E-17));
#1741=DIRECTION('',(0.,-1.,0.));
#1742=DIRECTION('center_axis',(0.,-1.,0.));
#1743=DIRECTION('ref_axis',(1.77635683940025E-15,0.,-1.));
#1744=DIRECTION('center_axis',(0.,1.,0.));
#1745=DIRECTION('ref_axis',(1.77635683940025E-15,0.,-1.));
#1746=DIRECTION('center_axis',(0.,-1.,0.));
#1747=DIRECTION('ref_axis',(1.77635683940025E-15,0.,-1.));
#1748=DIRECTION('center_axis',(1.2889820310155E-15,1.,-2.91369472848648E-31));
#1749=DIRECTION('ref_axis',(1.,-1.2889820310155E-15,0.));
#1750=DIRECTION('center_axis',(1.2889820310155E-15,1.,-2.91369472848648E-31));
#1751=DIRECTION('ref_axis',(1.,-1.2889820310155E-15,0.));
#1752=CARTESIAN_POINT('',(0.,0.,0.));
#1753=CARTESIAN_POINT('Origin',(40.1660810093787,-6.99999999999999,23.0067496031076));
#1754=CARTESIAN_POINT('',(36.493533409273,-6.99999999999999,26.6135654657554));
#1755=CARTESIAN_POINT('',(36.493533409273,-6.99999999999999,23.369763170307));
#1756=CARTESIAN_POINT('',(36.493533409273,-6.99999999999999,23.1882563867073));
#1757=CARTESIAN_POINT('',(38.8386286094844,-6.99999999999997,26.6135654657554));
#1758=CARTESIAN_POINT('',(38.3298072093258,-7.,26.6135654657554));
#1759=CARTESIAN_POINT('',(43.8386286094844,-6.99999999999998,21.6135654657554));
#1760=CARTESIAN_POINT('Origin',(38.8386286094844,-6.99999999999999,21.6135654657554));
#1761=CARTESIAN_POINT('',(43.8386286094844,-6.99999999999999,19.3999337404598));
#1762=CARTESIAN_POINT('',(43.8386286094844,-6.99999999999999,22.3101575344315));
#1763=CARTESIAN_POINT('',(40.5102994030116,-6.99999999999999,19.3999337404598));
#1764=CARTESIAN_POINT('',(42.0023548094316,-6.99999999999999,19.3999337404598));
#1765=CARTESIAN_POINT('Origin',(36.5104129190635,-6.99999999999999,19.3697987851969));
#1766=CARTESIAN_POINT('Origin',(43.8386286094844,-34.,21.6135654657554));
#1767=CARTESIAN_POINT('',(43.8386286094844,-34.,21.6135654657554));
#1768=CARTESIAN_POINT('',(43.8386286094844,-34.,21.6135654657554));
#1769=CARTESIAN_POINT('',(43.8386286094844,-34.,19.3999337404598));
#1770=CARTESIAN_POINT('',(43.8386286094844,-34.,-50.970261280876));
#1771=CARTESIAN_POINT('',(43.8386286094844,-34.,19.3999337404598));
#1772=CARTESIAN_POINT('Origin',(38.8386286094844,-34.0000000000001,21.6135654657554));
#1773=CARTESIAN_POINT('',(38.8386286094844,-34.,26.6135654657554));
#1774=CARTESIAN_POINT('',(38.8386286094844,-34.,26.6135654657554));
#1775=CARTESIAN_POINT('Origin',(38.8386286094844,-34.0000000000001,21.6135654657554));
#1776=CARTESIAN_POINT('Origin',(36.493533409273,-34.,26.6135654657554));
#1777=CARTESIAN_POINT('',(36.493533409273,-34.,26.6135654657554));
#1778=CARTESIAN_POINT('',(36.493533409273,-34.,26.6135654657554));
#1779=CARTESIAN_POINT('',(-2.74266606953662,-34.,26.6135654657554));
#1780=CARTESIAN_POINT('Origin',(36.493533409273,-34.,23.369763170307));
#1781=CARTESIAN_POINT('',(36.493533409273,-34.,23.369763170307));
#1782=CARTESIAN_POINT('',(36.493533409273,-34.,23.369763170307));
#1783=CARTESIAN_POINT('',(36.493533409273,-34.,23.369763170307));
#1784=CARTESIAN_POINT('Origin',(43.8386286094844,-34.,19.3999337404598));
#1785=CARTESIAN_POINT('',(40.5102994030116,-34.,19.3999337404598));
#1786=CARTESIAN_POINT('',(40.5102994030116,-34.,19.3999337404598));
#1787=CARTESIAN_POINT('',(40.5102994030116,-34.,19.3999337404598));
#1788=CARTESIAN_POINT('Origin',(36.5104129190635,-34.,19.3697987851969));
#1789=CARTESIAN_POINT('',(32.5104129190635,-0.999999999999994,19.3697987851969));
#1790=CARTESIAN_POINT('Origin',(36.5104129190635,-0.999999999999994,19.3697987851969));
#1791=CARTESIAN_POINT('',(32.5104129190635,-34.,19.3697987851969));
#1792=CARTESIAN_POINT('',(32.5104129190635,-34.,19.3697987851969));
#1793=CARTESIAN_POINT('Origin',(36.5104129190635,-34.,19.3697987851969));
#1794=CARTESIAN_POINT('Origin',(36.5104129190635,-34.,19.3697987851969));
#1795=CARTESIAN_POINT('Origin',(36.5104129190635,-0.999999999999994,19.3697987851969));
#1796=CARTESIAN_POINT('',(35.3604129190635,-0.999999999999994,19.3697987851969));
#1797=CARTESIAN_POINT('Origin',(36.5104129190635,-0.999999999999994,19.3697987851969));
#1798=CARTESIAN_POINT('Origin',(36.5104129190635,-34.,19.3697987851969));
#1799=CARTESIAN_POINT('',(35.3604129190635,-34.,19.3697987851969));
#1800=CARTESIAN_POINT('',(35.3604129190635,-34.,19.3697987851969));
#1801=CARTESIAN_POINT('Origin',(36.5104129190635,-34.,19.3697987851969));
#1802=CARTESIAN_POINT('Origin',(36.5104129190635,-34.,19.3697987851969));
#1803=CARTESIAN_POINT('Origin',(2.53665310758262,-25.,-45.3598489939397));
#1804=CARTESIAN_POINT('',(-0.463346892417377,-25.,-45.3598489939397));
#1805=CARTESIAN_POINT('Origin',(2.53665310758262,-25.,-45.3598489939397));
#1806=CARTESIAN_POINT('',(2.5390881795244,-25.,-46.5650052251865));
#1807=CARTESIAN_POINT('Origin',(2.5390881795244,-25.,-45.3650052251865));
#1808=CARTESIAN_POINT('Origin',(2.5390881795244,-31.3605163714165,-45.3650052251865));
#1809=CARTESIAN_POINT('',(2.5390881795244,-31.,-46.5650052251865));
#1810=CARTESIAN_POINT('Origin',(2.5390881795244,-31.,-45.3650052251865));
#1811=CARTESIAN_POINT('',(2.5390881795244,-31.7210327428331,-45.3650052251865));
#1812=CARTESIAN_POINT('',(2.5390881795244,-31.3605163714165,-45.9650052251865));
#1813=CARTESIAN_POINT('Origin',(2.5390881795244,-28.5,-45.3650052251865));
#1814=CARTESIAN_POINT('',(2.5390881795244,-28.5,-46.5650052251865));
#1815=CARTESIAN_POINT('Origin',(2.53665310758262,-34.,-45.3598489939397));
#1816=CARTESIAN_POINT('',(-0.463346892417377,-34.,-45.3598489939397));
#1817=CARTESIAN_POINT('',(-0.463346892417377,-34.,-45.3598489939397));
#1818=CARTESIAN_POINT('Origin',(2.53665310758262,-34.,-45.3598489939397));
#1819=CARTESIAN_POINT('Origin',(2.53665310758262,-34.,-45.3598489939397));
#1820=CARTESIAN_POINT('Origin',(25.5658114944805,-25.,-45.3298107198795));
#1821=CARTESIAN_POINT('',(22.5658114944805,-25.,-45.3298107198795));
#1822=CARTESIAN_POINT('Origin',(25.5658114944805,-25.,-45.3298107198795));
#1823=CARTESIAN_POINT('',(25.5270989804623,-25.,-46.5509509356253));
#1824=CARTESIAN_POINT('Origin',(25.5270989804623,-25.,-45.3509509356253));
#1825=CARTESIAN_POINT('Origin',(25.5270989804623,-31.3605163714165,-45.3509509356253));
#1826=CARTESIAN_POINT('',(25.5270989804623,-31.,-46.5509509356253));
#1827=CARTESIAN_POINT('Origin',(25.5270989804623,-31.,-45.3509509356253));
#1828=CARTESIAN_POINT('',(25.5270989804623,-31.7210327428331,-45.3509509356253));
#1829=CARTESIAN_POINT('',(25.5270989804623,-31.3605163714165,-45.9509509356253));
#1830=CARTESIAN_POINT('Origin',(25.5270989804623,-28.5,-45.3509509356253));
#1831=CARTESIAN_POINT('',(25.5270989804623,-28.5,-46.5509509356253));
#1832=CARTESIAN_POINT('Origin',(25.5658114944805,-34.,-45.3298107198795));
#1833=CARTESIAN_POINT('',(22.5658114944805,-34.,-45.3298107198795));
#1834=CARTESIAN_POINT('',(22.5658114944805,-34.,-45.3298107198795));
#1835=CARTESIAN_POINT('Origin',(25.5658114944805,-34.,-45.3298107198795));
#1836=CARTESIAN_POINT('Origin',(25.5658114944805,-34.,-45.3298107198795));
#1837=CARTESIAN_POINT('Origin',(2.57503569311929,-25.,12.6705386934108));
#1838=CARTESIAN_POINT('',(-0.424964306880715,-25.,12.6705386934108));
#1839=CARTESIAN_POINT('Origin',(2.57503569311929,-25.,12.6705386934108));
#1840=CARTESIAN_POINT('',(2.54216229213742,-25.,11.4379606684869));
#1841=CARTESIAN_POINT('Origin',(2.54216229213742,-25.,12.6379606684869));
#1842=CARTESIAN_POINT('Origin',(2.54216229213742,-31.3605163714165,12.6379606684869));
#1843=CARTESIAN_POINT('',(2.54216229213742,-31.,11.4379606684869));
#1844=CARTESIAN_POINT('Origin',(2.54216229213742,-31.,12.6379606684869));
#1845=CARTESIAN_POINT('',(2.54216229213742,-31.7210327428331,12.6379606684869));
#1846=CARTESIAN_POINT('',(2.54216229213742,-31.3605163714165,12.0379606684869));
#1847=CARTESIAN_POINT('Origin',(2.54216229213742,-28.5,12.6379606684869));
#1848=CARTESIAN_POINT('',(2.54216229213742,-28.5,11.4379606684869));
#1849=CARTESIAN_POINT('Origin',(2.57503569311929,-34.,12.6705386934108));
#1850=CARTESIAN_POINT('',(-0.424964306880715,-34.,12.6705386934108));
#1851=CARTESIAN_POINT('',(-0.424964306880715,-34.,12.6705386934108));
#1852=CARTESIAN_POINT('Origin',(2.57503569311929,-34.,12.6705386934108));
#1853=CARTESIAN_POINT('Origin',(2.57503569311929,-34.,12.6705386934108));
#1854=CARTESIAN_POINT('Origin',(25.5299480541651,-25.,12.6272115629688));
#1855=CARTESIAN_POINT('',(22.5299480541651,-25.,12.6272115629688));
#1856=CARTESIAN_POINT('Origin',(25.5299480541651,-25.,12.6272115629688));
#1857=CARTESIAN_POINT('',(25.5299480541651,-25.,11.4272115629688));
#1858=CARTESIAN_POINT('Origin',(25.5299480541651,-25.,12.6272115629688));
#1859=CARTESIAN_POINT('Origin',(25.5299480541651,-31.3605163714165,12.6272115629688));
#1860=CARTESIAN_POINT('',(25.5299480541651,-31.,11.4272115629688));
#1861=CARTESIAN_POINT('Origin',(25.5299480541651,-31.,12.6272115629688));
#1862=CARTESIAN_POINT('',(25.5299480541651,-31.7210327428331,12.6272115629688));
#1863=CARTESIAN_POINT('',(25.5299480541651,-31.3605163714165,12.0272115629688));
#1864=CARTESIAN_POINT('Origin',(25.5299480541651,-28.5,12.6272115629688));
#1865=CARTESIAN_POINT('',(25.5299480541651,-28.5,11.4272115629688));
#1866=CARTESIAN_POINT('Origin',(25.5299480541651,-34.,12.6272115629688));
#1867=CARTESIAN_POINT('',(22.5299480541651,-34.,12.6272115629688));
#1868=CARTESIAN_POINT('',(22.5299480541651,-34.,12.6272115629688));
#1869=CARTESIAN_POINT('Origin',(25.5299480541651,-34.,12.6272115629688));
#1870=CARTESIAN_POINT('Origin',(25.5299480541651,-34.,12.6272115629688));
#1871=CARTESIAN_POINT('Origin',(-63.2389858471976,0.999999999999996,-48.8949145223565));
#1872=CARTESIAN_POINT('',(-67.2389858471976,0.999999999999996,-48.8949145223565));
#1873=CARTESIAN_POINT('Origin',(-63.2389858471976,0.999999999999996,-48.8949145223565));
#1874=CARTESIAN_POINT('',(-64.3889858471976,0.999999999999996,-48.8949145223565));
#1875=CARTESIAN_POINT('Origin',(-63.2389858471976,0.999999999999996,-48.8949145223565));
#1876=CARTESIAN_POINT('Origin',(-13.2857035117566,-7.,-14.6783346820645));
#1877=CARTESIAN_POINT('',(-70.4100401425901,-6.9999999999998,-50.9702241177215));
#1878=CARTESIAN_POINT('',(-65.4100401426016,-6.99999999999998,-55.9702348298844));
#1879=CARTESIAN_POINT('Origin',(-65.4100401426016,-7.,-50.9702348298844));
#1880=CARTESIAN_POINT('',(-70.4100356329977,-6.99999999999981,-48.8653305913242));
#1881=CARTESIAN_POINT('',(-70.4100012659958,-7.00000000000001,-32.8242182074562));
#1882=CARTESIAN_POINT('',(-67.2388764445796,-7.,-48.8653305913242));
#1883=CARTESIAN_POINT('',(-41.8478695723771,-7.00000000000001,-48.8653305913242));
#1884=CARTESIAN_POINT('',(-67.2389858471976,-7.,-48.8949145223565));
#1885=CARTESIAN_POINT('Origin',(-63.2389858471976,-7.,-48.8949145223565));
#1886=CARTESIAN_POINT('',(-63.1832827816515,-7.,-52.8945266496119));
#1887=CARTESIAN_POINT('Origin',(-63.2389858471976,-7.,-48.8949145223565));
#1888=CARTESIAN_POINT('',(-63.1832827816515,-7.,-55.9702348298844));
#1889=CARTESIAN_POINT('',(-63.1832827816515,-7.,-33.7864306658382));
#1890=CARTESIAN_POINT('',(-38.2344931467041,-7.,-55.9702348298844));
#1891=CARTESIAN_POINT('Origin',(-70.4100356329977,-34.,-48.8653305913242));
#1892=CARTESIAN_POINT('',(-70.4100356329977,-33.9999999999998,-48.8653305913242));
#1893=CARTESIAN_POINT('',(-70.4100356329977,-33.9999999999998,-48.8653305913242));
#1894=CARTESIAN_POINT('',(-67.2388764445796,-34.,-48.8653305913242));
#1895=CARTESIAN_POINT('',(-70.4100851465853,-34.,-48.8653305913242));
#1896=CARTESIAN_POINT('',(-67.2388764445796,-34.,-48.8653305913242));
#1897=CARTESIAN_POINT('Origin',(-70.4100401425901,-33.9999999999998,-50.9702241177215));
#1898=CARTESIAN_POINT('',(-70.4100401425901,-33.9999999999998,-50.9702241177215));
#1899=CARTESIAN_POINT('',(-70.4100401425901,-33.9999999999998,-50.9702241177215));
#1900=CARTESIAN_POINT('',(-70.4100401425901,-33.9999999999998,-50.9702241177215));
#1901=CARTESIAN_POINT('Origin',(-65.4100401426016,-34.,-50.9702348298844));
#1902=CARTESIAN_POINT('',(-65.4100401426016,-34.,-55.9702348298844));
#1903=CARTESIAN_POINT('',(-65.4100401426016,-34.,-55.9702348298844));
#1904=CARTESIAN_POINT('Origin',(-65.4100401426016,-34.,-50.9702348298844));
#1905=CARTESIAN_POINT('Origin',(-63.1832827816515,-34.,-55.9702348298844));
#1906=CARTESIAN_POINT('',(-63.1832827816515,-34.,-55.9702348298844));
#1907=CARTESIAN_POINT('',(-63.1832827816515,-34.,-55.9702348298844));
#1908=CARTESIAN_POINT('',(-65.4100401426016,-34.,-55.9702348298844));
#1909=CARTESIAN_POINT('Origin',(-63.1832827816515,-34.,-52.8945266496119));
#1910=CARTESIAN_POINT('',(-63.1832827816515,-34.,-52.8945266496119));
#1911=CARTESIAN_POINT('',(-63.1832827816515,-34.,-52.8945266496119));
#1912=CARTESIAN_POINT('',(-63.1832827816515,-34.,-52.8945266496119));
#1913=CARTESIAN_POINT('Origin',(-63.2389858471976,-34.,-48.8949145223565));
#1914=CARTESIAN_POINT('',(-67.2389858471976,-34.,-48.8949145223565));
#1915=CARTESIAN_POINT('Origin',(-63.2389858471976,-34.,-48.8949145223565));
#1916=CARTESIAN_POINT('Origin',(-63.2389858471976,-34.,-48.8949145223565));
#1917=CARTESIAN_POINT('',(-64.3889858471976,-34.,-48.8949145223565));
#1918=CARTESIAN_POINT('',(-64.3889858471976,-34.,-48.8949145223565));
#1919=CARTESIAN_POINT('Origin',(-63.2389858471976,-34.,-48.8949145223565));
#1920=CARTESIAN_POINT('Origin',(-63.2389858471976,-34.,-48.8949145223565));
#1921=CARTESIAN_POINT('Origin',(39.9812843703242,-7.,-52.4673664586626));
#1922=CARTESIAN_POINT('',(36.123940131164,-7.,-52.8726553295358));
#1923=CARTESIAN_POINT('',(36.123940131164,-7.00000000000026,-55.970261280876));
#1924=CARTESIAN_POINT('',(36.123940131164,-7.,-54.2188138697693));
#1925=CARTESIAN_POINT('',(40.5121439763734,-7.,-48.9644716364492));
#1926=CARTESIAN_POINT('Origin',(36.5128077710805,-7.,-48.8916024589215));
#1927=CARTESIAN_POINT('',(43.8386286094844,-7.,-48.9644716364492));
#1928=CARTESIAN_POINT('',(40.2467141733488,-7.,-48.9644716364492));
#1929=CARTESIAN_POINT('',(43.8386286094844,-6.99999999999999,-50.970261280876));
#1930=CARTESIAN_POINT('',(43.8386286094844,-7.00000000000001,-50.7159190475559));
#1931=CARTESIAN_POINT('',(38.8386286094844,-7.00000000000027,-55.970261280876));
#1932=CARTESIAN_POINT('Origin',(38.8386286094844,-7.,-50.970261280876));
#1933=CARTESIAN_POINT('',(39.4099564899043,-7.,-55.970261280876));
#1934=CARTESIAN_POINT('Origin',(36.123940131164,-34.0000000000003,-55.970261280876));
#1935=CARTESIAN_POINT('',(36.123940131164,-34.0000000000003,-55.970261280876));
#1936=CARTESIAN_POINT('',(36.123940131164,-34.0000000000003,-55.970261280876));
#1937=CARTESIAN_POINT('',(36.123940131164,-34.,-52.8726553295358));
#1938=CARTESIAN_POINT('',(36.123940131164,-34.0000000000003,-55.970261280876));
#1939=CARTESIAN_POINT('',(36.123940131164,-34.,-52.8726553295358));
#1940=CARTESIAN_POINT('Origin',(38.8386286094844,-34.0000000000003,-55.970261280876));
#1941=CARTESIAN_POINT('',(38.8386286094844,-34.0000000000003,-55.970261280876));
#1942=CARTESIAN_POINT('',(38.8386286094844,-34.0000000000003,-55.970261280876));
#1943=CARTESIAN_POINT('',(-2.74266606953662,-34.,-55.970261280876));
#1944=CARTESIAN_POINT('Origin',(38.8386286094844,-34.,-50.970261280876));
#1945=CARTESIAN_POINT('',(43.8386286094844,-34.,-50.970261280876));
#1946=CARTESIAN_POINT('',(43.8386286094844,-34.,-50.970261280876));
#1947=CARTESIAN_POINT('Origin',(38.8386286094844,-34.,-50.970261280876));
#1948=CARTESIAN_POINT('Origin',(43.8386286094844,-34.,-48.9644716364492));
#1949=CARTESIAN_POINT('',(43.8386286094844,-34.,-48.9644716364492));
#1950=CARTESIAN_POINT('',(43.8386286094844,-34.,-48.9644716364492));
#1951=CARTESIAN_POINT('',(43.8386286094844,-34.,-50.970261280876));
#1952=CARTESIAN_POINT('Origin',(40.5121439763734,-34.,-48.9644716364492));
#1953=CARTESIAN_POINT('',(40.5121439763734,-34.,-48.9644716364492));
#1954=CARTESIAN_POINT('',(40.5121439763734,-34.,-48.9644716364492));
#1955=CARTESIAN_POINT('',(40.5121439763734,-34.,-48.9644716364492));
#1956=CARTESIAN_POINT('Origin',(36.5128077710805,-1.,-48.8916024589215));
#1957=CARTESIAN_POINT('',(32.5128077710805,-1.,-48.8916024589215));
#1958=CARTESIAN_POINT('Origin',(36.5128077710805,-1.00000000000001,-48.8916024589215));
#1959=CARTESIAN_POINT('',(35.3628077710805,-1.,-48.8916024589215));
#1960=CARTESIAN_POINT('Origin',(36.5128077710805,-1.00000000000001,-48.8916024589215));
#1961=CARTESIAN_POINT('Origin',(36.5128077710805,-34.,-48.8916024589215));
#1962=CARTESIAN_POINT('',(35.3628077710805,-34.,-48.8916024589215));
#1963=CARTESIAN_POINT('',(35.3628077710805,-34.,-48.8916024589215));
#1964=CARTESIAN_POINT('Origin',(36.5128077710805,-34.,-48.8916024589215));
#1965=CARTESIAN_POINT('Origin',(36.5128077710805,-34.,-48.8916024589215));
#1966=CARTESIAN_POINT('',(32.5128077710805,-34.,-48.8916024589215));
#1967=CARTESIAN_POINT('',(32.5128077710805,-34.,-48.8916024589215));
#1968=CARTESIAN_POINT('Origin',(36.5128077710805,-34.,-48.8916024589215));
#1969=CARTESIAN_POINT('Origin',(36.5128077710805,-34.,-48.8916024589215));
#1970=CARTESIAN_POINT('Origin',(36.5128077710805,-34.,-48.8916024589215));
#1971=CARTESIAN_POINT('Origin',(-13.2857035117566,-7.,-14.6783346820645));
#1972=CARTESIAN_POINT('',(-63.2151521546688,-6.99999999999999,23.3949340574617));
#1973=CARTESIAN_POINT('',(-63.2151521546688,-6.99999999999999,26.6269129523397));
#1974=CARTESIAN_POINT('',(-63.2151521546688,-7.,5.97428913513758));
#1975=CARTESIAN_POINT('',(-67.2500287761373,-7.,19.3950861076922));
#1976=CARTESIAN_POINT('Origin',(-63.2500287761373,-7.,19.3950861076922));
#1977=CARTESIAN_POINT('',(-67.2500069960662,-6.99999999999999,19.3818861041105));
#1978=CARTESIAN_POINT('Origin',(-63.2500287761373,-7.,19.3950861076922));
#1979=CARTESIAN_POINT('',(-70.4100356329977,-6.99999999999999,19.3818861041105));
#1980=CARTESIAN_POINT('',(-40.2678552539114,-7.,19.3818861041105));
#1981=CARTESIAN_POINT('',(-70.4120395191635,-6.99999999999999,21.6249436418723));
#1982=CARTESIAN_POINT('',(-70.3947986151136,-7.,2.32627266652967));
#1983=CARTESIAN_POINT('',(-70.4120415110488,-6.99999999999999,21.6295948963565));
#1984=CARTESIAN_POINT('',(-70.4042608992069,-7.,3.4610757231917));
#1985=CARTESIAN_POINT('',(-65.4063498562261,-7.00000000000002,26.6294072636389));
#1986=CARTESIAN_POINT('Origin',(-65.4120415144489,-7.,21.6294105031373));
#1987=CARTESIAN_POINT('',(-39.3225495132519,-7.00000000000001,26.5997152290605));
#1988=CARTESIAN_POINT('Origin',(-67.2500069960662,-34.,19.3818861041105));
#1989=CARTESIAN_POINT('',(-67.2500069960662,-34.,19.3818861041105));
#1990=CARTESIAN_POINT('',(-67.2500069960662,-34.,19.3818861041105));
#1991=CARTESIAN_POINT('',(-70.4100356329977,-34.,19.3818861041105));
#1992=CARTESIAN_POINT('',(-67.2500069960662,-34.,19.3818861041105));
#1993=CARTESIAN_POINT('',(-70.4100356329977,-34.,19.3818861041105));
#1994=CARTESIAN_POINT('Origin',(-63.2151521546688,-34.,26.6269129523397));
#1995=CARTESIAN_POINT('',(-63.2151521546688,-34.,26.6269129523397));
#1996=CARTESIAN_POINT('',(-63.2151521546688,-34.,26.6269129523397));
#1997=CARTESIAN_POINT('',(-63.2151521546688,-34.,23.3949340574617));
#1998=CARTESIAN_POINT('',(-63.2151521546688,-34.,23.3949340574617));
#1999=CARTESIAN_POINT('',(-63.2151521546688,-34.,23.3949340574617));
#2000=CARTESIAN_POINT('Origin',(-65.4063498562261,-34.,26.6294072636389));
#2001=CARTESIAN_POINT('',(-65.4063498562261,-34.,26.6294072636389));
#2002=CARTESIAN_POINT('',(-65.4063498562261,-34.,26.6294072636389));
#2003=CARTESIAN_POINT('',(-65.4063498562261,-34.,26.6294072636389));
#2004=CARTESIAN_POINT('Origin',(-65.4120415144489,-34.,21.6294105031373));
#2005=CARTESIAN_POINT('',(-70.4120415110488,-34.,21.6295948963565));
#2006=CARTESIAN_POINT('',(-70.4120415110488,-34.,21.6295948963565));
#2007=CARTESIAN_POINT('Origin',(-65.4120415144489,-34.,21.6294105031373));
#2008=CARTESIAN_POINT('Origin',(-70.4120395191635,-34.,21.6249436418723));
#2009=CARTESIAN_POINT('',(-70.4120395191635,-34.,21.6249436418723));
#2010=CARTESIAN_POINT('',(-70.4120395191635,-34.,21.6249436418723));
#2011=CARTESIAN_POINT('',(-70.4120395191635,-34.,21.6249436418723));
#2012=CARTESIAN_POINT('Origin',(-70.4100356329977,-34.,19.3818861041105));
#2013=CARTESIAN_POINT('',(-70.4100356329977,-34.,19.3818861041105));
#2014=CARTESIAN_POINT('Origin',(-63.2500287761373,-34.,19.3950861076922));
#2015=CARTESIAN_POINT('',(-67.2500287761373,-0.999999999999992,19.3950861076922));
#2016=CARTESIAN_POINT('Origin',(-63.2500287761373,-0.999999999999992,19.3950861076922));
#2017=CARTESIAN_POINT('',(-67.2500287761373,-34.,19.3950861076922));
#2018=CARTESIAN_POINT('Origin',(-63.2500287761373,-34.,19.3950861076922));
#2019=CARTESIAN_POINT('Origin',(-63.2500287761373,-34.,19.3950861076922));
#2020=CARTESIAN_POINT('',(-64.4000287761373,-0.999999999999992,19.3950861076922));
#2021=CARTESIAN_POINT('Origin',(-63.2500287761373,-0.999999999999992,19.3950861076922));
#2022=CARTESIAN_POINT('',(-64.4000287761373,-34.,19.3950861076922));
#2023=CARTESIAN_POINT('',(-64.4000287761373,-34.,19.3950861076922));
#2024=CARTESIAN_POINT('Origin',(-63.2500287761373,-34.,19.3950861076922));
#2025=CARTESIAN_POINT('Origin',(-63.2500287761373,-0.999999999999992,19.3950861076922));
#2026=CARTESIAN_POINT('Origin',(-63.2500287761373,-34.,19.3950861076922));
#2027=CARTESIAN_POINT('Origin',(-46.0000006854534,-34.,9.99999918043613));
#2028=CARTESIAN_POINT('',(-46.0000006854534,-34.,9.99999918043613));
#2029=CARTESIAN_POINT('',(-46.0000006854534,-34.,19.9999993294477));
#2030=CARTESIAN_POINT('',(-46.0000006854534,-33.9999999999999,-2.33916775081419));
#2031=CARTESIAN_POINT('',(-46.0000006854534,-37.,9.99999918043614));
#2032=CARTESIAN_POINT('',(-46.0000006854534,-34.,9.99999918043613));
#2033=CARTESIAN_POINT('',(-46.0000006854534,-37.,19.9999993294477));
#2034=CARTESIAN_POINT('',(-46.0000006854534,-36.9999999999999,-2.33916775081419));
#2035=CARTESIAN_POINT('',(-46.0000006854534,-34.,19.9999993294477));
#2036=CARTESIAN_POINT('Origin',(-58.0000008642673,-34.,9.99999918043613));
#2037=CARTESIAN_POINT('',(-58.0000008642673,-34.,9.99999918043613));
#2038=CARTESIAN_POINT('',(-35.642852188012,-33.9999999999999,9.99999918043613));
#2039=CARTESIAN_POINT('',(-58.0000008642673,-37.,9.99999918043614));
#2040=CARTESIAN_POINT('',(-58.0000008642673,-34.,9.99999918043613));
#2041=CARTESIAN_POINT('',(-35.642852188012,-36.9999999999999,9.99999918043614));
#2042=CARTESIAN_POINT('Origin',(-58.0000008642673,-34.,19.9999993294477));
#2043=CARTESIAN_POINT('',(-58.0000008642673,-34.,19.9999993294477));
#2044=CARTESIAN_POINT('',(-58.0000008642673,-33.9999999999998,2.66083232369162));
#2045=CARTESIAN_POINT('',(-58.0000008642673,-37.,19.9999993294477));
#2046=CARTESIAN_POINT('',(-58.0000008642673,-34.,19.9999993294477));
#2047=CARTESIAN_POINT('',(-58.0000008642673,-36.9999999999998,2.66083232369162));
#2048=CARTESIAN_POINT('Origin',(-46.0000006854534,-34.,19.9999993294477));
#2049=CARTESIAN_POINT('',(-29.642852098605,-33.9999999999999,19.9999993294477));
#2050=CARTESIAN_POINT('',(-29.642852098605,-36.9999999999999,19.9999993294477));
#2051=CARTESIAN_POINT('Origin',(-73.4100356329976,-33.9999999999998,24.6135654657554));
#2052=CARTESIAN_POINT('',(-73.4100356329976,-33.9999999999998,24.6135654657554));
#2053=CARTESIAN_POINT('',(-73.4100356329977,-33.9999999999998,-53.9702348298844));
#2054=CARTESIAN_POINT('',(-73.4100356329976,-33.9999999999998,24.6135654657554));
#2055=CARTESIAN_POINT('',(-73.4100356329977,-36.9999999999998,-53.9702348298844));
#2056=CARTESIAN_POINT('',(-73.4100356329977,-33.9999999999998,-53.9702348298844));
#2057=CARTESIAN_POINT('',(-73.4100356329976,-36.9999999999998,24.6135654657554));
#2058=CARTESIAN_POINT('',(-73.4100356329976,-36.9999999999998,24.6135654657554));
#2059=CARTESIAN_POINT('',(-73.4100356329976,-33.9999999999998,24.6135654657554));
#2060=CARTESIAN_POINT('Origin',(-68.4100356329976,-33.9999999999998,24.6135654657554));
#2061=CARTESIAN_POINT('',(-68.4100356329976,-33.9999999999998,29.6135654657554));
#2062=CARTESIAN_POINT('Origin',(-68.4100356329976,-33.9999999999998,24.6135654657554));
#2063=CARTESIAN_POINT('',(-68.4100356329976,-36.9999999999998,29.6135654657554));
#2064=CARTESIAN_POINT('Origin',(-68.4100356329976,-36.9999999999998,24.6135654657554));
#2065=CARTESIAN_POINT('',(-68.4100356329976,-33.9999999999998,29.6135654657554));
#2066=CARTESIAN_POINT('Origin',(41.8386286094844,-34.,29.6135654657554));
#2067=CARTESIAN_POINT('',(41.8386286094844,-34.,29.6135654657554));
#2068=CARTESIAN_POINT('',(41.8386286094844,-34.,29.6135654657554));
#2069=CARTESIAN_POINT('',(41.8386286094844,-37.,29.6135654657554));
#2070=CARTESIAN_POINT('',(41.8386286094844,-37.,29.6135654657554));
#2071=CARTESIAN_POINT('',(41.8386286094844,-34.,29.6135654657554));
#2072=CARTESIAN_POINT('Origin',(41.8386286094844,-34.,24.6135654657554));
#2073=CARTESIAN_POINT('',(46.8386286094844,-34.,24.6135654657554));
#2074=CARTESIAN_POINT('Origin',(41.8386286094844,-34.,24.6135654657554));
#2075=CARTESIAN_POINT('',(46.8386286094844,-37.,24.6135654657554));
#2076=CARTESIAN_POINT('Origin',(41.8386286094844,-37.,24.6135654657554));
#2077=CARTESIAN_POINT('',(46.8386286094844,-34.,24.6135654657554));
#2078=CARTESIAN_POINT('Origin',(46.8386286094844,-33.9999999999998,-53.9702348298844));
#2079=CARTESIAN_POINT('',(46.8386286094844,-33.9999999999998,-53.9702348298844));
#2080=CARTESIAN_POINT('',(46.8386286094844,-33.9999999999998,-53.9702348298844));
#2081=CARTESIAN_POINT('',(46.8386286094844,-36.9999999999998,-53.9702348298844));
#2082=CARTESIAN_POINT('',(46.8386286094844,-36.9999999999998,-53.9702348298844));
#2083=CARTESIAN_POINT('',(46.8386286094844,-33.9999999999998,-53.9702348298844));
#2084=CARTESIAN_POINT('Origin',(41.8386286094844,-33.9999999999998,-53.9702348298844));
#2085=CARTESIAN_POINT('',(41.8386286094844,-33.9999999999998,-58.9702348298844));
#2086=CARTESIAN_POINT('Origin',(41.8386286094844,-33.9999999999998,-53.9702348298844));
#2087=CARTESIAN_POINT('',(41.8386286094844,-36.9999999999998,-58.9702348298844));
#2088=CARTESIAN_POINT('Origin',(41.8386286094844,-36.9999999999998,-53.9702348298844));
#2089=CARTESIAN_POINT('',(41.8386286094844,-33.9999999999998,-58.9702348298844));
#2090=CARTESIAN_POINT('Origin',(-68.4100356329977,-33.9999999999998,-58.9702348298844));
#2091=CARTESIAN_POINT('',(-68.4100356329977,-33.9999999999998,-58.9702348298844));
#2092=CARTESIAN_POINT('',(-68.4100356329977,-33.9999999999998,-58.9702348298844));
#2093=CARTESIAN_POINT('',(-68.4100356329977,-36.9999999999998,-58.9702348298844));
#2094=CARTESIAN_POINT('',(-68.4100356329977,-36.9999999999998,-58.9702348298844));
#2095=CARTESIAN_POINT('',(-68.4100356329977,-33.9999999999998,-58.9702348298844));
#2096=CARTESIAN_POINT('Origin',(-68.4100356329977,-33.9999999999998,-53.9702348298844));
#2097=CARTESIAN_POINT('Origin',(-68.4100356329977,-33.9999999999998,-53.9702348298844));
#2098=CARTESIAN_POINT('Origin',(-68.4100356329977,-36.9999999999998,-53.9702348298844));
#2099=CARTESIAN_POINT('Origin',(-13.2857035117566,-33.9999999999999,-14.6783346820645));
#2100=CARTESIAN_POINT('Origin',(-13.2857035117566,-36.9999999999999,-14.6783346820645));
#2101=UNCERTAINTY_MEASURE_WITH_UNIT(LENGTH_MEASURE(0.01),#2105,
'DISTANCE_ACCURACY_VALUE',
'Maximum model space distance between geometric entities at asserted c
onnectivities');
#2102=UNCERTAINTY_MEASURE_WITH_UNIT(LENGTH_MEASURE(0.01),#2105,
'DISTANCE_ACCURACY_VALUE',
'Maximum model space distance between geometric entities at asserted c
onnectivities');
#2103=(
GEOMETRIC_REPRESENTATION_CONTEXT(3)
GLOBAL_UNCERTAINTY_ASSIGNED_CONTEXT((#2101))
GLOBAL_UNIT_ASSIGNED_CONTEXT((#2105,#2107,#2108))
REPRESENTATION_CONTEXT('','3D')
);
#2104=(
GEOMETRIC_REPRESENTATION_CONTEXT(3)
GLOBAL_UNCERTAINTY_ASSIGNED_CONTEXT((#2102))
GLOBAL_UNIT_ASSIGNED_CONTEXT((#2105,#2107,#2108))
REPRESENTATION_CONTEXT('','3D')
);
#2105=(
LENGTH_UNIT()
NAMED_UNIT(*)
SI_UNIT(.MILLI.,.METRE.)
);
#2106=(
LENGTH_UNIT()
NAMED_UNIT(*)
SI_UNIT($,.METRE.)
);
#2107=(
NAMED_UNIT(*)
PLANE_ANGLE_UNIT()
SI_UNIT($,.RADIAN.)
);
#2108=(
NAMED_UNIT(*)
SI_UNIT($,.STERADIAN.)
SOLID_ANGLE_UNIT()
);
#2109=SHAPE_DEFINITION_REPRESENTATION(#2110,#2111);
#2110=PRODUCT_DEFINITION_SHAPE('',$,#2113);
#2111=SHAPE_REPRESENTATION('',(#1249),#2103);
#2112=PRODUCT_DEFINITION_CONTEXT('part definition',#2117,'design');
#2113=PRODUCT_DEFINITION('OVOS_Sat','OVOS_Sat v41',#2114,#2112);
#2114=PRODUCT_DEFINITION_FORMATION('',$,#2119);
#2115=PRODUCT_RELATED_PRODUCT_CATEGORY('OVOS_Sat v41','OVOS_Sat v41',(#2119));
#2116=APPLICATION_PROTOCOL_DEFINITION('international standard',
'automotive_design',2009,#2117);
#2117=APPLICATION_CONTEXT(
'Core Data for Automotive Mechanical Design Process');
#2118=PRODUCT_CONTEXT('part definition',#2117,'mechanical');
#2119=PRODUCT('OVOS_Sat','OVOS_Sat v41',$,(#2118));
#2120=PRESENTATION_STYLE_ASSIGNMENT((#2121));
#2121=SURFACE_STYLE_USAGE(.BOTH.,#2122);
#2122=SURFACE_SIDE_STYLE('',(#2123));
#2123=SURFACE_STYLE_FILL_AREA(#2124);
#2124=FILL_AREA_STYLE('Steel - Satin',(#2125));
#2125=FILL_AREA_STYLE_COLOUR('Steel - Satin',#2126);
#2126=COLOUR_RGB('Steel - Satin',0.627450980392157,0.627450980392157,0.627450980392157);
ENDSEC;
END-ISO-10303-21;
