%TF.GenerationSoftware,KiCad,Pcbnew,(6.0.4)*%
%TF.CreationDate,2025-06-28T19:34:04+02:00*%
%TF.ProjectId,OVOS_sat,4f564f53-5f73-4617-942e-6b696361645f,rev?*%
%TF.SameCoordinates,Original*%
%TF.FileFunction,Soldermask,Bot*%
%TF.FilePolarity,Negative*%
%FSLAX46Y46*%
G04 Gerber Fmt 4.6, Leading zero omitted, Abs format (unit mm)*
G04 Created by KiCad (PCBNEW (6.0.4)) date 2025-06-28 19:34:04*
%MOMM*%
%LPD*%
G01*
G04 APERTURE LIST*
%ADD10C,2.400000*%
%ADD11O,2.400000X2.400000*%
%ADD12R,2.300000X2.300000*%
%ADD13C,2.300000*%
%ADD14R,1.700000X1.700000*%
%ADD15O,1.700000X1.700000*%
G04 APERTURE END LIST*
D10*
%TO.C,R1*%
X136906000Y-48006000D03*
D11*
X124206000Y-48006000D03*
%TD*%
D12*
%TO.C,J3 Volume*%
X140975200Y-115069200D03*
D13*
X144475200Y-115069200D03*
X147975200Y-115069200D03*
%TD*%
D14*
%TO.C,U1*%
X136194800Y-89362200D03*
D15*
X136194800Y-86822200D03*
X136194800Y-84282200D03*
X136194800Y-81742200D03*
X136194800Y-79202200D03*
X136194800Y-76662200D03*
X136194800Y-74122200D03*
%TD*%
D14*
%TO.C,MicRight*%
X134112000Y-109982000D03*
D15*
X134112000Y-107442000D03*
X134112000Y-104902000D03*
X134112000Y-102362000D03*
X134112000Y-99822000D03*
X134112000Y-97282000D03*
%TD*%
D10*
%TO.C,R2*%
X136194800Y-117144800D03*
D11*
X123494800Y-117144800D03*
%TD*%
D12*
%TO.C,LED*%
X141274800Y-49123600D03*
D13*
X144774800Y-49123600D03*
X148274800Y-49123600D03*
%TD*%
D14*
%TO.C,MicLeft*%
X134010400Y-67056000D03*
D15*
X134010400Y-64516000D03*
X134010400Y-61976000D03*
X134010400Y-59436000D03*
X134010400Y-56896000D03*
X134010400Y-54356000D03*
%TD*%
D14*
%TO.C,J1*%
X144469089Y-57933501D03*
D15*
X147009089Y-57933501D03*
X144469089Y-60473501D03*
X147009089Y-60473501D03*
X144469089Y-63013501D03*
X147009089Y-63013501D03*
X144469089Y-65553501D03*
X147009089Y-65553501D03*
X144469089Y-68093501D03*
X147009089Y-68093501D03*
X144469089Y-70633501D03*
X147009089Y-70633501D03*
X144469089Y-73173501D03*
X147009089Y-73173501D03*
X144469089Y-75713501D03*
X147009089Y-75713501D03*
X144469089Y-78253501D03*
X147009089Y-78253501D03*
X144469089Y-80793501D03*
X147009089Y-80793501D03*
X144469089Y-83333501D03*
X147009089Y-83333501D03*
X144469089Y-85873501D03*
X147009089Y-85873501D03*
X144469089Y-88413501D03*
X147009089Y-88413501D03*
X144469089Y-90953501D03*
X147009089Y-90953501D03*
X144469089Y-93493501D03*
X147009089Y-93493501D03*
X144469089Y-96033501D03*
X147009089Y-96033501D03*
X144469089Y-98573501D03*
X147009089Y-98573501D03*
X144469089Y-101113501D03*
X147009089Y-101113501D03*
X144469089Y-103653501D03*
X147009089Y-103653501D03*
X144469089Y-106193501D03*
X147009089Y-106193501D03*
%TD*%
M02*
