%TF.GenerationSoftware,KiCad,Pcbnew,(6.0.4)*%
%TF.CreationDate,2025-06-28T19:34:04+02:00*%
%TF.ProjectId,OVOS_sat,4f564f53-5f73-4617-942e-6b696361645f,rev?*%
%TF.SameCoordinates,Original*%
%TF.FileFunction,Copper,L1,Top*%
%TF.FilePolarity,Positive*%
%FSLAX46Y46*%
G04 Gerber Fmt 4.6, Leading zero omitted, Abs format (unit mm)*
G04 Created by KiCad (PCBNEW (6.0.4)) date 2025-06-28 19:34:04*
%MOMM*%
%LPD*%
G01*
G04 APERTURE LIST*
%TA.AperFunction,NonConductor*%
%ADD10C,0.200000*%
%TD*%
%TA.AperFunction,ComponentPad*%
%ADD11C,2.400000*%
%TD*%
%TA.AperFunction,ComponentPad*%
%ADD12O,2.400000X2.400000*%
%TD*%
%TA.AperFunction,ComponentPad*%
%ADD13R,2.300000X2.300000*%
%TD*%
%TA.AperFunction,ComponentPad*%
%ADD14C,2.300000*%
%TD*%
%TA.AperFunction,ComponentPad*%
%ADD15R,1.700000X1.700000*%
%TD*%
%TA.AperFunction,ComponentPad*%
%ADD16O,1.700000X1.700000*%
%TD*%
%TA.AperFunction,ViaPad*%
%ADD17C,0.800000*%
%TD*%
%TA.AperFunction,Conductor*%
%ADD18C,0.400000*%
%TD*%
%TA.AperFunction,Conductor*%
%ADD19C,0.250000*%
%TD*%
G04 APERTURE END LIST*
D10*
X151104600Y-45364400D02*
X121081800Y-45364400D01*
X121081800Y-45364400D02*
X121081800Y-120142000D01*
X121081800Y-120142000D02*
X151104600Y-120142000D01*
X151104600Y-120142000D02*
X151104600Y-45364400D01*
D11*
%TO.P,R1,1*%
%TO.N,Net-(J2-Pad3)*%
X136906000Y-48006000D03*
D12*
%TO.P,R1,2*%
%TO.N,Net-(J1-Pad9)*%
X124206000Y-48006000D03*
%TD*%
D13*
%TO.P,J3 Volume,1,Pin_1*%
%TO.N,Net-(J3-Pad1)*%
X140975200Y-115069200D03*
D14*
%TO.P,J3 Volume,2,Pin_2*%
%TO.N,Net-(J1-Pad37)*%
X144475200Y-115069200D03*
%TO.P,J3 Volume,3,Pin_3*%
%TO.N,Net-(J1-Pad13)*%
X147975200Y-115069200D03*
%TD*%
D15*
%TO.P,U1,1,LRC*%
%TO.N,Net-(J1-Pad35)*%
X136194800Y-89362200D03*
D16*
%TO.P,U1,2,Bclk*%
%TO.N,Net-(J1-Pad12)*%
X136194800Y-86822200D03*
%TO.P,U1,3,Din*%
%TO.N,Net-(J1-Pad40)*%
X136194800Y-84282200D03*
%TO.P,U1,4,Gain*%
%TO.N,unconnected-(U1-Pad4)*%
X136194800Y-81742200D03*
%TO.P,U1,5,SD*%
%TO.N,unconnected-(U1-Pad5)*%
X136194800Y-79202200D03*
%TO.P,U1,6,GND*%
%TO.N,Net-(J1-Pad9)*%
X136194800Y-76662200D03*
%TO.P,U1,7,Vin*%
%TO.N,Net-(J1-Pad4)*%
X136194800Y-74122200D03*
%TD*%
D15*
%TO.P,MicRight,1,SEL*%
%TO.N,Net-(J1-Pad1)*%
X134112000Y-109982000D03*
D16*
%TO.P,MicRight,2,LRCLK*%
%TO.N,Net-(J1-Pad35)*%
X134112000Y-107442000D03*
%TO.P,MicRight,3,DOUT*%
%TO.N,Net-(J1-Pad38)*%
X134112000Y-104902000D03*
%TO.P,MicRight,4,BCLK*%
%TO.N,Net-(J1-Pad12)*%
X134112000Y-102362000D03*
%TO.P,MicRight,5,GND*%
%TO.N,Net-(J1-Pad39)*%
X134112000Y-99822000D03*
%TO.P,MicRight,6,VDD*%
%TO.N,Net-(J1-Pad1)*%
X134112000Y-97282000D03*
%TD*%
D11*
%TO.P,R2,1*%
%TO.N,Net-(J3-Pad1)*%
X136194800Y-117144800D03*
D12*
%TO.P,R2,2*%
%TO.N,Net-(J1-Pad1)*%
X123494800Y-117144800D03*
%TD*%
D13*
%TO.P,LED,1,Pin_1*%
%TO.N,Net-(J1-Pad11)*%
X141274800Y-49123600D03*
D14*
%TO.P,LED,2,Pin_2*%
%TO.N,Net-(J1-Pad36)*%
X144774800Y-49123600D03*
%TO.P,LED,3,Pin_3*%
%TO.N,Net-(J2-Pad3)*%
X148274800Y-49123600D03*
%TD*%
D15*
%TO.P,MicLeft,1,SEL*%
%TO.N,Net-(J1-Pad39)*%
X134010400Y-67056000D03*
D16*
%TO.P,MicLeft,2,LRCLK*%
%TO.N,Net-(J1-Pad35)*%
X134010400Y-64516000D03*
%TO.P,MicLeft,3,DOUT*%
%TO.N,Net-(J1-Pad38)*%
X134010400Y-61976000D03*
%TO.P,MicLeft,4,BCLK*%
%TO.N,Net-(J1-Pad12)*%
X134010400Y-59436000D03*
%TO.P,MicLeft,5,GND*%
%TO.N,Net-(J1-Pad39)*%
X134010400Y-56896000D03*
%TO.P,MicLeft,6,VDD*%
%TO.N,Net-(J1-Pad1)*%
X134010400Y-54356000D03*
%TD*%
D15*
%TO.P,J1,1,3V3*%
%TO.N,Net-(J1-Pad1)*%
X144469089Y-57933501D03*
D16*
%TO.P,J1,2,5V*%
%TO.N,unconnected-(J1-Pad2)*%
X147009089Y-57933501D03*
%TO.P,J1,3,SDA/GPIO2*%
%TO.N,unconnected-(J1-Pad3)*%
X144469089Y-60473501D03*
%TO.P,J1,4,5V*%
%TO.N,Net-(J1-Pad4)*%
X147009089Y-60473501D03*
%TO.P,J1,5,SCL/GPIO3*%
%TO.N,unconnected-(J1-Pad5)*%
X144469089Y-63013501D03*
%TO.P,J1,6,GND*%
%TO.N,unconnected-(J1-Pad6)*%
X147009089Y-63013501D03*
%TO.P,J1,7,GCLK0/GPIO4*%
%TO.N,unconnected-(J1-Pad7)*%
X144469089Y-65553501D03*
%TO.P,J1,8,GPIO14/TXD*%
%TO.N,unconnected-(J1-Pad8)*%
X147009089Y-65553501D03*
%TO.P,J1,9,GND*%
%TO.N,Net-(J1-Pad9)*%
X144469089Y-68093501D03*
%TO.P,J1,10,GPIO15/RXD*%
%TO.N,unconnected-(J1-Pad10)*%
X147009089Y-68093501D03*
%TO.P,J1,11,GPIO17*%
%TO.N,Net-(J1-Pad11)*%
X144469089Y-70633501D03*
%TO.P,J1,12,GPIO18/PWM0*%
%TO.N,Net-(J1-Pad12)*%
X147009089Y-70633501D03*
%TO.P,J1,13,GPIO27*%
%TO.N,Net-(J1-Pad13)*%
X144469089Y-73173501D03*
%TO.P,J1,14,GND*%
%TO.N,unconnected-(J1-Pad14)*%
X147009089Y-73173501D03*
%TO.P,J1,15,GPIO22*%
%TO.N,unconnected-(J1-Pad15)*%
X144469089Y-75713501D03*
%TO.P,J1,16,GPIO23*%
%TO.N,unconnected-(J1-Pad16)*%
X147009089Y-75713501D03*
%TO.P,J1,17,3V3*%
%TO.N,unconnected-(J1-Pad17)*%
X144469089Y-78253501D03*
%TO.P,J1,18,GPIO24*%
%TO.N,unconnected-(J1-Pad18)*%
X147009089Y-78253501D03*
%TO.P,J1,19,MOSI0/GPIO10*%
%TO.N,unconnected-(J1-Pad19)*%
X144469089Y-80793501D03*
%TO.P,J1,20,GND*%
%TO.N,unconnected-(J1-Pad20)*%
X147009089Y-80793501D03*
%TO.P,J1,21,MISO0/GPIO9*%
%TO.N,unconnected-(J1-Pad21)*%
X144469089Y-83333501D03*
%TO.P,J1,22,GPIO25*%
%TO.N,unconnected-(J1-Pad22)*%
X147009089Y-83333501D03*
%TO.P,J1,23,SCLK0/GPIO11*%
%TO.N,unconnected-(J1-Pad23)*%
X144469089Y-85873501D03*
%TO.P,J1,24,~{CE0}/GPIO8*%
%TO.N,unconnected-(J1-Pad24)*%
X147009089Y-85873501D03*
%TO.P,J1,25,GND*%
%TO.N,unconnected-(J1-Pad25)*%
X144469089Y-88413501D03*
%TO.P,J1,26,~{CE1}/GPIO7*%
%TO.N,unconnected-(J1-Pad26)*%
X147009089Y-88413501D03*
%TO.P,J1,27,ID_SD/GPIO0*%
%TO.N,unconnected-(J1-Pad27)*%
X144469089Y-90953501D03*
%TO.P,J1,28,ID_SC/GPIO1*%
%TO.N,unconnected-(J1-Pad28)*%
X147009089Y-90953501D03*
%TO.P,J1,29,GCLK1/GPIO5*%
%TO.N,unconnected-(J1-Pad29)*%
X144469089Y-93493501D03*
%TO.P,J1,30,GND*%
%TO.N,unconnected-(J1-Pad30)*%
X147009089Y-93493501D03*
%TO.P,J1,31,GCLK2/GPIO6*%
%TO.N,unconnected-(J1-Pad31)*%
X144469089Y-96033501D03*
%TO.P,J1,32,PWM0/GPIO12*%
%TO.N,unconnected-(J1-Pad32)*%
X147009089Y-96033501D03*
%TO.P,J1,33,PWM1/GPIO13*%
%TO.N,unconnected-(J1-Pad33)*%
X144469089Y-98573501D03*
%TO.P,J1,34,GND*%
%TO.N,unconnected-(J1-Pad34)*%
X147009089Y-98573501D03*
%TO.P,J1,35,GPIO19/MISO1*%
%TO.N,Net-(J1-Pad35)*%
X144469089Y-101113501D03*
%TO.P,J1,36,GPIO16*%
%TO.N,Net-(J1-Pad36)*%
X147009089Y-101113501D03*
%TO.P,J1,37,GPIO26*%
%TO.N,Net-(J1-Pad37)*%
X144469089Y-103653501D03*
%TO.P,J1,38,GPIO20/MOSI1*%
%TO.N,Net-(J1-Pad38)*%
X147009089Y-103653501D03*
%TO.P,J1,39,GND*%
%TO.N,Net-(J1-Pad39)*%
X144469089Y-106193501D03*
%TO.P,J1,40,GPIO21/SCLK1*%
%TO.N,Net-(J1-Pad40)*%
X147009089Y-106193501D03*
%TD*%
D17*
%TO.N,Net-(J1-Pad39)*%
X124866400Y-89712800D03*
X139192000Y-106324400D03*
X132537200Y-92506800D03*
X125018800Y-109778800D03*
X139141200Y-69900800D03*
X145135600Y-52120800D03*
X140309600Y-82804000D03*
X139649200Y-61468000D03*
X140512800Y-73914000D03*
X149910800Y-84378800D03*
X125577600Y-68021200D03*
X125577600Y-53746400D03*
%TD*%
D18*
%TO.N,Net-(J1-Pad39)*%
X135686800Y-58572400D02*
X135686800Y-65379600D01*
X134010400Y-56896000D02*
X135686800Y-58572400D01*
X135686800Y-65379600D02*
X134010400Y-67056000D01*
D19*
%TO.N,Net-(J1-Pad38)*%
X134010400Y-61976000D02*
X129997200Y-65989200D01*
X145760590Y-104902000D02*
X147009089Y-103653501D01*
X132588000Y-104902000D02*
X134112000Y-104902000D01*
X129997200Y-102311200D02*
X132588000Y-104902000D01*
X134112000Y-104902000D02*
X145760590Y-104902000D01*
X129997200Y-65989200D02*
X129997200Y-102311200D01*
D18*
%TO.N,Net-(J1-Pad4)*%
X143850210Y-61838990D02*
X136194800Y-69494400D01*
X147009089Y-60473501D02*
X145643600Y-61838990D01*
X145643600Y-61838990D02*
X143850210Y-61838990D01*
X136194800Y-69494400D02*
X136194800Y-74173000D01*
D19*
%TO.N,Net-(J1-Pad35)*%
X147828000Y-107442000D02*
X134112000Y-107442000D01*
X134010400Y-64516000D02*
X131064000Y-67462400D01*
X148183600Y-100627002D02*
X148183600Y-107086400D01*
X136194800Y-89413000D02*
X136194800Y-92839212D01*
X131064000Y-86619000D02*
X133858000Y-89413000D01*
X145643600Y-99938990D02*
X147495588Y-99938990D01*
X136194800Y-92839212D02*
X144469089Y-101113501D01*
X133858000Y-89413000D02*
X136194800Y-89413000D01*
X131064000Y-67462400D02*
X131064000Y-86619000D01*
X147495588Y-99938990D02*
X148183600Y-100627002D01*
X144469089Y-101113501D02*
X145643600Y-99938990D01*
X148183600Y-107086400D02*
X147828000Y-107442000D01*
%TO.N,Net-(J1-Pad12)*%
X137369311Y-85698489D02*
X136194800Y-86873000D01*
X143916400Y-71780400D02*
X137369311Y-78327489D01*
X137369311Y-78327489D02*
X137369311Y-85698489D01*
X147009089Y-70633501D02*
X145834578Y-71808012D01*
X143944012Y-71808012D02*
X143916400Y-71780400D01*
X145834578Y-71808012D02*
X143944012Y-71808012D01*
D18*
%TO.N,Net-(J1-Pad9)*%
X147370800Y-66852800D02*
X145709790Y-66852800D01*
D19*
X144469089Y-68438711D02*
X144469089Y-68093501D01*
D18*
X150012400Y-55219600D02*
X150012400Y-64211200D01*
X133053814Y-48006000D02*
X124206000Y-48006000D01*
X133104614Y-47955200D02*
X133053814Y-48006000D01*
X136194800Y-76713000D02*
X144469089Y-68438711D01*
X133104614Y-47955200D02*
X139759414Y-54610000D01*
X149402800Y-54610000D02*
X150012400Y-55219600D01*
X145709790Y-66852800D02*
X144469089Y-68093501D01*
X139759414Y-54610000D02*
X149402800Y-54610000D01*
X150012400Y-64211200D02*
X147370800Y-66852800D01*
D19*
%TO.N,Net-(J1-Pad13)*%
X149186289Y-113858111D02*
X147975200Y-115069200D01*
X147304610Y-74348012D02*
X149250400Y-76293802D01*
X149250400Y-76293802D02*
X149250400Y-76758800D01*
X149186289Y-76822911D02*
X149186289Y-113858111D01*
X145643600Y-74348012D02*
X147304610Y-74348012D01*
X144469089Y-73173501D02*
X145643600Y-74348012D01*
X149250400Y-76758800D02*
X149186289Y-76822911D01*
D18*
%TO.N,Net-(J1-Pad1)*%
X137587901Y-57933501D02*
X144469089Y-57933501D01*
X134010400Y-54356000D02*
X137587901Y-57933501D01*
%TD*%
%TA.AperFunction,Conductor*%
%TO.N,Net-(J1-Pad39)*%
G36*
X150438221Y-45992902D02*
G01*
X150484714Y-46046558D01*
X150496100Y-46098900D01*
X150496100Y-54397138D01*
X150476098Y-54465259D01*
X150422442Y-54511752D01*
X150352168Y-54521856D01*
X150287588Y-54492362D01*
X150281005Y-54486234D01*
X149924235Y-54129465D01*
X149918381Y-54123198D01*
X149885356Y-54085340D01*
X149885353Y-54085337D01*
X149880361Y-54079615D01*
X149828080Y-54042871D01*
X149822786Y-54038939D01*
X149778493Y-54004209D01*
X149772518Y-53999524D01*
X149765602Y-53996401D01*
X149763316Y-53995017D01*
X149748635Y-53986643D01*
X149746275Y-53985378D01*
X149740061Y-53981010D01*
X149732982Y-53978250D01*
X149732980Y-53978249D01*
X149680525Y-53957798D01*
X149674456Y-53955247D01*
X149616227Y-53928955D01*
X149608760Y-53927571D01*
X149606205Y-53926770D01*
X149589952Y-53922141D01*
X149587372Y-53921478D01*
X149580291Y-53918718D01*
X149572760Y-53917727D01*
X149572758Y-53917726D01*
X149543139Y-53913827D01*
X149516939Y-53910378D01*
X149510441Y-53909348D01*
X149447614Y-53897704D01*
X149440034Y-53898141D01*
X149440033Y-53898141D01*
X149385408Y-53901291D01*
X149378154Y-53901500D01*
X140105074Y-53901500D01*
X140036953Y-53881498D01*
X140015979Y-53864595D01*
X136473118Y-50321734D01*
X139616300Y-50321734D01*
X139623055Y-50383916D01*
X139674185Y-50520305D01*
X139761539Y-50636861D01*
X139878095Y-50724215D01*
X140014484Y-50775345D01*
X140076666Y-50782100D01*
X142472934Y-50782100D01*
X142535116Y-50775345D01*
X142671505Y-50724215D01*
X142788061Y-50636861D01*
X142875415Y-50520305D01*
X142926545Y-50383916D01*
X142933300Y-50321734D01*
X142933300Y-49622214D01*
X142953302Y-49554093D01*
X143006958Y-49507600D01*
X143077232Y-49497496D01*
X143141812Y-49526990D01*
X143181819Y-49592800D01*
X143192596Y-49637689D01*
X143194489Y-49642260D01*
X143194490Y-49642262D01*
X143214725Y-49691112D01*
X143292497Y-49878871D01*
X143428897Y-50101456D01*
X143598437Y-50299963D01*
X143796944Y-50469503D01*
X144019529Y-50605903D01*
X144024099Y-50607796D01*
X144024103Y-50607798D01*
X144256138Y-50703910D01*
X144260711Y-50705804D01*
X144314964Y-50718829D01*
X144509738Y-50765591D01*
X144509744Y-50765592D01*
X144514551Y-50766746D01*
X144774800Y-50787228D01*
X145035049Y-50766746D01*
X145039856Y-50765592D01*
X145039862Y-50765591D01*
X145234636Y-50718829D01*
X145288889Y-50705804D01*
X145293462Y-50703910D01*
X145525497Y-50607798D01*
X145525501Y-50607796D01*
X145530071Y-50605903D01*
X145752656Y-50469503D01*
X145951163Y-50299963D01*
X146120703Y-50101456D01*
X146257103Y-49878871D01*
X146334876Y-49691112D01*
X146355110Y-49642262D01*
X146355111Y-49642260D01*
X146357004Y-49637689D01*
X146402281Y-49449098D01*
X146437633Y-49387529D01*
X146500660Y-49354846D01*
X146571351Y-49361427D01*
X146627262Y-49405181D01*
X146647319Y-49449098D01*
X146692596Y-49637689D01*
X146694489Y-49642260D01*
X146694490Y-49642262D01*
X146714725Y-49691112D01*
X146792497Y-49878871D01*
X146928897Y-50101456D01*
X147098437Y-50299963D01*
X147296944Y-50469503D01*
X147519529Y-50605903D01*
X147524099Y-50607796D01*
X147524103Y-50607798D01*
X147756138Y-50703910D01*
X147760711Y-50705804D01*
X147814964Y-50718829D01*
X148009738Y-50765591D01*
X148009744Y-50765592D01*
X148014551Y-50766746D01*
X148274800Y-50787228D01*
X148535049Y-50766746D01*
X148539856Y-50765592D01*
X148539862Y-50765591D01*
X148734636Y-50718829D01*
X148788889Y-50705804D01*
X148793462Y-50703910D01*
X149025497Y-50607798D01*
X149025501Y-50607796D01*
X149030071Y-50605903D01*
X149252656Y-50469503D01*
X149451163Y-50299963D01*
X149620703Y-50101456D01*
X149757103Y-49878871D01*
X149834876Y-49691112D01*
X149855110Y-49642262D01*
X149855111Y-49642260D01*
X149857004Y-49637689D01*
X149883581Y-49526990D01*
X149916791Y-49388662D01*
X149916792Y-49388656D01*
X149917946Y-49383849D01*
X149938428Y-49123600D01*
X149917946Y-48863351D01*
X149916792Y-48858544D01*
X149916791Y-48858538D01*
X149858159Y-48614323D01*
X149857004Y-48609511D01*
X149851510Y-48596248D01*
X149758998Y-48372903D01*
X149758996Y-48372899D01*
X149757103Y-48368329D01*
X149620703Y-48145744D01*
X149451163Y-47947237D01*
X149252656Y-47777697D01*
X149030071Y-47641297D01*
X149025501Y-47639404D01*
X149025497Y-47639402D01*
X148793462Y-47543290D01*
X148793460Y-47543289D01*
X148788889Y-47541396D01*
X148699073Y-47519833D01*
X148539862Y-47481609D01*
X148539856Y-47481608D01*
X148535049Y-47480454D01*
X148274800Y-47459972D01*
X148014551Y-47480454D01*
X148009744Y-47481608D01*
X148009738Y-47481609D01*
X147850527Y-47519833D01*
X147760711Y-47541396D01*
X147756140Y-47543289D01*
X147756138Y-47543290D01*
X147524103Y-47639402D01*
X147524099Y-47639404D01*
X147519529Y-47641297D01*
X147296944Y-47777697D01*
X147098437Y-47947237D01*
X146928897Y-48145744D01*
X146792497Y-48368329D01*
X146790604Y-48372899D01*
X146790602Y-48372903D01*
X146698090Y-48596248D01*
X146692596Y-48609511D01*
X146671244Y-48698449D01*
X146647319Y-48798102D01*
X146611967Y-48859671D01*
X146548940Y-48892354D01*
X146478249Y-48885773D01*
X146422338Y-48842019D01*
X146402281Y-48798102D01*
X146378356Y-48698449D01*
X146357004Y-48609511D01*
X146351510Y-48596248D01*
X146258998Y-48372903D01*
X146258996Y-48372899D01*
X146257103Y-48368329D01*
X146120703Y-48145744D01*
X145951163Y-47947237D01*
X145752656Y-47777697D01*
X145530071Y-47641297D01*
X145525501Y-47639404D01*
X145525497Y-47639402D01*
X145293462Y-47543290D01*
X145293460Y-47543289D01*
X145288889Y-47541396D01*
X145199073Y-47519833D01*
X145039862Y-47481609D01*
X145039856Y-47481608D01*
X145035049Y-47480454D01*
X144774800Y-47459972D01*
X144514551Y-47480454D01*
X144509744Y-47481608D01*
X144509738Y-47481609D01*
X144350527Y-47519833D01*
X144260711Y-47541396D01*
X144256140Y-47543289D01*
X144256138Y-47543290D01*
X144024103Y-47639402D01*
X144024099Y-47639404D01*
X144019529Y-47641297D01*
X143796944Y-47777697D01*
X143598437Y-47947237D01*
X143428897Y-48145744D01*
X143292497Y-48368329D01*
X143290604Y-48372899D01*
X143290602Y-48372903D01*
X143198090Y-48596248D01*
X143192596Y-48609511D01*
X143191441Y-48614323D01*
X143181819Y-48654400D01*
X143146467Y-48715969D01*
X143083440Y-48748652D01*
X143012749Y-48742071D01*
X142956838Y-48698317D01*
X142933300Y-48624986D01*
X142933300Y-47925466D01*
X142926545Y-47863284D01*
X142875415Y-47726895D01*
X142788061Y-47610339D01*
X142671505Y-47522985D01*
X142535116Y-47471855D01*
X142472934Y-47465100D01*
X140076666Y-47465100D01*
X140014484Y-47471855D01*
X139878095Y-47522985D01*
X139761539Y-47610339D01*
X139674185Y-47726895D01*
X139623055Y-47863284D01*
X139616300Y-47925466D01*
X139616300Y-50321734D01*
X136473118Y-50321734D01*
X135709105Y-49557721D01*
X135675079Y-49495409D01*
X135680144Y-49424594D01*
X135722691Y-49367758D01*
X135789211Y-49342947D01*
X135858585Y-49358038D01*
X135872705Y-49367014D01*
X135998094Y-49458953D01*
X136002229Y-49461129D01*
X136002233Y-49461131D01*
X136120289Y-49523243D01*
X136222827Y-49577191D01*
X136462568Y-49660912D01*
X136712050Y-49708278D01*
X136832532Y-49713011D01*
X136961125Y-49718064D01*
X136961130Y-49718064D01*
X136965793Y-49718247D01*
X137064774Y-49707407D01*
X137213569Y-49691112D01*
X137213575Y-49691111D01*
X137218222Y-49690602D01*
X137327680Y-49661784D01*
X137459273Y-49627138D01*
X137463793Y-49625948D01*
X137631042Y-49554093D01*
X137692807Y-49527557D01*
X137692810Y-49527555D01*
X137697110Y-49525708D01*
X137701090Y-49523245D01*
X137701094Y-49523243D01*
X137909064Y-49394547D01*
X137909066Y-49394545D01*
X137913047Y-49392082D01*
X138011428Y-49308797D01*
X138103289Y-49231031D01*
X138103291Y-49231029D01*
X138106862Y-49228006D01*
X138274295Y-49037084D01*
X138411669Y-48823512D01*
X138515967Y-48591980D01*
X138584896Y-48347575D01*
X138610036Y-48149961D01*
X138616545Y-48098798D01*
X138616545Y-48098792D01*
X138616943Y-48095667D01*
X138619291Y-48006000D01*
X138609269Y-47871140D01*
X138600818Y-47757411D01*
X138600817Y-47757407D01*
X138600472Y-47752759D01*
X138596523Y-47735303D01*
X138545459Y-47509639D01*
X138544428Y-47505082D01*
X138534700Y-47480066D01*
X138454084Y-47272762D01*
X138454083Y-47272760D01*
X138452391Y-47268409D01*
X138444733Y-47255010D01*
X138328702Y-47051997D01*
X138328700Y-47051995D01*
X138326383Y-47047940D01*
X138169171Y-46848517D01*
X137984209Y-46674523D01*
X137940483Y-46644189D01*
X137779393Y-46532437D01*
X137779390Y-46532435D01*
X137775561Y-46529779D01*
X137771384Y-46527719D01*
X137771377Y-46527715D01*
X137551996Y-46419528D01*
X137551992Y-46419527D01*
X137547810Y-46417464D01*
X137305960Y-46340047D01*
X137301355Y-46339297D01*
X137059935Y-46299980D01*
X137059934Y-46299980D01*
X137055323Y-46299229D01*
X136928364Y-46297567D01*
X136806083Y-46295966D01*
X136806080Y-46295966D01*
X136801406Y-46295905D01*
X136549787Y-46330149D01*
X136305993Y-46401208D01*
X136075380Y-46507522D01*
X136071471Y-46510085D01*
X135866928Y-46644189D01*
X135866923Y-46644193D01*
X135863015Y-46646755D01*
X135673562Y-46815848D01*
X135511183Y-47011087D01*
X135379447Y-47228182D01*
X135377638Y-47232496D01*
X135377637Y-47232498D01*
X135309128Y-47395875D01*
X135281246Y-47462365D01*
X135280095Y-47466897D01*
X135280094Y-47466900D01*
X135261468Y-47540241D01*
X135218738Y-47708490D01*
X135193296Y-47961151D01*
X135205480Y-48214798D01*
X135255021Y-48463857D01*
X135256600Y-48468255D01*
X135256602Y-48468262D01*
X135301022Y-48591980D01*
X135340831Y-48702858D01*
X135343048Y-48706984D01*
X135427067Y-48863351D01*
X135461025Y-48926551D01*
X135463820Y-48930294D01*
X135463822Y-48930297D01*
X135545213Y-49039292D01*
X135569945Y-49105842D01*
X135554771Y-49175198D01*
X135504509Y-49225340D01*
X135435117Y-49240349D01*
X135368626Y-49215459D01*
X135355160Y-49203776D01*
X133612031Y-47460647D01*
X133611565Y-47460180D01*
X133609457Y-47458050D01*
X133547930Y-47395875D01*
X133536836Y-47389077D01*
X133515847Y-47376214D01*
X133503937Y-47367937D01*
X133480312Y-47349413D01*
X133480313Y-47349413D01*
X133474332Y-47344724D01*
X133444037Y-47331045D01*
X133430059Y-47323644D01*
X133408194Y-47310245D01*
X133408192Y-47310244D01*
X133401715Y-47306275D01*
X133365865Y-47294834D01*
X133352341Y-47289642D01*
X133318041Y-47274155D01*
X133293723Y-47269648D01*
X133285360Y-47268098D01*
X133270014Y-47264243D01*
X133245589Y-47256448D01*
X133245584Y-47256447D01*
X133238349Y-47254138D01*
X133230774Y-47253622D01*
X133230771Y-47253621D01*
X133200817Y-47251579D01*
X133186427Y-47249761D01*
X133156896Y-47244288D01*
X133149428Y-47242904D01*
X133141848Y-47243341D01*
X133141847Y-47243341D01*
X133134235Y-47243780D01*
X133116233Y-47244818D01*
X133100417Y-47244735D01*
X133089659Y-47244002D01*
X133074837Y-47242991D01*
X133074834Y-47242991D01*
X133067262Y-47242475D01*
X133059786Y-47243780D01*
X133059781Y-47243780D01*
X133030199Y-47248943D01*
X133015791Y-47250610D01*
X133004116Y-47251283D01*
X132978229Y-47252776D01*
X132970968Y-47255010D01*
X132970967Y-47255010D01*
X132946465Y-47262548D01*
X132931077Y-47266242D01*
X132914529Y-47269130D01*
X132898330Y-47271957D01*
X132886202Y-47277281D01*
X132864348Y-47286874D01*
X132813703Y-47297500D01*
X125842131Y-47297500D01*
X125774010Y-47277498D01*
X125732738Y-47234023D01*
X125628702Y-47051998D01*
X125626383Y-47047940D01*
X125469171Y-46848517D01*
X125284209Y-46674523D01*
X125240483Y-46644189D01*
X125079393Y-46532437D01*
X125079390Y-46532435D01*
X125075561Y-46529779D01*
X125071384Y-46527719D01*
X125071377Y-46527715D01*
X124851996Y-46419528D01*
X124851992Y-46419527D01*
X124847810Y-46417464D01*
X124605960Y-46340047D01*
X124601355Y-46339297D01*
X124359935Y-46299980D01*
X124359934Y-46299980D01*
X124355323Y-46299229D01*
X124228364Y-46297567D01*
X124106083Y-46295966D01*
X124106080Y-46295966D01*
X124101406Y-46295905D01*
X123849787Y-46330149D01*
X123605993Y-46401208D01*
X123375380Y-46507522D01*
X123371471Y-46510085D01*
X123166928Y-46644189D01*
X123166923Y-46644193D01*
X123163015Y-46646755D01*
X122973562Y-46815848D01*
X122811183Y-47011087D01*
X122679447Y-47228182D01*
X122677638Y-47232496D01*
X122677637Y-47232498D01*
X122609128Y-47395875D01*
X122581246Y-47462365D01*
X122580095Y-47466897D01*
X122580094Y-47466900D01*
X122561468Y-47540241D01*
X122518738Y-47708490D01*
X122493296Y-47961151D01*
X122505480Y-48214798D01*
X122555021Y-48463857D01*
X122556600Y-48468255D01*
X122556602Y-48468262D01*
X122601022Y-48591980D01*
X122640831Y-48702858D01*
X122643048Y-48706984D01*
X122727067Y-48863351D01*
X122761025Y-48926551D01*
X122763820Y-48930294D01*
X122763822Y-48930297D01*
X122910171Y-49126282D01*
X122910176Y-49126288D01*
X122912963Y-49130020D01*
X122916272Y-49133300D01*
X122916277Y-49133306D01*
X123014859Y-49231031D01*
X123093307Y-49308797D01*
X123097069Y-49311555D01*
X123097072Y-49311558D01*
X123188936Y-49378915D01*
X123298094Y-49458953D01*
X123302229Y-49461129D01*
X123302233Y-49461131D01*
X123420289Y-49523243D01*
X123522827Y-49577191D01*
X123762568Y-49660912D01*
X124012050Y-49708278D01*
X124132532Y-49713011D01*
X124261125Y-49718064D01*
X124261130Y-49718064D01*
X124265793Y-49718247D01*
X124364774Y-49707407D01*
X124513569Y-49691112D01*
X124513575Y-49691111D01*
X124518222Y-49690602D01*
X124627680Y-49661784D01*
X124759273Y-49627138D01*
X124763793Y-49625948D01*
X124931042Y-49554093D01*
X124992807Y-49527557D01*
X124992810Y-49527555D01*
X124997110Y-49525708D01*
X125001090Y-49523245D01*
X125001094Y-49523243D01*
X125209064Y-49394547D01*
X125209066Y-49394545D01*
X125213047Y-49392082D01*
X125311428Y-49308797D01*
X125403289Y-49231031D01*
X125403291Y-49231029D01*
X125406862Y-49228006D01*
X125574295Y-49037084D01*
X125711669Y-48823512D01*
X125727330Y-48788747D01*
X125773546Y-48734854D01*
X125842211Y-48714500D01*
X132809754Y-48714500D01*
X132877875Y-48734502D01*
X132898849Y-48751405D01*
X139237971Y-55090528D01*
X139243825Y-55096793D01*
X139281853Y-55140385D01*
X139334143Y-55177136D01*
X139339385Y-55181028D01*
X139389696Y-55220476D01*
X139396615Y-55223600D01*
X139398907Y-55224988D01*
X139413579Y-55233357D01*
X139415939Y-55234622D01*
X139422153Y-55238990D01*
X139429232Y-55241750D01*
X139429234Y-55241751D01*
X139481689Y-55262202D01*
X139487758Y-55264753D01*
X139545987Y-55291045D01*
X139553460Y-55292430D01*
X139556026Y-55293234D01*
X139572249Y-55297855D01*
X139574841Y-55298520D01*
X139581923Y-55301282D01*
X139589458Y-55302274D01*
X139645275Y-55309622D01*
X139651791Y-55310654D01*
X139690184Y-55317770D01*
X139714600Y-55322295D01*
X139722180Y-55321858D01*
X139722181Y-55321858D01*
X139776794Y-55318709D01*
X139784047Y-55318500D01*
X149057140Y-55318500D01*
X149125261Y-55338502D01*
X149146235Y-55355405D01*
X149266995Y-55476165D01*
X149301021Y-55538477D01*
X149303900Y-55565260D01*
X149303900Y-63865539D01*
X149283898Y-63933660D01*
X149267000Y-63954629D01*
X148360668Y-64860962D01*
X148298357Y-64894986D01*
X148227542Y-64889922D01*
X148170706Y-64847375D01*
X148165782Y-64840306D01*
X148091911Y-64726118D01*
X148091909Y-64726115D01*
X148089103Y-64721778D01*
X147938759Y-64556552D01*
X147934708Y-64553353D01*
X147934704Y-64553349D01*
X147767503Y-64421301D01*
X147767499Y-64421299D01*
X147763448Y-64418099D01*
X147722142Y-64395297D01*
X147672173Y-64344865D01*
X147657401Y-64275422D01*
X147682517Y-64209017D01*
X147709869Y-64182410D01*
X147753692Y-64151151D01*
X147888949Y-64054674D01*
X148047185Y-63896990D01*
X148177542Y-63715578D01*
X148198409Y-63673358D01*
X148274225Y-63519954D01*
X148274226Y-63519952D01*
X148276519Y-63515312D01*
X148341459Y-63301570D01*
X148370618Y-63080091D01*
X148372245Y-63013501D01*
X148353941Y-62790862D01*
X148299520Y-62574203D01*
X148210443Y-62369341D01*
X148145544Y-62269023D01*
X148091911Y-62186118D01*
X148091909Y-62186115D01*
X148089103Y-62181778D01*
X147938759Y-62016552D01*
X147934708Y-62013353D01*
X147934704Y-62013349D01*
X147767503Y-61881301D01*
X147767499Y-61881299D01*
X147763448Y-61878099D01*
X147722142Y-61855297D01*
X147672173Y-61804865D01*
X147657401Y-61735422D01*
X147682517Y-61669017D01*
X147709869Y-61642410D01*
X147753692Y-61611151D01*
X147888949Y-61514674D01*
X147893342Y-61510297D01*
X148043524Y-61360638D01*
X148047185Y-61356990D01*
X148086211Y-61302680D01*
X148174524Y-61179778D01*
X148177542Y-61175578D01*
X148205931Y-61118138D01*
X148274225Y-60979954D01*
X148274226Y-60979952D01*
X148276519Y-60975312D01*
X148318206Y-60838104D01*
X148339954Y-60766524D01*
X148339954Y-60766522D01*
X148341459Y-60761570D01*
X148370618Y-60540091D01*
X148372245Y-60473501D01*
X148353941Y-60250862D01*
X148299520Y-60034203D01*
X148210443Y-59829341D01*
X148145544Y-59729023D01*
X148091911Y-59646118D01*
X148091909Y-59646115D01*
X148089103Y-59641778D01*
X147938759Y-59476552D01*
X147934708Y-59473353D01*
X147934704Y-59473349D01*
X147767503Y-59341301D01*
X147767499Y-59341299D01*
X147763448Y-59338099D01*
X147722142Y-59315297D01*
X147672173Y-59264865D01*
X147657401Y-59195422D01*
X147682517Y-59129017D01*
X147709869Y-59102410D01*
X147753692Y-59071151D01*
X147888949Y-58974674D01*
X147893342Y-58970297D01*
X148032705Y-58831419D01*
X148047185Y-58816990D01*
X148086211Y-58762680D01*
X148174524Y-58639778D01*
X148177542Y-58635578D01*
X148205931Y-58578138D01*
X148274225Y-58439954D01*
X148274226Y-58439952D01*
X148276519Y-58435312D01*
X148318207Y-58298101D01*
X148339954Y-58226524D01*
X148339954Y-58226522D01*
X148341459Y-58221570D01*
X148370618Y-58000091D01*
X148370700Y-57996741D01*
X148372163Y-57936866D01*
X148372163Y-57936862D01*
X148372245Y-57933501D01*
X148353941Y-57710862D01*
X148299520Y-57494203D01*
X148210443Y-57289341D01*
X148155880Y-57204999D01*
X148091911Y-57106118D01*
X148091909Y-57106115D01*
X148089103Y-57101778D01*
X147938759Y-56936552D01*
X147934708Y-56933353D01*
X147934704Y-56933349D01*
X147767503Y-56801301D01*
X147767499Y-56801299D01*
X147763448Y-56798099D01*
X147567878Y-56690139D01*
X147563009Y-56688415D01*
X147563005Y-56688413D01*
X147362176Y-56617296D01*
X147362172Y-56617295D01*
X147357301Y-56615570D01*
X147352208Y-56614663D01*
X147352205Y-56614662D01*
X147142462Y-56577301D01*
X147142456Y-56577300D01*
X147137373Y-56576395D01*
X147063541Y-56575493D01*
X146919170Y-56573729D01*
X146919168Y-56573729D01*
X146914000Y-56573666D01*
X146693180Y-56607456D01*
X146480845Y-56676858D01*
X146282696Y-56780008D01*
X146278563Y-56783111D01*
X146278560Y-56783113D01*
X146108189Y-56911031D01*
X146104054Y-56914136D01*
X146047626Y-56973185D01*
X146023372Y-56998565D01*
X145961848Y-57033995D01*
X145890935Y-57030538D01*
X145833149Y-56989292D01*
X145814296Y-56955744D01*
X145772856Y-56845204D01*
X145769704Y-56836796D01*
X145682350Y-56720240D01*
X145565794Y-56632886D01*
X145429405Y-56581756D01*
X145367223Y-56575001D01*
X143570955Y-56575001D01*
X143508773Y-56581756D01*
X143372384Y-56632886D01*
X143255828Y-56720240D01*
X143168474Y-56836796D01*
X143117344Y-56973185D01*
X143110589Y-57035367D01*
X143110589Y-57099001D01*
X143090587Y-57167122D01*
X143036931Y-57213615D01*
X142984589Y-57225001D01*
X137933561Y-57225001D01*
X137865440Y-57204999D01*
X137844466Y-57188096D01*
X135381783Y-54725413D01*
X135347757Y-54663101D01*
X135345956Y-54619871D01*
X135371492Y-54425908D01*
X135371929Y-54422590D01*
X135373556Y-54356000D01*
X135355252Y-54133361D01*
X135300831Y-53916702D01*
X135211754Y-53711840D01*
X135090414Y-53524277D01*
X134940070Y-53359051D01*
X134936019Y-53355852D01*
X134936015Y-53355848D01*
X134768814Y-53223800D01*
X134768810Y-53223798D01*
X134764759Y-53220598D01*
X134569189Y-53112638D01*
X134564320Y-53110914D01*
X134564316Y-53110912D01*
X134363487Y-53039795D01*
X134363483Y-53039794D01*
X134358612Y-53038069D01*
X134353519Y-53037162D01*
X134353516Y-53037161D01*
X134143773Y-52999800D01*
X134143767Y-52999799D01*
X134138684Y-52998894D01*
X134064852Y-52997992D01*
X133920481Y-52996228D01*
X133920479Y-52996228D01*
X133915311Y-52996165D01*
X133694491Y-53029955D01*
X133482156Y-53099357D01*
X133284007Y-53202507D01*
X133279874Y-53205610D01*
X133279871Y-53205612D01*
X133255647Y-53223800D01*
X133105365Y-53336635D01*
X132951029Y-53498138D01*
X132825143Y-53682680D01*
X132731088Y-53885305D01*
X132671389Y-54100570D01*
X132647651Y-54322695D01*
X132647948Y-54327848D01*
X132647948Y-54327851D01*
X132653411Y-54422590D01*
X132660510Y-54545715D01*
X132661647Y-54550761D01*
X132661648Y-54550767D01*
X132677222Y-54619871D01*
X132709622Y-54763639D01*
X132793666Y-54970616D01*
X132910387Y-55161088D01*
X133056650Y-55329938D01*
X133228526Y-55472632D01*
X133297728Y-55513070D01*
X133302355Y-55515774D01*
X133351079Y-55567412D01*
X133364150Y-55637195D01*
X133337419Y-55702967D01*
X133296962Y-55736327D01*
X133288857Y-55740546D01*
X133280138Y-55746036D01*
X133109833Y-55873905D01*
X133102126Y-55880748D01*
X132954990Y-56034717D01*
X132948504Y-56042727D01*
X132828498Y-56218649D01*
X132823400Y-56227623D01*
X132733738Y-56420783D01*
X132730175Y-56430470D01*
X132674789Y-56630183D01*
X132676312Y-56638607D01*
X132688692Y-56642000D01*
X134138400Y-56642000D01*
X134206521Y-56662002D01*
X134253014Y-56715658D01*
X134264400Y-56768000D01*
X134264400Y-57024000D01*
X134244398Y-57092121D01*
X134190742Y-57138614D01*
X134138400Y-57150000D01*
X132693625Y-57150000D01*
X132680094Y-57153973D01*
X132678657Y-57163966D01*
X132708965Y-57298446D01*
X132712045Y-57308275D01*
X132792170Y-57505603D01*
X132796813Y-57514794D01*
X132908094Y-57696388D01*
X132914177Y-57704699D01*
X133053613Y-57865667D01*
X133060980Y-57872883D01*
X133224834Y-58008916D01*
X133233281Y-58014831D01*
X133302369Y-58055203D01*
X133351093Y-58106842D01*
X133364164Y-58176625D01*
X133337433Y-58242396D01*
X133296984Y-58275752D01*
X133284007Y-58282507D01*
X133279874Y-58285610D01*
X133279871Y-58285612D01*
X133255647Y-58303800D01*
X133105365Y-58416635D01*
X133101793Y-58420373D01*
X132965982Y-58562491D01*
X132951029Y-58578138D01*
X132948115Y-58582410D01*
X132948114Y-58582411D01*
X132945052Y-58586900D01*
X132825143Y-58762680D01*
X132786176Y-58846627D01*
X132756416Y-58910741D01*
X132731088Y-58965305D01*
X132671389Y-59180570D01*
X132647651Y-59402695D01*
X132647948Y-59407848D01*
X132647948Y-59407851D01*
X132653411Y-59502590D01*
X132660510Y-59625715D01*
X132661647Y-59630761D01*
X132661648Y-59630767D01*
X132663269Y-59637958D01*
X132709622Y-59843639D01*
X132747861Y-59937811D01*
X132776280Y-60007798D01*
X132793666Y-60050616D01*
X132910387Y-60241088D01*
X133056650Y-60409938D01*
X133228526Y-60552632D01*
X133298995Y-60593811D01*
X133301845Y-60595476D01*
X133350569Y-60647114D01*
X133363640Y-60716897D01*
X133336909Y-60782669D01*
X133296455Y-60816027D01*
X133284007Y-60822507D01*
X133279874Y-60825610D01*
X133279871Y-60825612D01*
X133109500Y-60953530D01*
X133105365Y-60956635D01*
X132951029Y-61118138D01*
X132825143Y-61302680D01*
X132731088Y-61505305D01*
X132671389Y-61720570D01*
X132647651Y-61942695D01*
X132647948Y-61947848D01*
X132647948Y-61947851D01*
X132653411Y-62042590D01*
X132660510Y-62165715D01*
X132661647Y-62170761D01*
X132661648Y-62170767D01*
X132693853Y-62313668D01*
X132689317Y-62384520D01*
X132660031Y-62430464D01*
X129604947Y-65485548D01*
X129596661Y-65493088D01*
X129590182Y-65497200D01*
X129584757Y-65502977D01*
X129543557Y-65546851D01*
X129540802Y-65549693D01*
X129521065Y-65569430D01*
X129518585Y-65572627D01*
X129510882Y-65581647D01*
X129480614Y-65613879D01*
X129476795Y-65620825D01*
X129476793Y-65620828D01*
X129470852Y-65631634D01*
X129460001Y-65648153D01*
X129447586Y-65664159D01*
X129444441Y-65671428D01*
X129444438Y-65671432D01*
X129430026Y-65704737D01*
X129424809Y-65715387D01*
X129403505Y-65754140D01*
X129401534Y-65761815D01*
X129401534Y-65761816D01*
X129398467Y-65773762D01*
X129392063Y-65792466D01*
X129384019Y-65811055D01*
X129382780Y-65818878D01*
X129382777Y-65818888D01*
X129377101Y-65854724D01*
X129374695Y-65866344D01*
X129363700Y-65909170D01*
X129363700Y-65929424D01*
X129362149Y-65949134D01*
X129358980Y-65969143D01*
X129359726Y-65977035D01*
X129363141Y-66013161D01*
X129363700Y-66025019D01*
X129363700Y-102232433D01*
X129363173Y-102243616D01*
X129361498Y-102251109D01*
X129361747Y-102259035D01*
X129361747Y-102259036D01*
X129363638Y-102319186D01*
X129363700Y-102323145D01*
X129363700Y-102351056D01*
X129364197Y-102354990D01*
X129364197Y-102354991D01*
X129364205Y-102355056D01*
X129365138Y-102366893D01*
X129366527Y-102411089D01*
X129372178Y-102430539D01*
X129376187Y-102449900D01*
X129378726Y-102469997D01*
X129381645Y-102477368D01*
X129381645Y-102477370D01*
X129395004Y-102511112D01*
X129398849Y-102522342D01*
X129408850Y-102556767D01*
X129411182Y-102564793D01*
X129415215Y-102571612D01*
X129415217Y-102571617D01*
X129421493Y-102582228D01*
X129430188Y-102599976D01*
X129437648Y-102618817D01*
X129442310Y-102625233D01*
X129442310Y-102625234D01*
X129463636Y-102654587D01*
X129470152Y-102664507D01*
X129492658Y-102702562D01*
X129506979Y-102716883D01*
X129519819Y-102731916D01*
X129531728Y-102748307D01*
X129537834Y-102753358D01*
X129565805Y-102776498D01*
X129574584Y-102784488D01*
X132084343Y-105294247D01*
X132091887Y-105302537D01*
X132096000Y-105309018D01*
X132101777Y-105314443D01*
X132145667Y-105355658D01*
X132148509Y-105358413D01*
X132168230Y-105378134D01*
X132171425Y-105380612D01*
X132180447Y-105388318D01*
X132212679Y-105418586D01*
X132219628Y-105422406D01*
X132230432Y-105428346D01*
X132246956Y-105439199D01*
X132262959Y-105451613D01*
X132303543Y-105469176D01*
X132314173Y-105474383D01*
X132352940Y-105495695D01*
X132360617Y-105497666D01*
X132360622Y-105497668D01*
X132372558Y-105500732D01*
X132391266Y-105507137D01*
X132409855Y-105515181D01*
X132417680Y-105516420D01*
X132417682Y-105516421D01*
X132453519Y-105522097D01*
X132465140Y-105524504D01*
X132500289Y-105533528D01*
X132507970Y-105535500D01*
X132528231Y-105535500D01*
X132547940Y-105537051D01*
X132567943Y-105540219D01*
X132575835Y-105539473D01*
X132581062Y-105538979D01*
X132611954Y-105536059D01*
X132623811Y-105535500D01*
X132836274Y-105535500D01*
X132904395Y-105555502D01*
X132943707Y-105595665D01*
X133011987Y-105707088D01*
X133158250Y-105875938D01*
X133330126Y-106018632D01*
X133400595Y-106059811D01*
X133403445Y-106061476D01*
X133452169Y-106113114D01*
X133465240Y-106182897D01*
X133438509Y-106248669D01*
X133398055Y-106282027D01*
X133385607Y-106288507D01*
X133381474Y-106291610D01*
X133381471Y-106291612D01*
X133357247Y-106309800D01*
X133206965Y-106422635D01*
X133052629Y-106584138D01*
X133049715Y-106588410D01*
X133049714Y-106588411D01*
X133037404Y-106606457D01*
X132926743Y-106768680D01*
X132832688Y-106971305D01*
X132772989Y-107186570D01*
X132749251Y-107408695D01*
X132762110Y-107631715D01*
X132763247Y-107636761D01*
X132763248Y-107636767D01*
X132787304Y-107743508D01*
X132811222Y-107849639D01*
X132871014Y-107996890D01*
X132888662Y-108040351D01*
X132895266Y-108056616D01*
X133011987Y-108247088D01*
X133158250Y-108415938D01*
X133162230Y-108419242D01*
X133166981Y-108423187D01*
X133206616Y-108482090D01*
X133208113Y-108553071D01*
X133170997Y-108613593D01*
X133130724Y-108638112D01*
X133015295Y-108681385D01*
X132898739Y-108768739D01*
X132811385Y-108885295D01*
X132760255Y-109021684D01*
X132753500Y-109083866D01*
X132753500Y-110880134D01*
X132760255Y-110942316D01*
X132811385Y-111078705D01*
X132898739Y-111195261D01*
X133015295Y-111282615D01*
X133151684Y-111333745D01*
X133213866Y-111340500D01*
X135010134Y-111340500D01*
X135072316Y-111333745D01*
X135208705Y-111282615D01*
X135325261Y-111195261D01*
X135412615Y-111078705D01*
X135463745Y-110942316D01*
X135470500Y-110880134D01*
X135470500Y-109083866D01*
X135463745Y-109021684D01*
X135412615Y-108885295D01*
X135325261Y-108768739D01*
X135208705Y-108681385D01*
X135196132Y-108676672D01*
X135090203Y-108636960D01*
X135033439Y-108594318D01*
X135008739Y-108527756D01*
X135023947Y-108458408D01*
X135045493Y-108429727D01*
X135146435Y-108329137D01*
X135150096Y-108325489D01*
X135209594Y-108242689D01*
X135277435Y-108148277D01*
X135280453Y-108144077D01*
X135282746Y-108139437D01*
X135284446Y-108136608D01*
X135336674Y-108088518D01*
X135392451Y-108075500D01*
X147749233Y-108075500D01*
X147760416Y-108076027D01*
X147767909Y-108077702D01*
X147775835Y-108077453D01*
X147775836Y-108077453D01*
X147835986Y-108075562D01*
X147839945Y-108075500D01*
X147867856Y-108075500D01*
X147871791Y-108075003D01*
X147871856Y-108074995D01*
X147883693Y-108074062D01*
X147915951Y-108073048D01*
X147919970Y-108072922D01*
X147927889Y-108072673D01*
X147947343Y-108067021D01*
X147966700Y-108063013D01*
X147978930Y-108061468D01*
X147978931Y-108061468D01*
X147986797Y-108060474D01*
X147994168Y-108057555D01*
X147994170Y-108057555D01*
X148027912Y-108044196D01*
X148039142Y-108040351D01*
X148073983Y-108030229D01*
X148073984Y-108030229D01*
X148081593Y-108028018D01*
X148088412Y-108023985D01*
X148088417Y-108023983D01*
X148099028Y-108017707D01*
X148116776Y-108009012D01*
X148135617Y-108001552D01*
X148171387Y-107975564D01*
X148181307Y-107969048D01*
X148212535Y-107950580D01*
X148212538Y-107950578D01*
X148219362Y-107946542D01*
X148233683Y-107932221D01*
X148248717Y-107919380D01*
X148258694Y-107912131D01*
X148265107Y-107907472D01*
X148293298Y-107873395D01*
X148301288Y-107864616D01*
X148337694Y-107828210D01*
X148400006Y-107794184D01*
X148470821Y-107799249D01*
X148527657Y-107841796D01*
X148552468Y-107908316D01*
X148552789Y-107917305D01*
X148552789Y-113342410D01*
X148532787Y-113410531D01*
X148479131Y-113457024D01*
X148408857Y-113467128D01*
X148397375Y-113464929D01*
X148240262Y-113427209D01*
X148240256Y-113427208D01*
X148235449Y-113426054D01*
X147975200Y-113405572D01*
X147714951Y-113426054D01*
X147710144Y-113427208D01*
X147710138Y-113427209D01*
X147553026Y-113464929D01*
X147461111Y-113486996D01*
X147456540Y-113488889D01*
X147456538Y-113488890D01*
X147224503Y-113585002D01*
X147224499Y-113585004D01*
X147219929Y-113586897D01*
X146997344Y-113723297D01*
X146798837Y-113892837D01*
X146629297Y-114091344D01*
X146492897Y-114313929D01*
X146491004Y-114318499D01*
X146491002Y-114318503D01*
X146394890Y-114550538D01*
X146392996Y-114555111D01*
X146367438Y-114661569D01*
X146347719Y-114743702D01*
X146312367Y-114805271D01*
X146249340Y-114837954D01*
X146178649Y-114831373D01*
X146122738Y-114787619D01*
X146102681Y-114743702D01*
X146082962Y-114661569D01*
X146057404Y-114555111D01*
X146055510Y-114550538D01*
X145959398Y-114318503D01*
X145959396Y-114318499D01*
X145957503Y-114313929D01*
X145821103Y-114091344D01*
X145651563Y-113892837D01*
X145453056Y-113723297D01*
X145230471Y-113586897D01*
X145225901Y-113585004D01*
X145225897Y-113585002D01*
X144993862Y-113488890D01*
X144993860Y-113488889D01*
X144989289Y-113486996D01*
X144897374Y-113464929D01*
X144740262Y-113427209D01*
X144740256Y-113427208D01*
X144735449Y-113426054D01*
X144475200Y-113405572D01*
X144214951Y-113426054D01*
X144210144Y-113427208D01*
X144210138Y-113427209D01*
X144053026Y-113464929D01*
X143961111Y-113486996D01*
X143956540Y-113488889D01*
X143956538Y-113488890D01*
X143724503Y-113585002D01*
X143724499Y-113585004D01*
X143719929Y-113586897D01*
X143497344Y-113723297D01*
X143298837Y-113892837D01*
X143129297Y-114091344D01*
X142992897Y-114313929D01*
X142991004Y-114318499D01*
X142991002Y-114318503D01*
X142894890Y-114550538D01*
X142892996Y-114555111D01*
X142891841Y-114559923D01*
X142882219Y-114600000D01*
X142846867Y-114661569D01*
X142783840Y-114694252D01*
X142713149Y-114687671D01*
X142657238Y-114643917D01*
X142633700Y-114570586D01*
X142633700Y-113871066D01*
X142626945Y-113808884D01*
X142575815Y-113672495D01*
X142488461Y-113555939D01*
X142371905Y-113468585D01*
X142235516Y-113417455D01*
X142173334Y-113410700D01*
X139777066Y-113410700D01*
X139714884Y-113417455D01*
X139578495Y-113468585D01*
X139461939Y-113555939D01*
X139374585Y-113672495D01*
X139323455Y-113808884D01*
X139316700Y-113871066D01*
X139316700Y-116267334D01*
X139323455Y-116329516D01*
X139374585Y-116465905D01*
X139461939Y-116582461D01*
X139578495Y-116669815D01*
X139714884Y-116720945D01*
X139777066Y-116727700D01*
X142173334Y-116727700D01*
X142235516Y-116720945D01*
X142371905Y-116669815D01*
X142488461Y-116582461D01*
X142575815Y-116465905D01*
X142626945Y-116329516D01*
X142633700Y-116267334D01*
X142633700Y-115567814D01*
X142653702Y-115499693D01*
X142707358Y-115453200D01*
X142777632Y-115443096D01*
X142842212Y-115472590D01*
X142882219Y-115538400D01*
X142892996Y-115583289D01*
X142894889Y-115587860D01*
X142894890Y-115587862D01*
X142978069Y-115788672D01*
X142992897Y-115824471D01*
X143129297Y-116047056D01*
X143298837Y-116245563D01*
X143497344Y-116415103D01*
X143719929Y-116551503D01*
X143724499Y-116553396D01*
X143724503Y-116553398D01*
X143956538Y-116649510D01*
X143961111Y-116651404D01*
X144015364Y-116664429D01*
X144210138Y-116711191D01*
X144210144Y-116711192D01*
X144214951Y-116712346D01*
X144475200Y-116732828D01*
X144735449Y-116712346D01*
X144740256Y-116711192D01*
X144740262Y-116711191D01*
X144935036Y-116664429D01*
X144989289Y-116651404D01*
X144993862Y-116649510D01*
X145225897Y-116553398D01*
X145225901Y-116553396D01*
X145230471Y-116551503D01*
X145453056Y-116415103D01*
X145651563Y-116245563D01*
X145821103Y-116047056D01*
X145957503Y-115824471D01*
X145972332Y-115788672D01*
X146055510Y-115587862D01*
X146055511Y-115587860D01*
X146057404Y-115583289D01*
X146102681Y-115394698D01*
X146138033Y-115333129D01*
X146201060Y-115300446D01*
X146271751Y-115307027D01*
X146327662Y-115350781D01*
X146347719Y-115394698D01*
X146392996Y-115583289D01*
X146394889Y-115587860D01*
X146394890Y-115587862D01*
X146478069Y-115788672D01*
X146492897Y-115824471D01*
X146629297Y-116047056D01*
X146798837Y-116245563D01*
X146997344Y-116415103D01*
X147219929Y-116551503D01*
X147224499Y-116553396D01*
X147224503Y-116553398D01*
X147456538Y-116649510D01*
X147461111Y-116651404D01*
X147515364Y-116664429D01*
X147710138Y-116711191D01*
X147710144Y-116711192D01*
X147714951Y-116712346D01*
X147975200Y-116732828D01*
X148235449Y-116712346D01*
X148240256Y-116711192D01*
X148240262Y-116711191D01*
X148435036Y-116664429D01*
X148489289Y-116651404D01*
X148493862Y-116649510D01*
X148725897Y-116553398D01*
X148725901Y-116553396D01*
X148730471Y-116551503D01*
X148953056Y-116415103D01*
X149151563Y-116245563D01*
X149321103Y-116047056D01*
X149457503Y-115824471D01*
X149472332Y-115788672D01*
X149555510Y-115587862D01*
X149555511Y-115587860D01*
X149557404Y-115583289D01*
X149582137Y-115480270D01*
X149617191Y-115334262D01*
X149617192Y-115334256D01*
X149618346Y-115329449D01*
X149638828Y-115069200D01*
X149618346Y-114808951D01*
X149617192Y-114804144D01*
X149617191Y-114804138D01*
X149558559Y-114559923D01*
X149557404Y-114555111D01*
X149555510Y-114550538D01*
X149555508Y-114550532D01*
X149539183Y-114511119D01*
X149531594Y-114440529D01*
X149566497Y-114373807D01*
X149578536Y-114361768D01*
X149586826Y-114354224D01*
X149593307Y-114350111D01*
X149639948Y-114300443D01*
X149642702Y-114297602D01*
X149662423Y-114277881D01*
X149664901Y-114274686D01*
X149672607Y-114265664D01*
X149697447Y-114239212D01*
X149702875Y-114233432D01*
X149712635Y-114215679D01*
X149723488Y-114199156D01*
X149731042Y-114189417D01*
X149735902Y-114183152D01*
X149753465Y-114142568D01*
X149758672Y-114131938D01*
X149779984Y-114093171D01*
X149781955Y-114085494D01*
X149781957Y-114085489D01*
X149785021Y-114073553D01*
X149791427Y-114054841D01*
X149796323Y-114043528D01*
X149799470Y-114036256D01*
X149806386Y-113992592D01*
X149808793Y-113980971D01*
X149817817Y-113945822D01*
X149817817Y-113945821D01*
X149819789Y-113938141D01*
X149819789Y-113917880D01*
X149821340Y-113898169D01*
X149822185Y-113892837D01*
X149824508Y-113878168D01*
X149820348Y-113834157D01*
X149819789Y-113822300D01*
X149819789Y-77070424D01*
X149835375Y-77009722D01*
X149840275Y-77000808D01*
X149844095Y-76993860D01*
X149846294Y-76985298D01*
X149849133Y-76974238D01*
X149855537Y-76955534D01*
X149860433Y-76944220D01*
X149860433Y-76944219D01*
X149863581Y-76936945D01*
X149864820Y-76929122D01*
X149864823Y-76929112D01*
X149870499Y-76893276D01*
X149872905Y-76881656D01*
X149881928Y-76846511D01*
X149881928Y-76846510D01*
X149883900Y-76838830D01*
X149883900Y-76818576D01*
X149885451Y-76798865D01*
X149887380Y-76786686D01*
X149888620Y-76778857D01*
X149884459Y-76734838D01*
X149883900Y-76722981D01*
X149883900Y-76372570D01*
X149884427Y-76361387D01*
X149886102Y-76353894D01*
X149883962Y-76285803D01*
X149883900Y-76281846D01*
X149883900Y-76253946D01*
X149883396Y-76249955D01*
X149882463Y-76238113D01*
X149881747Y-76215312D01*
X149881074Y-76193913D01*
X149875421Y-76174454D01*
X149871412Y-76155095D01*
X149871246Y-76153785D01*
X149868874Y-76135005D01*
X149865958Y-76127639D01*
X149865956Y-76127633D01*
X149852600Y-76093900D01*
X149848755Y-76082670D01*
X149838630Y-76047819D01*
X149838630Y-76047818D01*
X149836419Y-76040209D01*
X149826105Y-76022768D01*
X149817408Y-76005015D01*
X149812872Y-75993560D01*
X149809952Y-75986185D01*
X149783963Y-75950414D01*
X149777447Y-75940494D01*
X149758978Y-75909265D01*
X149754942Y-75902440D01*
X149740621Y-75888119D01*
X149727780Y-75873085D01*
X149720531Y-75863108D01*
X149715872Y-75856695D01*
X149681795Y-75828504D01*
X149673016Y-75820514D01*
X148065305Y-74212802D01*
X148031279Y-74150490D01*
X148036344Y-74079674D01*
X148052075Y-74050185D01*
X148177542Y-73875578D01*
X148184358Y-73861788D01*
X148274225Y-73679954D01*
X148274226Y-73679952D01*
X148276519Y-73675312D01*
X148341459Y-73461570D01*
X148370618Y-73240091D01*
X148372245Y-73173501D01*
X148353941Y-72950862D01*
X148299520Y-72734203D01*
X148210443Y-72529341D01*
X148089103Y-72341778D01*
X147938759Y-72176552D01*
X147934708Y-72173353D01*
X147934704Y-72173349D01*
X147767503Y-72041301D01*
X147767499Y-72041299D01*
X147763448Y-72038099D01*
X147722142Y-72015297D01*
X147672173Y-71964865D01*
X147657401Y-71895422D01*
X147682517Y-71829017D01*
X147709869Y-71802410D01*
X147753692Y-71771151D01*
X147888949Y-71674674D01*
X148047185Y-71516990D01*
X148177542Y-71335578D01*
X148276519Y-71135312D01*
X148341459Y-70921570D01*
X148370618Y-70700091D01*
X148372245Y-70633501D01*
X148353941Y-70410862D01*
X148299520Y-70194203D01*
X148210443Y-69989341D01*
X148089103Y-69801778D01*
X147938759Y-69636552D01*
X147934708Y-69633353D01*
X147934704Y-69633349D01*
X147767503Y-69501301D01*
X147767499Y-69501299D01*
X147763448Y-69498099D01*
X147722142Y-69475297D01*
X147672173Y-69424865D01*
X147657401Y-69355422D01*
X147682517Y-69289017D01*
X147709869Y-69262410D01*
X147773987Y-69216675D01*
X147888949Y-69134674D01*
X147954734Y-69069119D01*
X148000961Y-69023053D01*
X148047185Y-68976990D01*
X148177542Y-68795578D01*
X148198409Y-68753358D01*
X148274225Y-68599954D01*
X148274226Y-68599952D01*
X148276519Y-68595312D01*
X148341459Y-68381570D01*
X148370618Y-68160091D01*
X148372245Y-68093501D01*
X148353941Y-67870862D01*
X148299520Y-67654203D01*
X148210443Y-67449341D01*
X148095202Y-67271205D01*
X148074995Y-67203146D01*
X148094791Y-67134965D01*
X148111899Y-67113671D01*
X150281005Y-64944565D01*
X150343317Y-64910539D01*
X150414132Y-64915604D01*
X150470968Y-64958151D01*
X150495779Y-65024671D01*
X150496100Y-65033660D01*
X150496100Y-119407500D01*
X150476098Y-119475621D01*
X150422442Y-119522114D01*
X150370100Y-119533500D01*
X121816300Y-119533500D01*
X121748179Y-119513498D01*
X121701686Y-119459842D01*
X121690300Y-119407500D01*
X121690300Y-117896042D01*
X121710302Y-117827921D01*
X121763958Y-117781428D01*
X121834232Y-117771324D01*
X121898812Y-117800818D01*
X121929239Y-117841869D01*
X121929631Y-117841658D01*
X121931847Y-117845782D01*
X121931850Y-117845789D01*
X121994460Y-117962312D01*
X122049825Y-118065351D01*
X122052620Y-118069094D01*
X122052622Y-118069097D01*
X122198971Y-118265082D01*
X122198976Y-118265088D01*
X122201763Y-118268820D01*
X122205072Y-118272100D01*
X122205077Y-118272106D01*
X122303659Y-118369831D01*
X122382107Y-118447597D01*
X122385869Y-118450355D01*
X122385872Y-118450358D01*
X122491564Y-118527854D01*
X122586894Y-118597753D01*
X122591029Y-118599929D01*
X122591033Y-118599931D01*
X122709089Y-118662043D01*
X122811627Y-118715991D01*
X123051368Y-118799712D01*
X123300850Y-118847078D01*
X123421332Y-118851811D01*
X123549925Y-118856864D01*
X123549930Y-118856864D01*
X123554593Y-118857047D01*
X123653574Y-118846207D01*
X123802369Y-118829912D01*
X123802375Y-118829911D01*
X123807022Y-118829402D01*
X123916480Y-118800584D01*
X124048073Y-118765938D01*
X124052593Y-118764748D01*
X124171153Y-118713811D01*
X124281607Y-118666357D01*
X124281610Y-118666355D01*
X124285910Y-118664508D01*
X124289890Y-118662045D01*
X124289894Y-118662043D01*
X124497864Y-118533347D01*
X124497866Y-118533345D01*
X124501847Y-118530882D01*
X124600228Y-118447597D01*
X124692089Y-118369831D01*
X124692091Y-118369829D01*
X124695662Y-118366806D01*
X124863095Y-118175884D01*
X125000469Y-117962312D01*
X125104767Y-117730780D01*
X125173696Y-117486375D01*
X125205743Y-117234467D01*
X125208091Y-117144800D01*
X125204758Y-117099951D01*
X134482096Y-117099951D01*
X134494280Y-117353598D01*
X134543821Y-117602657D01*
X134545400Y-117607055D01*
X134545402Y-117607062D01*
X134608006Y-117781428D01*
X134629631Y-117841658D01*
X134749825Y-118065351D01*
X134752620Y-118069094D01*
X134752622Y-118069097D01*
X134898971Y-118265082D01*
X134898976Y-118265088D01*
X134901763Y-118268820D01*
X134905072Y-118272100D01*
X134905077Y-118272106D01*
X135003659Y-118369831D01*
X135082107Y-118447597D01*
X135085869Y-118450355D01*
X135085872Y-118450358D01*
X135191564Y-118527854D01*
X135286894Y-118597753D01*
X135291029Y-118599929D01*
X135291033Y-118599931D01*
X135409089Y-118662043D01*
X135511627Y-118715991D01*
X135751368Y-118799712D01*
X136000850Y-118847078D01*
X136121332Y-118851811D01*
X136249925Y-118856864D01*
X136249930Y-118856864D01*
X136254593Y-118857047D01*
X136353574Y-118846207D01*
X136502369Y-118829912D01*
X136502375Y-118829911D01*
X136507022Y-118829402D01*
X136616480Y-118800584D01*
X136748073Y-118765938D01*
X136752593Y-118764748D01*
X136871153Y-118713811D01*
X136981607Y-118666357D01*
X136981610Y-118666355D01*
X136985910Y-118664508D01*
X136989890Y-118662045D01*
X136989894Y-118662043D01*
X137197864Y-118533347D01*
X137197866Y-118533345D01*
X137201847Y-118530882D01*
X137300228Y-118447597D01*
X137392089Y-118369831D01*
X137392091Y-118369829D01*
X137395662Y-118366806D01*
X137563095Y-118175884D01*
X137700469Y-117962312D01*
X137804767Y-117730780D01*
X137873696Y-117486375D01*
X137905743Y-117234467D01*
X137908091Y-117144800D01*
X137889272Y-116891559D01*
X137833228Y-116643882D01*
X137741191Y-116407209D01*
X137720666Y-116371298D01*
X137617502Y-116190797D01*
X137617500Y-116190795D01*
X137615183Y-116186740D01*
X137457971Y-115987317D01*
X137284860Y-115824471D01*
X137276410Y-115816522D01*
X137276408Y-115816520D01*
X137273009Y-115813323D01*
X137229283Y-115782989D01*
X137068193Y-115671237D01*
X137068190Y-115671235D01*
X137064361Y-115668579D01*
X137060184Y-115666519D01*
X137060177Y-115666515D01*
X136840796Y-115558328D01*
X136840792Y-115558327D01*
X136836610Y-115556264D01*
X136594760Y-115478847D01*
X136556340Y-115472590D01*
X136348735Y-115438780D01*
X136348734Y-115438780D01*
X136344123Y-115438029D01*
X136217164Y-115436367D01*
X136094883Y-115434766D01*
X136094880Y-115434766D01*
X136090206Y-115434705D01*
X135838587Y-115468949D01*
X135594793Y-115540008D01*
X135364180Y-115646322D01*
X135360271Y-115648885D01*
X135155728Y-115782989D01*
X135155723Y-115782993D01*
X135151815Y-115785555D01*
X134962362Y-115954648D01*
X134799983Y-116149887D01*
X134668247Y-116366982D01*
X134666438Y-116371296D01*
X134666437Y-116371298D01*
X134575633Y-116587842D01*
X134570046Y-116601165D01*
X134568895Y-116605697D01*
X134568894Y-116605700D01*
X134541711Y-116712734D01*
X134507538Y-116847290D01*
X134482096Y-117099951D01*
X125204758Y-117099951D01*
X125189272Y-116891559D01*
X125133228Y-116643882D01*
X125041191Y-116407209D01*
X125020666Y-116371298D01*
X124917502Y-116190797D01*
X124917500Y-116190795D01*
X124915183Y-116186740D01*
X124757971Y-115987317D01*
X124584860Y-115824471D01*
X124576410Y-115816522D01*
X124576408Y-115816520D01*
X124573009Y-115813323D01*
X124529283Y-115782989D01*
X124368193Y-115671237D01*
X124368190Y-115671235D01*
X124364361Y-115668579D01*
X124360184Y-115666519D01*
X124360177Y-115666515D01*
X124140796Y-115558328D01*
X124140792Y-115558327D01*
X124136610Y-115556264D01*
X123894760Y-115478847D01*
X123856340Y-115472590D01*
X123648735Y-115438780D01*
X123648734Y-115438780D01*
X123644123Y-115438029D01*
X123517164Y-115436367D01*
X123394883Y-115434766D01*
X123394880Y-115434766D01*
X123390206Y-115434705D01*
X123138587Y-115468949D01*
X122894793Y-115540008D01*
X122664180Y-115646322D01*
X122660271Y-115648885D01*
X122455728Y-115782989D01*
X122455723Y-115782993D01*
X122451815Y-115785555D01*
X122262362Y-115954648D01*
X122099983Y-116149887D01*
X121968247Y-116366982D01*
X121966438Y-116371296D01*
X121966437Y-116371298D01*
X121932497Y-116452236D01*
X121887708Y-116507322D01*
X121820248Y-116529448D01*
X121751534Y-116511590D01*
X121703383Y-116459418D01*
X121690300Y-116403510D01*
X121690300Y-46098900D01*
X121710302Y-46030779D01*
X121763958Y-45984286D01*
X121816300Y-45972900D01*
X150370100Y-45972900D01*
X150438221Y-45992902D01*
G37*
%TD.AperFunction*%
%TA.AperFunction,Conductor*%
G36*
X143147994Y-105555502D02*
G01*
X143194487Y-105609158D01*
X143204591Y-105679432D01*
X143194159Y-105714555D01*
X143192425Y-105718289D01*
X143188864Y-105727971D01*
X143133478Y-105927684D01*
X143135001Y-105936108D01*
X143147381Y-105939501D01*
X144597089Y-105939501D01*
X144665210Y-105959503D01*
X144711703Y-106013159D01*
X144723089Y-106065501D01*
X144723089Y-106321501D01*
X144703087Y-106389622D01*
X144649431Y-106436115D01*
X144597089Y-106447501D01*
X143152314Y-106447501D01*
X143138783Y-106451474D01*
X143137346Y-106461467D01*
X143167654Y-106595947D01*
X143170733Y-106605776D01*
X143182639Y-106635096D01*
X143189735Y-106705737D01*
X143157513Y-106769000D01*
X143096204Y-106804801D01*
X143065896Y-106808500D01*
X135388805Y-106808500D01*
X135320684Y-106788498D01*
X135283013Y-106750940D01*
X135194822Y-106614617D01*
X135194820Y-106614614D01*
X135192014Y-106610277D01*
X135041670Y-106445051D01*
X135037619Y-106441852D01*
X135037615Y-106441848D01*
X134870414Y-106309800D01*
X134870410Y-106309798D01*
X134866359Y-106306598D01*
X134825053Y-106283796D01*
X134775084Y-106233364D01*
X134760312Y-106163921D01*
X134785428Y-106097516D01*
X134812780Y-106070909D01*
X134856603Y-106039650D01*
X134991860Y-105943173D01*
X135150096Y-105785489D01*
X135280453Y-105604077D01*
X135282746Y-105599437D01*
X135284446Y-105596608D01*
X135336674Y-105548518D01*
X135392451Y-105535500D01*
X143079873Y-105535500D01*
X143147994Y-105555502D01*
G37*
%TD.AperFunction*%
%TA.AperFunction,Conductor*%
G36*
X130839212Y-87290570D02*
G01*
X130845795Y-87296699D01*
X133354343Y-89805247D01*
X133361887Y-89813537D01*
X133366000Y-89820018D01*
X133371777Y-89825443D01*
X133415667Y-89866658D01*
X133418509Y-89869413D01*
X133438231Y-89889135D01*
X133441373Y-89891572D01*
X133441433Y-89891619D01*
X133450445Y-89899317D01*
X133476036Y-89923347D01*
X133482679Y-89929586D01*
X133489622Y-89933403D01*
X133500431Y-89939345D01*
X133516953Y-89950198D01*
X133532959Y-89962614D01*
X133540237Y-89965764D01*
X133540238Y-89965764D01*
X133573537Y-89980174D01*
X133584187Y-89985391D01*
X133622940Y-90006695D01*
X133630615Y-90008666D01*
X133630616Y-90008666D01*
X133642562Y-90011733D01*
X133661267Y-90018137D01*
X133679855Y-90026181D01*
X133687678Y-90027420D01*
X133687688Y-90027423D01*
X133723524Y-90033099D01*
X133735144Y-90035505D01*
X133770289Y-90044528D01*
X133777970Y-90046500D01*
X133798224Y-90046500D01*
X133817934Y-90048051D01*
X133837943Y-90051220D01*
X133845835Y-90050474D01*
X133881961Y-90047059D01*
X133893819Y-90046500D01*
X134710300Y-90046500D01*
X134778421Y-90066502D01*
X134824914Y-90120158D01*
X134836300Y-90172500D01*
X134836300Y-90260334D01*
X134843055Y-90322516D01*
X134894185Y-90458905D01*
X134981539Y-90575461D01*
X135098095Y-90662815D01*
X135234484Y-90713945D01*
X135296666Y-90720700D01*
X135435300Y-90720700D01*
X135503421Y-90740702D01*
X135549914Y-90794358D01*
X135561300Y-90846700D01*
X135561300Y-92760445D01*
X135560773Y-92771628D01*
X135559098Y-92779121D01*
X135559347Y-92787047D01*
X135559347Y-92787048D01*
X135561238Y-92847198D01*
X135561300Y-92851157D01*
X135561300Y-92879068D01*
X135561797Y-92883002D01*
X135561797Y-92883003D01*
X135561805Y-92883068D01*
X135562738Y-92894905D01*
X135564127Y-92939101D01*
X135569778Y-92958551D01*
X135573787Y-92977912D01*
X135576326Y-92998009D01*
X135579245Y-93005380D01*
X135579245Y-93005382D01*
X135592604Y-93039124D01*
X135596449Y-93050354D01*
X135608782Y-93092805D01*
X135612815Y-93099624D01*
X135612817Y-93099629D01*
X135619093Y-93110240D01*
X135627788Y-93127988D01*
X135635248Y-93146829D01*
X135639910Y-93153245D01*
X135639910Y-93153246D01*
X135661236Y-93182599D01*
X135667752Y-93192519D01*
X135690258Y-93230574D01*
X135704579Y-93244895D01*
X135717419Y-93259928D01*
X135729328Y-93276319D01*
X135735434Y-93281370D01*
X135763405Y-93304510D01*
X135772184Y-93312500D01*
X143118866Y-100659183D01*
X143152892Y-100721495D01*
X143151189Y-100781947D01*
X143130078Y-100858071D01*
X143106340Y-101080196D01*
X143106637Y-101085349D01*
X143106637Y-101085352D01*
X143110543Y-101153097D01*
X143119199Y-101303216D01*
X143120336Y-101308262D01*
X143120337Y-101308268D01*
X143128925Y-101346373D01*
X143168311Y-101521140D01*
X143252355Y-101728117D01*
X143304031Y-101812445D01*
X143366380Y-101914189D01*
X143369076Y-101918589D01*
X143515339Y-102087439D01*
X143687215Y-102230133D01*
X143736677Y-102259036D01*
X143760534Y-102272977D01*
X143809258Y-102324615D01*
X143822329Y-102394398D01*
X143795598Y-102460170D01*
X143755144Y-102493528D01*
X143742696Y-102500008D01*
X143738563Y-102503111D01*
X143738560Y-102503113D01*
X143609536Y-102599987D01*
X143564054Y-102634136D01*
X143548828Y-102650069D01*
X143428010Y-102776498D01*
X143409718Y-102795639D01*
X143283832Y-102980181D01*
X143247042Y-103059438D01*
X143195262Y-103170990D01*
X143189777Y-103182806D01*
X143130078Y-103398071D01*
X143106340Y-103620196D01*
X143106637Y-103625349D01*
X143106637Y-103625352D01*
X143114781Y-103766598D01*
X143119199Y-103843216D01*
X143120336Y-103848262D01*
X143120337Y-103848268D01*
X143128925Y-103886373D01*
X143168311Y-104061140D01*
X143182099Y-104095096D01*
X143189195Y-104165737D01*
X143156973Y-104229001D01*
X143095663Y-104264801D01*
X143065356Y-104268500D01*
X135388805Y-104268500D01*
X135320684Y-104248498D01*
X135283013Y-104210940D01*
X135194822Y-104074617D01*
X135194820Y-104074614D01*
X135192014Y-104070277D01*
X135041670Y-103905051D01*
X135037619Y-103901852D01*
X135037615Y-103901848D01*
X134870414Y-103769800D01*
X134870410Y-103769798D01*
X134866359Y-103766598D01*
X134825053Y-103743796D01*
X134775084Y-103693364D01*
X134760312Y-103623921D01*
X134785428Y-103557516D01*
X134812780Y-103530909D01*
X134856603Y-103499650D01*
X134991860Y-103403173D01*
X135001980Y-103393089D01*
X135146435Y-103249137D01*
X135150096Y-103245489D01*
X135209594Y-103162689D01*
X135277435Y-103068277D01*
X135280453Y-103064077D01*
X135309012Y-103006293D01*
X135377136Y-102868453D01*
X135377137Y-102868451D01*
X135379430Y-102863811D01*
X135430496Y-102695735D01*
X135442865Y-102655023D01*
X135442865Y-102655021D01*
X135444370Y-102650069D01*
X135473529Y-102428590D01*
X135474304Y-102396858D01*
X135475074Y-102365365D01*
X135475074Y-102365361D01*
X135475156Y-102362000D01*
X135456852Y-102139361D01*
X135402431Y-101922702D01*
X135313354Y-101717840D01*
X135192014Y-101530277D01*
X135041670Y-101365051D01*
X135037619Y-101361852D01*
X135037615Y-101361848D01*
X134870414Y-101229800D01*
X134870410Y-101229798D01*
X134866359Y-101226598D01*
X134824569Y-101203529D01*
X134774598Y-101153097D01*
X134759826Y-101083654D01*
X134784942Y-101017248D01*
X134812294Y-100990641D01*
X134987328Y-100865792D01*
X134995200Y-100859139D01*
X135146052Y-100708812D01*
X135152730Y-100700965D01*
X135277003Y-100528020D01*
X135282313Y-100519183D01*
X135376670Y-100328267D01*
X135380469Y-100318672D01*
X135442377Y-100114910D01*
X135444555Y-100104837D01*
X135445986Y-100093962D01*
X135443775Y-100079778D01*
X135430617Y-100076000D01*
X132795225Y-100076000D01*
X132781694Y-100079973D01*
X132780257Y-100089966D01*
X132810565Y-100224446D01*
X132813645Y-100234275D01*
X132893770Y-100431603D01*
X132898413Y-100440794D01*
X133009694Y-100622388D01*
X133015777Y-100630699D01*
X133155213Y-100791667D01*
X133162580Y-100798883D01*
X133326434Y-100934916D01*
X133334881Y-100940831D01*
X133403969Y-100981203D01*
X133452693Y-101032842D01*
X133465764Y-101102625D01*
X133439033Y-101168396D01*
X133398584Y-101201752D01*
X133385607Y-101208507D01*
X133381474Y-101211610D01*
X133381471Y-101211612D01*
X133211100Y-101339530D01*
X133206965Y-101342635D01*
X133052629Y-101504138D01*
X132926743Y-101688680D01*
X132832688Y-101891305D01*
X132772989Y-102106570D01*
X132749251Y-102328695D01*
X132749548Y-102333848D01*
X132749548Y-102333851D01*
X132755011Y-102428590D01*
X132762110Y-102551715D01*
X132763247Y-102556761D01*
X132763248Y-102556767D01*
X132785392Y-102655023D01*
X132811222Y-102769639D01*
X132895266Y-102976616D01*
X133011987Y-103167088D01*
X133158250Y-103335938D01*
X133330126Y-103478632D01*
X133400595Y-103519811D01*
X133403445Y-103521476D01*
X133452169Y-103573114D01*
X133465240Y-103642897D01*
X133438509Y-103708669D01*
X133398055Y-103742027D01*
X133385607Y-103748507D01*
X133381474Y-103751610D01*
X133381471Y-103751612D01*
X133211100Y-103879530D01*
X133206965Y-103882635D01*
X133052629Y-104044138D01*
X132965313Y-104172138D01*
X132910404Y-104217139D01*
X132839879Y-104225310D01*
X132772132Y-104190227D01*
X130667605Y-102085700D01*
X130633579Y-102023388D01*
X130630700Y-101996605D01*
X130630700Y-97248695D01*
X132749251Y-97248695D01*
X132749548Y-97253848D01*
X132749548Y-97253851D01*
X132755011Y-97348590D01*
X132762110Y-97471715D01*
X132763247Y-97476761D01*
X132763248Y-97476767D01*
X132785392Y-97575023D01*
X132811222Y-97689639D01*
X132895266Y-97896616D01*
X133011987Y-98087088D01*
X133158250Y-98255938D01*
X133330126Y-98398632D01*
X133403955Y-98441774D01*
X133452679Y-98493412D01*
X133465750Y-98563195D01*
X133439019Y-98628967D01*
X133398562Y-98662327D01*
X133390457Y-98666546D01*
X133381738Y-98672036D01*
X133211433Y-98799905D01*
X133203726Y-98806748D01*
X133056590Y-98960717D01*
X133050104Y-98968727D01*
X132930098Y-99144649D01*
X132925000Y-99153623D01*
X132835338Y-99346783D01*
X132831775Y-99356470D01*
X132776389Y-99556183D01*
X132777912Y-99564607D01*
X132790292Y-99568000D01*
X135430344Y-99568000D01*
X135443875Y-99564027D01*
X135445180Y-99554947D01*
X135403214Y-99387875D01*
X135399894Y-99378124D01*
X135314972Y-99182814D01*
X135310105Y-99173739D01*
X135194426Y-98994926D01*
X135188136Y-98986757D01*
X135044806Y-98829240D01*
X135037273Y-98822215D01*
X134870139Y-98690222D01*
X134861556Y-98684520D01*
X134824602Y-98664120D01*
X134774631Y-98613687D01*
X134759859Y-98544245D01*
X134784975Y-98477839D01*
X134812327Y-98451232D01*
X134835797Y-98434491D01*
X134991860Y-98323173D01*
X135001980Y-98313089D01*
X135146435Y-98169137D01*
X135150096Y-98165489D01*
X135180145Y-98123672D01*
X135277435Y-97988277D01*
X135280453Y-97984077D01*
X135305158Y-97934091D01*
X135377136Y-97788453D01*
X135377137Y-97788451D01*
X135379430Y-97783811D01*
X135444370Y-97570069D01*
X135473529Y-97348590D01*
X135474304Y-97316858D01*
X135475074Y-97285365D01*
X135475074Y-97285361D01*
X135475156Y-97282000D01*
X135456852Y-97059361D01*
X135402431Y-96842702D01*
X135313354Y-96637840D01*
X135192014Y-96450277D01*
X135041670Y-96285051D01*
X135037619Y-96281852D01*
X135037615Y-96281848D01*
X134870414Y-96149800D01*
X134870410Y-96149798D01*
X134866359Y-96146598D01*
X134670789Y-96038638D01*
X134665920Y-96036914D01*
X134665916Y-96036912D01*
X134465087Y-95965795D01*
X134465083Y-95965794D01*
X134460212Y-95964069D01*
X134455119Y-95963162D01*
X134455116Y-95963161D01*
X134245373Y-95925800D01*
X134245367Y-95925799D01*
X134240284Y-95924894D01*
X134166452Y-95923992D01*
X134022081Y-95922228D01*
X134022079Y-95922228D01*
X134016911Y-95922165D01*
X133796091Y-95955955D01*
X133583756Y-96025357D01*
X133553443Y-96041137D01*
X133440194Y-96100091D01*
X133385607Y-96128507D01*
X133381474Y-96131610D01*
X133381471Y-96131612D01*
X133211100Y-96259530D01*
X133206965Y-96262635D01*
X133203393Y-96266373D01*
X133124177Y-96349268D01*
X133052629Y-96424138D01*
X132926743Y-96608680D01*
X132911003Y-96642590D01*
X132865890Y-96739778D01*
X132832688Y-96811305D01*
X132772989Y-97026570D01*
X132749251Y-97248695D01*
X130630700Y-97248695D01*
X130630700Y-87385794D01*
X130650702Y-87317673D01*
X130704358Y-87271180D01*
X130774632Y-87261076D01*
X130839212Y-87290570D01*
G37*
%TD.AperFunction*%
%TA.AperFunction,Conductor*%
G36*
X143121817Y-73575054D02*
G01*
X143178653Y-73617601D01*
X143194528Y-73645706D01*
X143250411Y-73783330D01*
X143252355Y-73788117D01*
X143369076Y-73978589D01*
X143515339Y-74147439D01*
X143687215Y-74290133D01*
X143715647Y-74306747D01*
X143760534Y-74332977D01*
X143809258Y-74384615D01*
X143822329Y-74454398D01*
X143795598Y-74520170D01*
X143755144Y-74553528D01*
X143742696Y-74560008D01*
X143738563Y-74563111D01*
X143738560Y-74563113D01*
X143568189Y-74691031D01*
X143564054Y-74694136D01*
X143409718Y-74855639D01*
X143283832Y-75040181D01*
X143259671Y-75092231D01*
X143193156Y-75235527D01*
X143189777Y-75242806D01*
X143130078Y-75458071D01*
X143106340Y-75680196D01*
X143106637Y-75685349D01*
X143106637Y-75685352D01*
X143118831Y-75896831D01*
X143119199Y-75903216D01*
X143120336Y-75908262D01*
X143120337Y-75908268D01*
X143142141Y-76005015D01*
X143168311Y-76121140D01*
X143252355Y-76328117D01*
X143300553Y-76406770D01*
X143366380Y-76514189D01*
X143369076Y-76518589D01*
X143515339Y-76687439D01*
X143654357Y-76802854D01*
X143673295Y-76818576D01*
X143687215Y-76830133D01*
X143724491Y-76851915D01*
X143760534Y-76872977D01*
X143809258Y-76924615D01*
X143822329Y-76994398D01*
X143795598Y-77060170D01*
X143755144Y-77093528D01*
X143742696Y-77100008D01*
X143738563Y-77103111D01*
X143738560Y-77103113D01*
X143568189Y-77231031D01*
X143564054Y-77234136D01*
X143409718Y-77395639D01*
X143283832Y-77580181D01*
X143268092Y-77614091D01*
X143193156Y-77775527D01*
X143189777Y-77782806D01*
X143130078Y-77998071D01*
X143106340Y-78220196D01*
X143119199Y-78443216D01*
X143120336Y-78448262D01*
X143120337Y-78448268D01*
X143141364Y-78541570D01*
X143168311Y-78661140D01*
X143252355Y-78868117D01*
X143300553Y-78946770D01*
X143366380Y-79054189D01*
X143369076Y-79058589D01*
X143515339Y-79227439D01*
X143687215Y-79370133D01*
X143715647Y-79386747D01*
X143760534Y-79412977D01*
X143809258Y-79464615D01*
X143822329Y-79534398D01*
X143795598Y-79600170D01*
X143755144Y-79633528D01*
X143742696Y-79640008D01*
X143738563Y-79643111D01*
X143738560Y-79643113D01*
X143714336Y-79661301D01*
X143564054Y-79774136D01*
X143409718Y-79935639D01*
X143283832Y-80120181D01*
X143268092Y-80154091D01*
X143193156Y-80315527D01*
X143189777Y-80322806D01*
X143130078Y-80538071D01*
X143106340Y-80760196D01*
X143119199Y-80983216D01*
X143120336Y-80988262D01*
X143120337Y-80988268D01*
X143141364Y-81081570D01*
X143168311Y-81201140D01*
X143252355Y-81408117D01*
X143300553Y-81486770D01*
X143366380Y-81594189D01*
X143369076Y-81598589D01*
X143515339Y-81767439D01*
X143687215Y-81910133D01*
X143715647Y-81926747D01*
X143760534Y-81952977D01*
X143809258Y-82004615D01*
X143822329Y-82074398D01*
X143795598Y-82140170D01*
X143755144Y-82173528D01*
X143742696Y-82180008D01*
X143738563Y-82183111D01*
X143738560Y-82183113D01*
X143714336Y-82201301D01*
X143564054Y-82314136D01*
X143409718Y-82475639D01*
X143283832Y-82660181D01*
X143268092Y-82694091D01*
X143193156Y-82855527D01*
X143189777Y-82862806D01*
X143130078Y-83078071D01*
X143106340Y-83300196D01*
X143119199Y-83523216D01*
X143120336Y-83528262D01*
X143120337Y-83528268D01*
X143141364Y-83621570D01*
X143168311Y-83741140D01*
X143252355Y-83948117D01*
X143300553Y-84026770D01*
X143366380Y-84134189D01*
X143369076Y-84138589D01*
X143515339Y-84307439D01*
X143687215Y-84450133D01*
X143715647Y-84466747D01*
X143760534Y-84492977D01*
X143809258Y-84544615D01*
X143822329Y-84614398D01*
X143795598Y-84680170D01*
X143755144Y-84713528D01*
X143742696Y-84720008D01*
X143738563Y-84723111D01*
X143738560Y-84723113D01*
X143714336Y-84741301D01*
X143564054Y-84854136D01*
X143409718Y-85015639D01*
X143283832Y-85200181D01*
X143268092Y-85234091D01*
X143193156Y-85395527D01*
X143189777Y-85402806D01*
X143130078Y-85618071D01*
X143106340Y-85840196D01*
X143106637Y-85845349D01*
X143106637Y-85845352D01*
X143118285Y-86047367D01*
X143119199Y-86063216D01*
X143120336Y-86068262D01*
X143120337Y-86068268D01*
X143141364Y-86161570D01*
X143168311Y-86281140D01*
X143252355Y-86488117D01*
X143300553Y-86566770D01*
X143366380Y-86674189D01*
X143369076Y-86678589D01*
X143515339Y-86847439D01*
X143687215Y-86990133D01*
X143715647Y-87006747D01*
X143760534Y-87032977D01*
X143809258Y-87084615D01*
X143822329Y-87154398D01*
X143795598Y-87220170D01*
X143755144Y-87253528D01*
X143742696Y-87260008D01*
X143738563Y-87263111D01*
X143738560Y-87263113D01*
X143568189Y-87391031D01*
X143564054Y-87394136D01*
X143409718Y-87555639D01*
X143283832Y-87740181D01*
X143189777Y-87942806D01*
X143130078Y-88158071D01*
X143106340Y-88380196D01*
X143119199Y-88603216D01*
X143120336Y-88608262D01*
X143120337Y-88608268D01*
X143130531Y-88653500D01*
X143168311Y-88821140D01*
X143252355Y-89028117D01*
X143303108Y-89110939D01*
X143366380Y-89214189D01*
X143369076Y-89218589D01*
X143515339Y-89387439D01*
X143687215Y-89530133D01*
X143757684Y-89571312D01*
X143760534Y-89572977D01*
X143809258Y-89624615D01*
X143822329Y-89694398D01*
X143795598Y-89760170D01*
X143755144Y-89793528D01*
X143742696Y-89800008D01*
X143738563Y-89803111D01*
X143738560Y-89803113D01*
X143577339Y-89924161D01*
X143564054Y-89934136D01*
X143560482Y-89937874D01*
X143489901Y-90011733D01*
X143409718Y-90095639D01*
X143283832Y-90280181D01*
X143189777Y-90482806D01*
X143130078Y-90698071D01*
X143106340Y-90920196D01*
X143119199Y-91143216D01*
X143120336Y-91148262D01*
X143120337Y-91148268D01*
X143141364Y-91241570D01*
X143168311Y-91361140D01*
X143252355Y-91568117D01*
X143303108Y-91650939D01*
X143366380Y-91754189D01*
X143369076Y-91758589D01*
X143515339Y-91927439D01*
X143687215Y-92070133D01*
X143757684Y-92111312D01*
X143760534Y-92112977D01*
X143809258Y-92164615D01*
X143822329Y-92234398D01*
X143795598Y-92300170D01*
X143755144Y-92333528D01*
X143742696Y-92340008D01*
X143738563Y-92343111D01*
X143738560Y-92343113D01*
X143714336Y-92361301D01*
X143564054Y-92474136D01*
X143409718Y-92635639D01*
X143283832Y-92820181D01*
X143189777Y-93022806D01*
X143130078Y-93238071D01*
X143106340Y-93460196D01*
X143119199Y-93683216D01*
X143120336Y-93688262D01*
X143120337Y-93688268D01*
X143141364Y-93781570D01*
X143168311Y-93901140D01*
X143252355Y-94108117D01*
X143303108Y-94190939D01*
X143366380Y-94294189D01*
X143369076Y-94298589D01*
X143515339Y-94467439D01*
X143687215Y-94610133D01*
X143757684Y-94651312D01*
X143760534Y-94652977D01*
X143809258Y-94704615D01*
X143822329Y-94774398D01*
X143795598Y-94840170D01*
X143755144Y-94873528D01*
X143742696Y-94880008D01*
X143738563Y-94883111D01*
X143738560Y-94883113D01*
X143714336Y-94901301D01*
X143564054Y-95014136D01*
X143409718Y-95175639D01*
X143283832Y-95360181D01*
X143189777Y-95562806D01*
X143130078Y-95778071D01*
X143106340Y-96000196D01*
X143106637Y-96005349D01*
X143106637Y-96005352D01*
X143112100Y-96100091D01*
X143119199Y-96223216D01*
X143120336Y-96228262D01*
X143120337Y-96228268D01*
X143128925Y-96266373D01*
X143168311Y-96441140D01*
X143252355Y-96648117D01*
X143303108Y-96730939D01*
X143366380Y-96834189D01*
X143369076Y-96838589D01*
X143515339Y-97007439D01*
X143687215Y-97150133D01*
X143757684Y-97191312D01*
X143760534Y-97192977D01*
X143809258Y-97244615D01*
X143822329Y-97314398D01*
X143795598Y-97380170D01*
X143755144Y-97413528D01*
X143742696Y-97420008D01*
X143738563Y-97423111D01*
X143738560Y-97423113D01*
X143568189Y-97551031D01*
X143564054Y-97554136D01*
X143548828Y-97570069D01*
X143429991Y-97694425D01*
X143409718Y-97715639D01*
X143283832Y-97900181D01*
X143268092Y-97934091D01*
X143195262Y-98090990D01*
X143189777Y-98102806D01*
X143130078Y-98318071D01*
X143106340Y-98540196D01*
X143106637Y-98545354D01*
X143106511Y-98550525D01*
X143105003Y-98550488D01*
X143090499Y-98612986D01*
X143039607Y-98662489D01*
X142970031Y-98676619D01*
X142903860Y-98650890D01*
X142891663Y-98640171D01*
X139959883Y-95708390D01*
X136865205Y-92613712D01*
X136831179Y-92551400D01*
X136828300Y-92524617D01*
X136828300Y-90846700D01*
X136848302Y-90778579D01*
X136901958Y-90732086D01*
X136954300Y-90720700D01*
X137092934Y-90720700D01*
X137155116Y-90713945D01*
X137291505Y-90662815D01*
X137408061Y-90575461D01*
X137495415Y-90458905D01*
X137546545Y-90322516D01*
X137553300Y-90260334D01*
X137553300Y-88464066D01*
X137546545Y-88401884D01*
X137495415Y-88265495D01*
X137408061Y-88148939D01*
X137291505Y-88061585D01*
X137278932Y-88056872D01*
X137173003Y-88017160D01*
X137116239Y-87974518D01*
X137091539Y-87907956D01*
X137106747Y-87838608D01*
X137128293Y-87809927D01*
X137146051Y-87792231D01*
X137232896Y-87705689D01*
X137292394Y-87622889D01*
X137360235Y-87528477D01*
X137363253Y-87524277D01*
X137427573Y-87394136D01*
X137459936Y-87328653D01*
X137459937Y-87328651D01*
X137462230Y-87324011D01*
X137527170Y-87110269D01*
X137556329Y-86888790D01*
X137557259Y-86850741D01*
X137557874Y-86825565D01*
X137557874Y-86825561D01*
X137557956Y-86822200D01*
X137539652Y-86599561D01*
X137521819Y-86528566D01*
X137524623Y-86457626D01*
X137554928Y-86408776D01*
X137761558Y-86202146D01*
X137769848Y-86194602D01*
X137776329Y-86190489D01*
X137822970Y-86140821D01*
X137825724Y-86137980D01*
X137845445Y-86118259D01*
X137847923Y-86115064D01*
X137855629Y-86106042D01*
X137880469Y-86079590D01*
X137885897Y-86073810D01*
X137895657Y-86056057D01*
X137906510Y-86039534D01*
X137914064Y-86029795D01*
X137918924Y-86023530D01*
X137936487Y-85982946D01*
X137941694Y-85972316D01*
X137963006Y-85933549D01*
X137964977Y-85925872D01*
X137964979Y-85925867D01*
X137968043Y-85913931D01*
X137974449Y-85895219D01*
X137979345Y-85883906D01*
X137982492Y-85876634D01*
X137988264Y-85840196D01*
X137989408Y-85832970D01*
X137991815Y-85821349D01*
X138000839Y-85786200D01*
X138000839Y-85786199D01*
X138002811Y-85778519D01*
X138002811Y-85758258D01*
X138004362Y-85738547D01*
X138006290Y-85726374D01*
X138007530Y-85718546D01*
X138003370Y-85674535D01*
X138002811Y-85662678D01*
X138002811Y-78642083D01*
X138022813Y-78573962D01*
X138039716Y-78552988D01*
X142988690Y-73604015D01*
X143051002Y-73569989D01*
X143121817Y-73575054D01*
G37*
%TD.AperFunction*%
%TA.AperFunction,Conductor*%
G36*
X135580430Y-56928001D02*
G01*
X137066458Y-58414029D01*
X137072312Y-58420294D01*
X137110340Y-58463886D01*
X137162630Y-58500637D01*
X137167872Y-58504529D01*
X137218183Y-58543977D01*
X137225102Y-58547101D01*
X137227394Y-58548489D01*
X137242066Y-58556858D01*
X137244426Y-58558123D01*
X137250640Y-58562491D01*
X137257719Y-58565251D01*
X137257721Y-58565252D01*
X137310176Y-58585703D01*
X137316245Y-58588254D01*
X137374474Y-58614546D01*
X137381947Y-58615931D01*
X137384513Y-58616735D01*
X137400736Y-58621356D01*
X137403328Y-58622021D01*
X137410410Y-58624783D01*
X137417945Y-58625775D01*
X137473762Y-58633123D01*
X137480278Y-58634155D01*
X137487956Y-58635578D01*
X137543087Y-58645796D01*
X137550667Y-58645359D01*
X137550668Y-58645359D01*
X137605281Y-58642210D01*
X137612534Y-58642001D01*
X142984589Y-58642001D01*
X143052710Y-58662003D01*
X143099203Y-58715659D01*
X143110589Y-58768001D01*
X143110589Y-58831635D01*
X143117344Y-58893817D01*
X143168474Y-59030206D01*
X143255828Y-59146762D01*
X143372384Y-59234116D01*
X143380793Y-59237268D01*
X143380794Y-59237269D01*
X143489540Y-59278036D01*
X143546305Y-59320677D01*
X143571005Y-59387239D01*
X143555798Y-59456588D01*
X143536405Y-59483069D01*
X143409718Y-59615639D01*
X143406809Y-59619904D01*
X143406803Y-59619912D01*
X143335752Y-59724069D01*
X143283832Y-59800181D01*
X143263660Y-59843639D01*
X143219947Y-59937811D01*
X143189777Y-60002806D01*
X143130078Y-60218071D01*
X143106340Y-60440196D01*
X143106637Y-60445349D01*
X143106637Y-60445352D01*
X143112100Y-60540091D01*
X143119199Y-60663216D01*
X143120336Y-60668262D01*
X143120337Y-60668268D01*
X143131851Y-60719357D01*
X143168311Y-60881140D01*
X143252355Y-61088117D01*
X143255055Y-61092523D01*
X143255057Y-61092527D01*
X143332209Y-61218429D01*
X143350747Y-61286962D01*
X143329290Y-61354639D01*
X143313871Y-61373358D01*
X135714280Y-68972950D01*
X135708015Y-68978804D01*
X135664415Y-69016839D01*
X135660048Y-69023053D01*
X135627672Y-69069119D01*
X135623739Y-69074414D01*
X135584324Y-69124682D01*
X135581201Y-69131598D01*
X135579817Y-69133884D01*
X135571443Y-69148565D01*
X135570178Y-69150925D01*
X135565810Y-69157139D01*
X135563050Y-69164218D01*
X135563049Y-69164220D01*
X135542598Y-69216675D01*
X135540047Y-69222744D01*
X135513755Y-69280973D01*
X135512371Y-69288440D01*
X135511570Y-69290995D01*
X135506941Y-69307248D01*
X135506278Y-69309828D01*
X135503518Y-69316909D01*
X135495950Y-69374398D01*
X135495179Y-69380252D01*
X135494148Y-69386759D01*
X135482504Y-69449586D01*
X135482941Y-69457166D01*
X135482941Y-69457167D01*
X135486091Y-69511792D01*
X135486300Y-69519046D01*
X135486300Y-72892314D01*
X135466298Y-72960435D01*
X135435953Y-72993074D01*
X135289765Y-73102835D01*
X135135429Y-73264338D01*
X135009543Y-73448880D01*
X134993803Y-73482790D01*
X134918180Y-73645706D01*
X134915488Y-73651505D01*
X134855789Y-73866770D01*
X134832051Y-74088895D01*
X134832348Y-74094048D01*
X134832348Y-74094051D01*
X134843654Y-74290133D01*
X134844910Y-74311915D01*
X134846047Y-74316961D01*
X134846048Y-74316967D01*
X134858872Y-74373868D01*
X134894022Y-74529839D01*
X134978066Y-74736816D01*
X134980765Y-74741220D01*
X135050881Y-74855639D01*
X135094787Y-74927288D01*
X135241050Y-75096138D01*
X135412926Y-75238832D01*
X135419727Y-75242806D01*
X135486245Y-75281676D01*
X135534969Y-75333314D01*
X135548040Y-75403097D01*
X135521309Y-75468869D01*
X135480855Y-75502227D01*
X135468407Y-75508707D01*
X135464274Y-75511810D01*
X135464271Y-75511812D01*
X135293900Y-75639730D01*
X135289765Y-75642835D01*
X135135429Y-75804338D01*
X135009543Y-75988880D01*
X134997774Y-76014234D01*
X134923403Y-76174454D01*
X134915488Y-76191505D01*
X134855789Y-76406770D01*
X134832051Y-76628895D01*
X134832348Y-76634048D01*
X134832348Y-76634051D01*
X134843654Y-76830133D01*
X134844910Y-76851915D01*
X134846047Y-76856961D01*
X134846048Y-76856967D01*
X134865401Y-76942839D01*
X134894022Y-77069839D01*
X134978066Y-77276816D01*
X134980765Y-77281220D01*
X135066899Y-77421778D01*
X135094787Y-77467288D01*
X135241050Y-77636138D01*
X135412926Y-77778832D01*
X135482047Y-77819223D01*
X135486245Y-77821676D01*
X135534969Y-77873314D01*
X135548040Y-77943097D01*
X135521309Y-78008869D01*
X135480855Y-78042227D01*
X135468407Y-78048707D01*
X135464274Y-78051810D01*
X135464271Y-78051812D01*
X135293900Y-78179730D01*
X135289765Y-78182835D01*
X135135429Y-78344338D01*
X135009543Y-78528880D01*
X134915488Y-78731505D01*
X134855789Y-78946770D01*
X134832051Y-79168895D01*
X134832348Y-79174048D01*
X134832348Y-79174051D01*
X134843654Y-79370133D01*
X134844910Y-79391915D01*
X134846047Y-79396961D01*
X134846048Y-79396967D01*
X134861294Y-79464615D01*
X134894022Y-79609839D01*
X134978066Y-79816816D01*
X134980765Y-79821220D01*
X135066899Y-79961778D01*
X135094787Y-80007288D01*
X135241050Y-80176138D01*
X135412926Y-80318832D01*
X135482047Y-80359223D01*
X135486245Y-80361676D01*
X135534969Y-80413314D01*
X135548040Y-80483097D01*
X135521309Y-80548869D01*
X135480855Y-80582227D01*
X135468407Y-80588707D01*
X135464274Y-80591810D01*
X135464271Y-80591812D01*
X135293900Y-80719730D01*
X135289765Y-80722835D01*
X135135429Y-80884338D01*
X135009543Y-81068880D01*
X134915488Y-81271505D01*
X134855789Y-81486770D01*
X134832051Y-81708895D01*
X134832348Y-81714048D01*
X134832348Y-81714051D01*
X134843654Y-81910133D01*
X134844910Y-81931915D01*
X134846047Y-81936961D01*
X134846048Y-81936967D01*
X134861294Y-82004615D01*
X134894022Y-82149839D01*
X134978066Y-82356816D01*
X134980765Y-82361220D01*
X135066899Y-82501778D01*
X135094787Y-82547288D01*
X135241050Y-82716138D01*
X135412926Y-82858832D01*
X135482047Y-82899223D01*
X135486245Y-82901676D01*
X135534969Y-82953314D01*
X135548040Y-83023097D01*
X135521309Y-83088869D01*
X135480855Y-83122227D01*
X135468407Y-83128707D01*
X135464274Y-83131810D01*
X135464271Y-83131812D01*
X135293900Y-83259730D01*
X135289765Y-83262835D01*
X135135429Y-83424338D01*
X135009543Y-83608880D01*
X134915488Y-83811505D01*
X134855789Y-84026770D01*
X134832051Y-84248895D01*
X134832348Y-84254048D01*
X134832348Y-84254051D01*
X134843654Y-84450133D01*
X134844910Y-84471915D01*
X134846047Y-84476961D01*
X134846048Y-84476967D01*
X134861294Y-84544615D01*
X134894022Y-84689839D01*
X134978066Y-84896816D01*
X134980765Y-84901220D01*
X135066899Y-85041778D01*
X135094787Y-85087288D01*
X135241050Y-85256138D01*
X135412926Y-85398832D01*
X135482047Y-85439223D01*
X135486245Y-85441676D01*
X135534969Y-85493314D01*
X135548040Y-85563097D01*
X135521309Y-85628869D01*
X135480855Y-85662227D01*
X135468407Y-85668707D01*
X135464274Y-85671810D01*
X135464271Y-85671812D01*
X135293900Y-85799730D01*
X135289765Y-85802835D01*
X135135429Y-85964338D01*
X135132515Y-85968610D01*
X135132514Y-85968611D01*
X135100014Y-86016254D01*
X135009543Y-86148880D01*
X134915488Y-86351505D01*
X134855789Y-86566770D01*
X134832051Y-86788895D01*
X134832348Y-86794048D01*
X134832348Y-86794051D01*
X134843654Y-86990133D01*
X134844910Y-87011915D01*
X134846047Y-87016961D01*
X134846048Y-87016967D01*
X134860867Y-87082722D01*
X134894022Y-87229839D01*
X134978066Y-87436816D01*
X134980765Y-87441220D01*
X135066899Y-87581778D01*
X135094787Y-87627288D01*
X135241050Y-87796138D01*
X135245030Y-87799442D01*
X135249781Y-87803387D01*
X135289416Y-87862290D01*
X135290913Y-87933271D01*
X135253797Y-87993793D01*
X135213524Y-88018312D01*
X135098095Y-88061585D01*
X134981539Y-88148939D01*
X134894185Y-88265495D01*
X134843055Y-88401884D01*
X134836300Y-88464066D01*
X134836300Y-88653500D01*
X134816298Y-88721621D01*
X134762642Y-88768114D01*
X134710300Y-88779500D01*
X134172594Y-88779500D01*
X134104473Y-88759498D01*
X134083499Y-88742595D01*
X131734405Y-86393500D01*
X131700379Y-86331188D01*
X131697500Y-86304405D01*
X131697500Y-67950669D01*
X132652401Y-67950669D01*
X132652771Y-67957490D01*
X132658295Y-68008352D01*
X132661921Y-68023604D01*
X132707076Y-68144054D01*
X132715614Y-68159649D01*
X132792115Y-68261724D01*
X132804676Y-68274285D01*
X132906751Y-68350786D01*
X132922346Y-68359324D01*
X133042794Y-68404478D01*
X133058049Y-68408105D01*
X133108914Y-68413631D01*
X133115728Y-68414000D01*
X133738285Y-68414000D01*
X133753524Y-68409525D01*
X133754729Y-68408135D01*
X133756400Y-68400452D01*
X133756400Y-68395884D01*
X134264400Y-68395884D01*
X134268875Y-68411123D01*
X134270265Y-68412328D01*
X134277948Y-68413999D01*
X134905069Y-68413999D01*
X134911890Y-68413629D01*
X134962752Y-68408105D01*
X134978004Y-68404479D01*
X135098454Y-68359324D01*
X135114049Y-68350786D01*
X135216124Y-68274285D01*
X135228685Y-68261724D01*
X135305186Y-68159649D01*
X135313724Y-68144054D01*
X135358878Y-68023606D01*
X135362505Y-68008351D01*
X135368031Y-67957486D01*
X135368400Y-67950672D01*
X135368400Y-67328115D01*
X135363925Y-67312876D01*
X135362535Y-67311671D01*
X135354852Y-67310000D01*
X134282515Y-67310000D01*
X134267276Y-67314475D01*
X134266071Y-67315865D01*
X134264400Y-67323548D01*
X134264400Y-68395884D01*
X133756400Y-68395884D01*
X133756400Y-67328115D01*
X133751925Y-67312876D01*
X133750535Y-67311671D01*
X133742852Y-67310000D01*
X132670516Y-67310000D01*
X132655277Y-67314475D01*
X132654072Y-67315865D01*
X132652401Y-67323548D01*
X132652401Y-67950669D01*
X131697500Y-67950669D01*
X131697500Y-67776994D01*
X131717502Y-67708873D01*
X131734405Y-67687899D01*
X132583399Y-66838905D01*
X132645711Y-66804879D01*
X132672494Y-66802000D01*
X135350284Y-66802000D01*
X135365523Y-66797525D01*
X135366728Y-66796135D01*
X135368399Y-66788452D01*
X135368399Y-66161331D01*
X135368029Y-66154510D01*
X135362505Y-66103648D01*
X135358879Y-66088396D01*
X135313724Y-65967946D01*
X135305186Y-65952351D01*
X135228685Y-65850276D01*
X135216124Y-65837715D01*
X135114049Y-65761214D01*
X135098454Y-65752676D01*
X134988213Y-65711348D01*
X134931449Y-65668706D01*
X134906749Y-65602145D01*
X134921957Y-65532796D01*
X134943504Y-65504115D01*
X135044830Y-65403144D01*
X135044840Y-65403132D01*
X135048496Y-65399489D01*
X135178853Y-65218077D01*
X135243241Y-65087798D01*
X135275536Y-65022453D01*
X135275537Y-65022451D01*
X135277830Y-65017811D01*
X135327701Y-64853668D01*
X135341265Y-64809023D01*
X135341265Y-64809021D01*
X135342770Y-64804069D01*
X135371929Y-64582590D01*
X135372565Y-64556552D01*
X135373474Y-64519365D01*
X135373474Y-64519361D01*
X135373556Y-64516000D01*
X135355252Y-64293361D01*
X135300831Y-64076702D01*
X135211754Y-63871840D01*
X135172306Y-63810862D01*
X135093222Y-63688617D01*
X135093220Y-63688614D01*
X135090414Y-63684277D01*
X134940070Y-63519051D01*
X134936019Y-63515852D01*
X134936015Y-63515848D01*
X134768814Y-63383800D01*
X134768810Y-63383798D01*
X134764759Y-63380598D01*
X134723453Y-63357796D01*
X134673484Y-63307364D01*
X134658712Y-63237921D01*
X134683828Y-63171516D01*
X134711180Y-63144909D01*
X134797400Y-63083409D01*
X134890260Y-63017173D01*
X135048496Y-62859489D01*
X135178853Y-62678077D01*
X135227711Y-62579221D01*
X135275536Y-62482453D01*
X135275537Y-62482451D01*
X135277830Y-62477811D01*
X135342770Y-62264069D01*
X135371929Y-62042590D01*
X135372565Y-62016552D01*
X135373474Y-61979365D01*
X135373474Y-61979361D01*
X135373556Y-61976000D01*
X135355252Y-61753361D01*
X135300831Y-61536702D01*
X135211754Y-61331840D01*
X135110664Y-61175578D01*
X135093222Y-61148617D01*
X135093220Y-61148614D01*
X135090414Y-61144277D01*
X134940070Y-60979051D01*
X134936019Y-60975852D01*
X134936015Y-60975848D01*
X134768814Y-60843800D01*
X134768810Y-60843798D01*
X134764759Y-60840598D01*
X134723453Y-60817796D01*
X134673484Y-60767364D01*
X134658712Y-60697921D01*
X134683828Y-60631516D01*
X134711180Y-60604909D01*
X134755003Y-60573650D01*
X134890260Y-60477173D01*
X134922193Y-60445352D01*
X135044835Y-60323137D01*
X135048496Y-60319489D01*
X135107994Y-60236689D01*
X135175835Y-60142277D01*
X135178853Y-60138077D01*
X135227711Y-60039221D01*
X135275536Y-59942453D01*
X135275537Y-59942451D01*
X135277830Y-59937811D01*
X135321208Y-59795039D01*
X135341265Y-59729023D01*
X135341265Y-59729021D01*
X135342770Y-59724069D01*
X135371929Y-59502590D01*
X135372565Y-59476552D01*
X135373474Y-59439365D01*
X135373474Y-59439361D01*
X135373556Y-59436000D01*
X135355252Y-59213361D01*
X135300831Y-58996702D01*
X135211754Y-58791840D01*
X135109354Y-58633554D01*
X135093222Y-58608617D01*
X135093220Y-58608614D01*
X135090414Y-58604277D01*
X134940070Y-58439051D01*
X134936019Y-58435852D01*
X134936015Y-58435848D01*
X134768814Y-58303800D01*
X134768810Y-58303798D01*
X134764759Y-58300598D01*
X134722969Y-58277529D01*
X134672998Y-58227097D01*
X134658226Y-58157654D01*
X134683342Y-58091248D01*
X134710694Y-58064641D01*
X134885728Y-57939792D01*
X134893600Y-57933139D01*
X135044452Y-57782812D01*
X135051130Y-57774965D01*
X135175403Y-57602020D01*
X135180713Y-57593183D01*
X135275070Y-57402267D01*
X135278869Y-57392672D01*
X135340776Y-57188915D01*
X135342955Y-57178834D01*
X135366413Y-57000650D01*
X135395135Y-56935723D01*
X135454400Y-56896631D01*
X135525392Y-56895786D01*
X135580430Y-56928001D01*
G37*
%TD.AperFunction*%
%TA.AperFunction,Conductor*%
G36*
X143084594Y-70929342D02*
G01*
X143141430Y-70971889D01*
X143163478Y-71019695D01*
X143168311Y-71041140D01*
X143252355Y-71248117D01*
X143255058Y-71252527D01*
X143255059Y-71252530D01*
X143314604Y-71349699D01*
X143333143Y-71418232D01*
X143311687Y-71485909D01*
X143296267Y-71504629D01*
X137740112Y-77060783D01*
X137677800Y-77094809D01*
X137606985Y-77089744D01*
X137550149Y-77047197D01*
X137525338Y-76980677D01*
X137527491Y-76950311D01*
X137527170Y-76950269D01*
X137549737Y-76778857D01*
X137556329Y-76728790D01*
X137557315Y-76688435D01*
X137557874Y-76665565D01*
X137557874Y-76665561D01*
X137557956Y-76662200D01*
X137539652Y-76439561D01*
X137540576Y-76439485D01*
X137548603Y-76373764D01*
X137575209Y-76334561D01*
X142951467Y-70958303D01*
X143013779Y-70924277D01*
X143084594Y-70929342D01*
G37*
%TD.AperFunction*%
%TA.AperFunction,Conductor*%
G36*
X143200537Y-63594799D02*
G01*
X143257373Y-63637346D01*
X143263938Y-63647020D01*
X143308964Y-63720495D01*
X143369076Y-63818589D01*
X143515339Y-63987439D01*
X143687215Y-64130133D01*
X143757684Y-64171312D01*
X143760534Y-64172977D01*
X143809258Y-64224615D01*
X143822329Y-64294398D01*
X143795598Y-64360170D01*
X143755144Y-64393528D01*
X143742696Y-64400008D01*
X143738563Y-64403111D01*
X143738560Y-64403113D01*
X143583727Y-64519365D01*
X143564054Y-64534136D01*
X143409718Y-64695639D01*
X143406809Y-64699904D01*
X143406803Y-64699912D01*
X143335752Y-64804069D01*
X143283832Y-64880181D01*
X143267389Y-64915604D01*
X143219947Y-65017811D01*
X143189777Y-65082806D01*
X143130078Y-65298071D01*
X143106340Y-65520196D01*
X143106637Y-65525349D01*
X143106637Y-65525352D01*
X143117595Y-65715398D01*
X143119199Y-65743216D01*
X143120336Y-65748262D01*
X143120337Y-65748268D01*
X143143122Y-65849368D01*
X143168311Y-65961140D01*
X143200812Y-66041181D01*
X143249600Y-66161331D01*
X143252355Y-66168117D01*
X143369076Y-66358589D01*
X143515339Y-66527439D01*
X143687215Y-66670133D01*
X143730805Y-66695605D01*
X143760534Y-66712977D01*
X143809258Y-66764615D01*
X143822329Y-66834398D01*
X143795598Y-66900170D01*
X143755144Y-66933528D01*
X143742696Y-66940008D01*
X143738563Y-66943111D01*
X143738560Y-66943113D01*
X143664941Y-66998388D01*
X143564054Y-67074136D01*
X143409718Y-67235639D01*
X143406804Y-67239911D01*
X143406803Y-67239912D01*
X143349751Y-67323548D01*
X143283832Y-67420181D01*
X143189777Y-67622806D01*
X143130078Y-67838071D01*
X143106340Y-68060196D01*
X143106637Y-68065349D01*
X143106637Y-68065352D01*
X143112074Y-68159649D01*
X143119199Y-68283216D01*
X143120336Y-68288262D01*
X143120337Y-68288268D01*
X143134427Y-68350786D01*
X143168311Y-68501140D01*
X143204539Y-68590358D01*
X143205140Y-68591839D01*
X143212236Y-68662480D01*
X143177492Y-68728338D01*
X137767479Y-74138351D01*
X137705167Y-74172377D01*
X137634352Y-74167312D01*
X137577516Y-74124765D01*
X137552808Y-74059580D01*
X137546149Y-73978589D01*
X137539652Y-73899561D01*
X137485231Y-73682902D01*
X137396154Y-73478040D01*
X137274814Y-73290477D01*
X137124470Y-73125251D01*
X137120419Y-73122052D01*
X137120415Y-73122048D01*
X136951208Y-72988416D01*
X136910145Y-72930498D01*
X136903300Y-72889534D01*
X136903300Y-69840060D01*
X136923302Y-69771939D01*
X136940205Y-69750965D01*
X143067410Y-63623760D01*
X143129722Y-63589734D01*
X143200537Y-63594799D01*
G37*
%TD.AperFunction*%
%TD*%
M02*
