%TF.GenerationSoftware,KiCad,Pcbnew,(6.0.4)*%
%TF.CreationDate,2025-06-28T19:34:04+02:00*%
%TF.ProjectId,OVOS_sat,4f564f53-5f73-4617-942e-6b696361645f,rev?*%
%TF.SameCoordinates,Original*%
%TF.FileFunction,Legend,Top*%
%TF.FilePolarity,Positive*%
%FSLAX46Y46*%
G04 Gerber Fmt 4.6, Leading zero omitted, Abs format (unit mm)*
G04 Created by KiCad (PCBNEW (6.0.4)) date 2025-06-28 19:34:04*
%MOMM*%
%LPD*%
G01*
G04 APERTURE LIST*
%ADD10C,0.400000*%
%ADD11C,0.150000*%
%ADD12C,0.120000*%
G04 APERTURE END LIST*
D10*
X139601676Y-91980571D02*
X139506438Y-92266285D01*
X139506438Y-92742476D01*
X139601676Y-92932952D01*
X139696914Y-93028190D01*
X139887390Y-93123428D01*
X140077866Y-93123428D01*
X140268342Y-93028190D01*
X140363580Y-92932952D01*
X140458819Y-92742476D01*
X140554057Y-92361523D01*
X140649295Y-92171047D01*
X140744533Y-92075809D01*
X140935009Y-91980571D01*
X141125485Y-91980571D01*
X141315961Y-92075809D01*
X141411200Y-92171047D01*
X141506438Y-92361523D01*
X141506438Y-92837714D01*
X141411200Y-93123428D01*
X140839771Y-93694857D02*
X140839771Y-94456761D01*
X141506438Y-93980571D02*
X139792152Y-93980571D01*
X139601676Y-94075809D01*
X139506438Y-94266285D01*
X139506438Y-94456761D01*
X139601676Y-95885333D02*
X139506438Y-95694857D01*
X139506438Y-95313904D01*
X139601676Y-95123428D01*
X139792152Y-95028190D01*
X140554057Y-95028190D01*
X140744533Y-95123428D01*
X140839771Y-95313904D01*
X140839771Y-95694857D01*
X140744533Y-95885333D01*
X140554057Y-95980571D01*
X140363580Y-95980571D01*
X140173104Y-95028190D01*
X139506438Y-96837714D02*
X140839771Y-96837714D01*
X140649295Y-96837714D02*
X140744533Y-96932952D01*
X140839771Y-97123428D01*
X140839771Y-97409142D01*
X140744533Y-97599619D01*
X140554057Y-97694857D01*
X139506438Y-97694857D01*
X140554057Y-97694857D02*
X140744533Y-97790095D01*
X140839771Y-97980571D01*
X140839771Y-98266285D01*
X140744533Y-98456761D01*
X140554057Y-98552000D01*
X139506438Y-98552000D01*
X139696914Y-100647238D02*
X139601676Y-100552000D01*
X139506438Y-100266285D01*
X139506438Y-100075809D01*
X139601676Y-99790095D01*
X139792152Y-99599619D01*
X139982628Y-99504380D01*
X140363580Y-99409142D01*
X140649295Y-99409142D01*
X141030247Y-99504380D01*
X141220723Y-99599619D01*
X141411200Y-99790095D01*
X141506438Y-100075809D01*
X141506438Y-100266285D01*
X141411200Y-100552000D01*
X141315961Y-100647238D01*
X139506438Y-101790095D02*
X139601676Y-101599619D01*
X139696914Y-101504380D01*
X139887390Y-101409142D01*
X140458819Y-101409142D01*
X140649295Y-101504380D01*
X140744533Y-101599619D01*
X140839771Y-101790095D01*
X140839771Y-102075809D01*
X140744533Y-102266285D01*
X140649295Y-102361523D01*
X140458819Y-102456761D01*
X139887390Y-102456761D01*
X139696914Y-102361523D01*
X139601676Y-102266285D01*
X139506438Y-102075809D01*
X139506438Y-101790095D01*
X139506438Y-103313904D02*
X140839771Y-103313904D01*
X140649295Y-103313904D02*
X140744533Y-103409142D01*
X140839771Y-103599619D01*
X140839771Y-103885333D01*
X140744533Y-104075809D01*
X140554057Y-104171047D01*
X139506438Y-104171047D01*
X140554057Y-104171047D02*
X140744533Y-104266285D01*
X140839771Y-104456761D01*
X140839771Y-104742476D01*
X140744533Y-104932952D01*
X140554057Y-105028190D01*
X139506438Y-105028190D01*
D11*
%TO.C,R1*%
X136688533Y-45105580D02*
X136355200Y-44629390D01*
X136117104Y-45105580D02*
X136117104Y-44105580D01*
X136498057Y-44105580D01*
X136593295Y-44153200D01*
X136640914Y-44200819D01*
X136688533Y-44296057D01*
X136688533Y-44438914D01*
X136640914Y-44534152D01*
X136593295Y-44581771D01*
X136498057Y-44629390D01*
X136117104Y-44629390D01*
X137640914Y-45105580D02*
X137069485Y-45105580D01*
X137355200Y-45105580D02*
X137355200Y-44105580D01*
X137259961Y-44248438D01*
X137164723Y-44343676D01*
X137069485Y-44391295D01*
%TO.C,J3 Volume*%
X141070438Y-110661580D02*
X141070438Y-111375866D01*
X141022819Y-111518723D01*
X140927580Y-111613961D01*
X140784723Y-111661580D01*
X140689485Y-111661580D01*
X141451390Y-110661580D02*
X142070438Y-110661580D01*
X141737104Y-111042533D01*
X141879961Y-111042533D01*
X141975200Y-111090152D01*
X142022819Y-111137771D01*
X142070438Y-111233009D01*
X142070438Y-111471104D01*
X142022819Y-111566342D01*
X141975200Y-111613961D01*
X141879961Y-111661580D01*
X141594247Y-111661580D01*
X141499009Y-111613961D01*
X141451390Y-111566342D01*
X143118057Y-110661580D02*
X143451390Y-111661580D01*
X143784723Y-110661580D01*
X144260914Y-111661580D02*
X144165676Y-111613961D01*
X144118057Y-111566342D01*
X144070438Y-111471104D01*
X144070438Y-111185390D01*
X144118057Y-111090152D01*
X144165676Y-111042533D01*
X144260914Y-110994914D01*
X144403771Y-110994914D01*
X144499009Y-111042533D01*
X144546628Y-111090152D01*
X144594247Y-111185390D01*
X144594247Y-111471104D01*
X144546628Y-111566342D01*
X144499009Y-111613961D01*
X144403771Y-111661580D01*
X144260914Y-111661580D01*
X145165676Y-111661580D02*
X145070438Y-111613961D01*
X145022819Y-111518723D01*
X145022819Y-110661580D01*
X145975200Y-110994914D02*
X145975200Y-111661580D01*
X145546628Y-110994914D02*
X145546628Y-111518723D01*
X145594247Y-111613961D01*
X145689485Y-111661580D01*
X145832342Y-111661580D01*
X145927580Y-111613961D01*
X145975200Y-111566342D01*
X146451390Y-111661580D02*
X146451390Y-110994914D01*
X146451390Y-111090152D02*
X146499009Y-111042533D01*
X146594247Y-110994914D01*
X146737104Y-110994914D01*
X146832342Y-111042533D01*
X146879961Y-111137771D01*
X146879961Y-111661580D01*
X146879961Y-111137771D02*
X146927580Y-111042533D01*
X147022819Y-110994914D01*
X147165676Y-110994914D01*
X147260914Y-111042533D01*
X147308533Y-111137771D01*
X147308533Y-111661580D01*
X148165676Y-111613961D02*
X148070438Y-111661580D01*
X147879961Y-111661580D01*
X147784723Y-111613961D01*
X147737104Y-111518723D01*
X147737104Y-111137771D01*
X147784723Y-111042533D01*
X147879961Y-110994914D01*
X148070438Y-110994914D01*
X148165676Y-111042533D01*
X148213295Y-111137771D01*
X148213295Y-111233009D01*
X147737104Y-111328247D01*
%TO.C,U1*%
X135432895Y-91144580D02*
X135432895Y-91954104D01*
X135480514Y-92049342D01*
X135528133Y-92096961D01*
X135623371Y-92144580D01*
X135813847Y-92144580D01*
X135909085Y-92096961D01*
X135956704Y-92049342D01*
X136004323Y-91954104D01*
X136004323Y-91144580D01*
X137004323Y-92144580D02*
X136432895Y-92144580D01*
X136718609Y-92144580D02*
X136718609Y-91144580D01*
X136623371Y-91287438D01*
X136528133Y-91382676D01*
X136432895Y-91430295D01*
X132123371Y-72244580D02*
X132123371Y-71244580D01*
X132456704Y-71958866D01*
X132790038Y-71244580D01*
X132790038Y-72244580D01*
X133218609Y-71958866D02*
X133694800Y-71958866D01*
X133123371Y-72244580D02*
X133456704Y-71244580D01*
X133790038Y-72244580D01*
X134028133Y-71244580D02*
X134694800Y-72244580D01*
X134694800Y-71244580D02*
X134028133Y-72244580D01*
X135123371Y-72244580D02*
X135313847Y-72244580D01*
X135409085Y-72196961D01*
X135456704Y-72149342D01*
X135551942Y-72006485D01*
X135599561Y-71816009D01*
X135599561Y-71435057D01*
X135551942Y-71339819D01*
X135504323Y-71292200D01*
X135409085Y-71244580D01*
X135218609Y-71244580D01*
X135123371Y-71292200D01*
X135075752Y-71339819D01*
X135028133Y-71435057D01*
X135028133Y-71673152D01*
X135075752Y-71768390D01*
X135123371Y-71816009D01*
X135218609Y-71863628D01*
X135409085Y-71863628D01*
X135504323Y-71816009D01*
X135551942Y-71768390D01*
X135599561Y-71673152D01*
X136170990Y-71673152D02*
X136075752Y-71625533D01*
X136028133Y-71577914D01*
X135980514Y-71482676D01*
X135980514Y-71435057D01*
X136028133Y-71339819D01*
X136075752Y-71292200D01*
X136170990Y-71244580D01*
X136361466Y-71244580D01*
X136456704Y-71292200D01*
X136504323Y-71339819D01*
X136551942Y-71435057D01*
X136551942Y-71482676D01*
X136504323Y-71577914D01*
X136456704Y-71625533D01*
X136361466Y-71673152D01*
X136170990Y-71673152D01*
X136075752Y-71720771D01*
X136028133Y-71768390D01*
X135980514Y-71863628D01*
X135980514Y-72054104D01*
X136028133Y-72149342D01*
X136075752Y-72196961D01*
X136170990Y-72244580D01*
X136361466Y-72244580D01*
X136456704Y-72196961D01*
X136504323Y-72149342D01*
X136551942Y-72054104D01*
X136551942Y-71863628D01*
X136504323Y-71768390D01*
X136456704Y-71720771D01*
X136361466Y-71673152D01*
X136885276Y-71244580D02*
X137504323Y-71244580D01*
X137170990Y-71625533D01*
X137313847Y-71625533D01*
X137409085Y-71673152D01*
X137456704Y-71720771D01*
X137504323Y-71816009D01*
X137504323Y-72054104D01*
X137456704Y-72149342D01*
X137409085Y-72196961D01*
X137313847Y-72244580D01*
X137028133Y-72244580D01*
X136932895Y-72196961D01*
X136885276Y-72149342D01*
X138409085Y-71244580D02*
X137932895Y-71244580D01*
X137885276Y-71720771D01*
X137932895Y-71673152D01*
X138028133Y-71625533D01*
X138266228Y-71625533D01*
X138361466Y-71673152D01*
X138409085Y-71720771D01*
X138456704Y-71816009D01*
X138456704Y-72054104D01*
X138409085Y-72149342D01*
X138361466Y-72196961D01*
X138266228Y-72244580D01*
X138028133Y-72244580D01*
X137932895Y-72196961D01*
X137885276Y-72149342D01*
X138790038Y-71244580D02*
X139456704Y-71244580D01*
X139028133Y-72244580D01*
X140266228Y-72244580D02*
X140266228Y-71720771D01*
X140218609Y-71625533D01*
X140123371Y-71577914D01*
X139932895Y-71577914D01*
X139837657Y-71625533D01*
X140266228Y-72196961D02*
X140170990Y-72244580D01*
X139932895Y-72244580D01*
X139837657Y-72196961D01*
X139790038Y-72101723D01*
X139790038Y-72006485D01*
X139837657Y-71911247D01*
X139932895Y-71863628D01*
X140170990Y-71863628D01*
X140266228Y-71816009D01*
%TO.C,MicRight*%
X131183428Y-112764380D02*
X131183428Y-111764380D01*
X131516761Y-112478666D01*
X131850095Y-111764380D01*
X131850095Y-112764380D01*
X132326285Y-112764380D02*
X132326285Y-112097714D01*
X132326285Y-111764380D02*
X132278666Y-111812000D01*
X132326285Y-111859619D01*
X132373904Y-111812000D01*
X132326285Y-111764380D01*
X132326285Y-111859619D01*
X133231047Y-112716761D02*
X133135809Y-112764380D01*
X132945333Y-112764380D01*
X132850095Y-112716761D01*
X132802476Y-112669142D01*
X132754857Y-112573904D01*
X132754857Y-112288190D01*
X132802476Y-112192952D01*
X132850095Y-112145333D01*
X132945333Y-112097714D01*
X133135809Y-112097714D01*
X133231047Y-112145333D01*
X134231047Y-112764380D02*
X133897714Y-112288190D01*
X133659619Y-112764380D02*
X133659619Y-111764380D01*
X134040571Y-111764380D01*
X134135809Y-111812000D01*
X134183428Y-111859619D01*
X134231047Y-111954857D01*
X134231047Y-112097714D01*
X134183428Y-112192952D01*
X134135809Y-112240571D01*
X134040571Y-112288190D01*
X133659619Y-112288190D01*
X134659619Y-112764380D02*
X134659619Y-112097714D01*
X134659619Y-111764380D02*
X134612000Y-111812000D01*
X134659619Y-111859619D01*
X134707238Y-111812000D01*
X134659619Y-111764380D01*
X134659619Y-111859619D01*
X135564380Y-112097714D02*
X135564380Y-112907238D01*
X135516761Y-113002476D01*
X135469142Y-113050095D01*
X135373904Y-113097714D01*
X135231047Y-113097714D01*
X135135809Y-113050095D01*
X135564380Y-112716761D02*
X135469142Y-112764380D01*
X135278666Y-112764380D01*
X135183428Y-112716761D01*
X135135809Y-112669142D01*
X135088190Y-112573904D01*
X135088190Y-112288190D01*
X135135809Y-112192952D01*
X135183428Y-112145333D01*
X135278666Y-112097714D01*
X135469142Y-112097714D01*
X135564380Y-112145333D01*
X136040571Y-112764380D02*
X136040571Y-111764380D01*
X136469142Y-112764380D02*
X136469142Y-112240571D01*
X136421523Y-112145333D01*
X136326285Y-112097714D01*
X136183428Y-112097714D01*
X136088190Y-112145333D01*
X136040571Y-112192952D01*
X136802476Y-112097714D02*
X137183428Y-112097714D01*
X136945333Y-111764380D02*
X136945333Y-112621523D01*
X136992952Y-112716761D01*
X137088190Y-112764380D01*
X137183428Y-112764380D01*
X130897714Y-95356761D02*
X131040571Y-95404380D01*
X131278666Y-95404380D01*
X131373904Y-95356761D01*
X131421523Y-95309142D01*
X131469142Y-95213904D01*
X131469142Y-95118666D01*
X131421523Y-95023428D01*
X131373904Y-94975809D01*
X131278666Y-94928190D01*
X131088190Y-94880571D01*
X130992952Y-94832952D01*
X130945333Y-94785333D01*
X130897714Y-94690095D01*
X130897714Y-94594857D01*
X130945333Y-94499619D01*
X130992952Y-94452000D01*
X131088190Y-94404380D01*
X131326285Y-94404380D01*
X131469142Y-94452000D01*
X131897714Y-95404380D02*
X131897714Y-94404380D01*
X132278666Y-94404380D01*
X132373904Y-94452000D01*
X132421523Y-94499619D01*
X132469142Y-94594857D01*
X132469142Y-94737714D01*
X132421523Y-94832952D01*
X132373904Y-94880571D01*
X132278666Y-94928190D01*
X131897714Y-94928190D01*
X132897714Y-95404380D02*
X132897714Y-94404380D01*
X132897714Y-94880571D02*
X133469142Y-94880571D01*
X133469142Y-95404380D02*
X133469142Y-94404380D01*
X134135809Y-94404380D02*
X134231047Y-94404380D01*
X134326285Y-94452000D01*
X134373904Y-94499619D01*
X134421523Y-94594857D01*
X134469142Y-94785333D01*
X134469142Y-95023428D01*
X134421523Y-95213904D01*
X134373904Y-95309142D01*
X134326285Y-95356761D01*
X134231047Y-95404380D01*
X134135809Y-95404380D01*
X134040571Y-95356761D01*
X133992952Y-95309142D01*
X133945333Y-95213904D01*
X133897714Y-95023428D01*
X133897714Y-94785333D01*
X133945333Y-94594857D01*
X133992952Y-94499619D01*
X134040571Y-94452000D01*
X134135809Y-94404380D01*
X135326285Y-94404380D02*
X135135809Y-94404380D01*
X135040571Y-94452000D01*
X134992952Y-94499619D01*
X134897714Y-94642476D01*
X134850095Y-94832952D01*
X134850095Y-95213904D01*
X134897714Y-95309142D01*
X134945333Y-95356761D01*
X135040571Y-95404380D01*
X135231047Y-95404380D01*
X135326285Y-95356761D01*
X135373904Y-95309142D01*
X135421523Y-95213904D01*
X135421523Y-94975809D01*
X135373904Y-94880571D01*
X135326285Y-94832952D01*
X135231047Y-94785333D01*
X135040571Y-94785333D01*
X134945333Y-94832952D01*
X134897714Y-94880571D01*
X134850095Y-94975809D01*
X136278666Y-94737714D02*
X136278666Y-95404380D01*
X136040571Y-94356761D02*
X135802476Y-95071047D01*
X136421523Y-95071047D01*
X137278666Y-94404380D02*
X136802476Y-94404380D01*
X136754857Y-94880571D01*
X136802476Y-94832952D01*
X136897714Y-94785333D01*
X137135809Y-94785333D01*
X137231047Y-94832952D01*
X137278666Y-94880571D01*
X137326285Y-94975809D01*
X137326285Y-95213904D01*
X137278666Y-95309142D01*
X137231047Y-95356761D01*
X137135809Y-95404380D01*
X136897714Y-95404380D01*
X136802476Y-95356761D01*
X136754857Y-95309142D01*
%TO.C,R2*%
X123023333Y-114498380D02*
X122690000Y-114022190D01*
X122451904Y-114498380D02*
X122451904Y-113498380D01*
X122832857Y-113498380D01*
X122928095Y-113546000D01*
X122975714Y-113593619D01*
X123023333Y-113688857D01*
X123023333Y-113831714D01*
X122975714Y-113926952D01*
X122928095Y-113974571D01*
X122832857Y-114022190D01*
X122451904Y-114022190D01*
X123404285Y-113593619D02*
X123451904Y-113546000D01*
X123547142Y-113498380D01*
X123785238Y-113498380D01*
X123880476Y-113546000D01*
X123928095Y-113593619D01*
X123975714Y-113688857D01*
X123975714Y-113784095D01*
X123928095Y-113926952D01*
X123356666Y-114498380D01*
X123975714Y-114498380D01*
%TO.C,LED*%
X144639942Y-54597980D02*
X144163752Y-54597980D01*
X144163752Y-53597980D01*
X144973276Y-54074171D02*
X145306609Y-54074171D01*
X145449466Y-54597980D02*
X144973276Y-54597980D01*
X144973276Y-53597980D01*
X145449466Y-53597980D01*
X145878038Y-54597980D02*
X145878038Y-53597980D01*
X146116133Y-53597980D01*
X146258990Y-53645600D01*
X146354228Y-53740838D01*
X146401847Y-53836076D01*
X146449466Y-54026552D01*
X146449466Y-54169409D01*
X146401847Y-54359885D01*
X146354228Y-54455123D01*
X146258990Y-54550361D01*
X146116133Y-54597980D01*
X145878038Y-54597980D01*
%TO.C,MicLeft*%
X131656438Y-70048380D02*
X131656438Y-69048380D01*
X131989771Y-69762666D01*
X132323104Y-69048380D01*
X132323104Y-70048380D01*
X132799295Y-70048380D02*
X132799295Y-69381714D01*
X132799295Y-69048380D02*
X132751676Y-69096000D01*
X132799295Y-69143619D01*
X132846914Y-69096000D01*
X132799295Y-69048380D01*
X132799295Y-69143619D01*
X133704057Y-70000761D02*
X133608819Y-70048380D01*
X133418342Y-70048380D01*
X133323104Y-70000761D01*
X133275485Y-69953142D01*
X133227866Y-69857904D01*
X133227866Y-69572190D01*
X133275485Y-69476952D01*
X133323104Y-69429333D01*
X133418342Y-69381714D01*
X133608819Y-69381714D01*
X133704057Y-69429333D01*
X134608819Y-70048380D02*
X134132628Y-70048380D01*
X134132628Y-69048380D01*
X135323104Y-70000761D02*
X135227866Y-70048380D01*
X135037390Y-70048380D01*
X134942152Y-70000761D01*
X134894533Y-69905523D01*
X134894533Y-69524571D01*
X134942152Y-69429333D01*
X135037390Y-69381714D01*
X135227866Y-69381714D01*
X135323104Y-69429333D01*
X135370723Y-69524571D01*
X135370723Y-69619809D01*
X134894533Y-69715047D01*
X135656438Y-69381714D02*
X136037390Y-69381714D01*
X135799295Y-70048380D02*
X135799295Y-69191238D01*
X135846914Y-69096000D01*
X135942152Y-69048380D01*
X136037390Y-69048380D01*
X136227866Y-69381714D02*
X136608819Y-69381714D01*
X136370723Y-69048380D02*
X136370723Y-69905523D01*
X136418342Y-70000761D01*
X136513580Y-70048380D01*
X136608819Y-70048380D01*
X130796114Y-52430761D02*
X130938971Y-52478380D01*
X131177066Y-52478380D01*
X131272304Y-52430761D01*
X131319923Y-52383142D01*
X131367542Y-52287904D01*
X131367542Y-52192666D01*
X131319923Y-52097428D01*
X131272304Y-52049809D01*
X131177066Y-52002190D01*
X130986590Y-51954571D01*
X130891352Y-51906952D01*
X130843733Y-51859333D01*
X130796114Y-51764095D01*
X130796114Y-51668857D01*
X130843733Y-51573619D01*
X130891352Y-51526000D01*
X130986590Y-51478380D01*
X131224685Y-51478380D01*
X131367542Y-51526000D01*
X131796114Y-52478380D02*
X131796114Y-51478380D01*
X132177066Y-51478380D01*
X132272304Y-51526000D01*
X132319923Y-51573619D01*
X132367542Y-51668857D01*
X132367542Y-51811714D01*
X132319923Y-51906952D01*
X132272304Y-51954571D01*
X132177066Y-52002190D01*
X131796114Y-52002190D01*
X132796114Y-52478380D02*
X132796114Y-51478380D01*
X132796114Y-51954571D02*
X133367542Y-51954571D01*
X133367542Y-52478380D02*
X133367542Y-51478380D01*
X134034209Y-51478380D02*
X134129447Y-51478380D01*
X134224685Y-51526000D01*
X134272304Y-51573619D01*
X134319923Y-51668857D01*
X134367542Y-51859333D01*
X134367542Y-52097428D01*
X134319923Y-52287904D01*
X134272304Y-52383142D01*
X134224685Y-52430761D01*
X134129447Y-52478380D01*
X134034209Y-52478380D01*
X133938971Y-52430761D01*
X133891352Y-52383142D01*
X133843733Y-52287904D01*
X133796114Y-52097428D01*
X133796114Y-51859333D01*
X133843733Y-51668857D01*
X133891352Y-51573619D01*
X133938971Y-51526000D01*
X134034209Y-51478380D01*
X135224685Y-51478380D02*
X135034209Y-51478380D01*
X134938971Y-51526000D01*
X134891352Y-51573619D01*
X134796114Y-51716476D01*
X134748495Y-51906952D01*
X134748495Y-52287904D01*
X134796114Y-52383142D01*
X134843733Y-52430761D01*
X134938971Y-52478380D01*
X135129447Y-52478380D01*
X135224685Y-52430761D01*
X135272304Y-52383142D01*
X135319923Y-52287904D01*
X135319923Y-52049809D01*
X135272304Y-51954571D01*
X135224685Y-51906952D01*
X135129447Y-51859333D01*
X134938971Y-51859333D01*
X134843733Y-51906952D01*
X134796114Y-51954571D01*
X134748495Y-52049809D01*
X136177066Y-51811714D02*
X136177066Y-52478380D01*
X135938971Y-51430761D02*
X135700876Y-52145047D01*
X136319923Y-52145047D01*
X137177066Y-51478380D02*
X136700876Y-51478380D01*
X136653257Y-51954571D01*
X136700876Y-51906952D01*
X136796114Y-51859333D01*
X137034209Y-51859333D01*
X137129447Y-51906952D01*
X137177066Y-51954571D01*
X137224685Y-52049809D01*
X137224685Y-52287904D01*
X137177066Y-52383142D01*
X137129447Y-52430761D01*
X137034209Y-52478380D01*
X136796114Y-52478380D01*
X136700876Y-52430761D01*
X136653257Y-52383142D01*
%TO.C,J1*%
X149323466Y-65847980D02*
X149323466Y-66562266D01*
X149275847Y-66705123D01*
X149180609Y-66800361D01*
X149037752Y-66847980D01*
X148942514Y-66847980D01*
X150323466Y-66847980D02*
X149752038Y-66847980D01*
X150037752Y-66847980D02*
X150037752Y-65847980D01*
X149942514Y-65990838D01*
X149847276Y-66086076D01*
X149752038Y-66133695D01*
X140862419Y-109469180D02*
X140529085Y-108992990D01*
X140290990Y-109469180D02*
X140290990Y-108469180D01*
X140671942Y-108469180D01*
X140767180Y-108516800D01*
X140814800Y-108564419D01*
X140862419Y-108659657D01*
X140862419Y-108802514D01*
X140814800Y-108897752D01*
X140767180Y-108945371D01*
X140671942Y-108992990D01*
X140290990Y-108992990D01*
X141290990Y-109469180D02*
X141290990Y-108469180D01*
X141671942Y-108469180D01*
X141767180Y-108516800D01*
X141814800Y-108564419D01*
X141862419Y-108659657D01*
X141862419Y-108802514D01*
X141814800Y-108897752D01*
X141767180Y-108945371D01*
X141671942Y-108992990D01*
X141290990Y-108992990D01*
X142290990Y-109469180D02*
X142290990Y-108802514D01*
X142290990Y-108469180D02*
X142243371Y-108516800D01*
X142290990Y-108564419D01*
X142338609Y-108516800D01*
X142290990Y-108469180D01*
X142290990Y-108564419D01*
X142529085Y-109564419D02*
X143290990Y-109564419D01*
X143433847Y-108469180D02*
X144100514Y-108469180D01*
X143433847Y-109469180D01*
X144100514Y-109469180D01*
X144862419Y-109421561D02*
X144767180Y-109469180D01*
X144576704Y-109469180D01*
X144481466Y-109421561D01*
X144433847Y-109326323D01*
X144433847Y-108945371D01*
X144481466Y-108850133D01*
X144576704Y-108802514D01*
X144767180Y-108802514D01*
X144862419Y-108850133D01*
X144910038Y-108945371D01*
X144910038Y-109040609D01*
X144433847Y-109135847D01*
X145338609Y-109469180D02*
X145338609Y-108802514D01*
X145338609Y-108992990D02*
X145386228Y-108897752D01*
X145433847Y-108850133D01*
X145529085Y-108802514D01*
X145624323Y-108802514D01*
X146100514Y-109469180D02*
X146005276Y-109421561D01*
X145957657Y-109373942D01*
X145910038Y-109278704D01*
X145910038Y-108992990D01*
X145957657Y-108897752D01*
X146005276Y-108850133D01*
X146100514Y-108802514D01*
X146243371Y-108802514D01*
X146338609Y-108850133D01*
X146386228Y-108897752D01*
X146433847Y-108992990D01*
X146433847Y-109278704D01*
X146386228Y-109373942D01*
X146338609Y-109421561D01*
X146243371Y-109469180D01*
X146100514Y-109469180D01*
X146814800Y-108564419D02*
X146862419Y-108516800D01*
X146957657Y-108469180D01*
X147195752Y-108469180D01*
X147290990Y-108516800D01*
X147338609Y-108564419D01*
X147386228Y-108659657D01*
X147386228Y-108754895D01*
X147338609Y-108897752D01*
X146767180Y-109469180D01*
X147386228Y-109469180D01*
D12*
%TO.C,R1*%
X125486000Y-49926000D02*
X125486000Y-49446000D01*
X135626000Y-49446000D02*
X135626000Y-49926000D01*
X135626000Y-46566000D02*
X135626000Y-46086000D01*
X125486000Y-46086000D02*
X125486000Y-46566000D01*
X135626000Y-46086000D02*
X125486000Y-46086000D01*
X135626000Y-49926000D02*
X125486000Y-49926000D01*
%TO.C,J3 Volume*%
X143372200Y-115983200D02*
X143296200Y-116059200D01*
X147040200Y-116194200D02*
X146986200Y-116249200D01*
X149155200Y-114079200D02*
X149079200Y-114155200D01*
X139165200Y-112209200D02*
X139165200Y-118829200D01*
X138925200Y-117329200D02*
X138925200Y-119069200D01*
X146872200Y-115983200D02*
X146796200Y-116059200D01*
X145465200Y-113889200D02*
X145411200Y-113943200D01*
X139165200Y-112209200D02*
X149785200Y-112209200D01*
X143540200Y-116194200D02*
X143486200Y-116249200D01*
X148965200Y-113889200D02*
X148911200Y-113943200D01*
X149785200Y-112209200D02*
X149785200Y-118829200D01*
X138925200Y-119069200D02*
X140425200Y-119069200D01*
X145655200Y-114079200D02*
X145579200Y-114155200D01*
X139165200Y-118829200D02*
X149785200Y-118829200D01*
X139165200Y-117269200D02*
X149785200Y-117269200D01*
X140975200Y-116624200D02*
G75*
G03*
X141681155Y-116454715I-2J1555008D01*
G01*
X140268200Y-116455200D02*
G75*
G03*
X141001644Y-116624882I706999J1385995D01*
G01*
X141682200Y-113683200D02*
G75*
G03*
X140269467Y-113682555I-707000J-1386000D01*
G01*
X142361200Y-115776200D02*
G75*
G03*
X142361845Y-114363467I-1386001J706999D01*
G01*
X139589200Y-114362200D02*
G75*
G03*
X139588555Y-115774933I1386000J-707000D01*
G01*
X146030200Y-115069200D02*
G75*
G03*
X146030200Y-115069200I-1555000J0D01*
G01*
X149530200Y-115069200D02*
G75*
G03*
X149530200Y-115069200I-1555000J0D01*
G01*
%TO.C,U1*%
X137524800Y-88092200D02*
X137524800Y-72792200D01*
X137524800Y-89362200D02*
X137524800Y-90692200D01*
X137524800Y-88092200D02*
X134864800Y-88092200D01*
X134864800Y-88092200D02*
X134864800Y-72792200D01*
X137524800Y-90692200D02*
X136194800Y-90692200D01*
X137524800Y-72792200D02*
X134864800Y-72792200D01*
%TO.C,MicRight*%
X135442000Y-95952000D02*
X132782000Y-95952000D01*
X132782000Y-108712000D02*
X132782000Y-95952000D01*
X135442000Y-109982000D02*
X135442000Y-111312000D01*
X135442000Y-108712000D02*
X132782000Y-108712000D01*
X135442000Y-111312000D02*
X134112000Y-111312000D01*
X135442000Y-108712000D02*
X135442000Y-95952000D01*
%TO.C,R2*%
X134914800Y-118584800D02*
X134914800Y-119064800D01*
X134914800Y-119064800D02*
X124774800Y-119064800D01*
X124774800Y-119064800D02*
X124774800Y-118584800D01*
X134914800Y-115224800D02*
X124774800Y-115224800D01*
X134914800Y-115704800D02*
X134914800Y-115224800D01*
X124774800Y-115224800D02*
X124774800Y-115704800D01*
%TO.C,LED*%
X147339800Y-50248600D02*
X147285800Y-50303600D01*
X145954800Y-48133600D02*
X145878800Y-48209600D01*
X145764800Y-47943600D02*
X145710800Y-47997600D01*
X149264800Y-47943600D02*
X149210800Y-47997600D01*
X143671800Y-50037600D02*
X143595800Y-50113600D01*
X139224800Y-53123600D02*
X140724800Y-53123600D01*
X150084800Y-46263600D02*
X150084800Y-52883600D01*
X139464800Y-46263600D02*
X139464800Y-52883600D01*
X147171800Y-50037600D02*
X147095800Y-50113600D01*
X139224800Y-51383600D02*
X139224800Y-53123600D01*
X139464800Y-52883600D02*
X150084800Y-52883600D01*
X139464800Y-51323600D02*
X150084800Y-51323600D01*
X143839800Y-50248600D02*
X143785800Y-50303600D01*
X139464800Y-46263600D02*
X150084800Y-46263600D01*
X149454800Y-48133600D02*
X149378800Y-48209600D01*
X140567800Y-50509600D02*
G75*
G03*
X141301244Y-50679282I706999J1385995D01*
G01*
X139888800Y-48416600D02*
G75*
G03*
X139888155Y-49829333I1386000J-707000D01*
G01*
X142660800Y-49830600D02*
G75*
G03*
X142661445Y-48417867I-1386001J706999D01*
G01*
X141274800Y-50678600D02*
G75*
G03*
X141980755Y-50509115I-2J1555008D01*
G01*
X141981800Y-47737600D02*
G75*
G03*
X140569067Y-47736955I-707000J-1386000D01*
G01*
X149829800Y-49123600D02*
G75*
G03*
X149829800Y-49123600I-1555000J0D01*
G01*
X146329800Y-49123600D02*
G75*
G03*
X146329800Y-49123600I-1555000J0D01*
G01*
%TO.C,MicLeft*%
X135340400Y-65786000D02*
X135340400Y-53026000D01*
X135340400Y-65786000D02*
X132680400Y-65786000D01*
X135340400Y-53026000D02*
X132680400Y-53026000D01*
X135340400Y-67056000D02*
X135340400Y-68386000D01*
X135340400Y-68386000D02*
X134010400Y-68386000D01*
X132680400Y-65786000D02*
X132680400Y-53026000D01*
%TO.C,J1*%
X145739089Y-56603501D02*
X148339089Y-56603501D01*
X143139089Y-107523501D02*
X148339089Y-107523501D01*
X143139089Y-59203501D02*
X145739089Y-59203501D01*
X148339089Y-56603501D02*
X148339089Y-107523501D01*
X145739089Y-59203501D02*
X145739089Y-56603501D01*
X143139089Y-56603501D02*
X144469089Y-56603501D01*
X143139089Y-57933501D02*
X143139089Y-56603501D01*
X143139089Y-59203501D02*
X143139089Y-107523501D01*
%TD*%
M02*
