M48
; DRILL file {KiCad (6.0.4)} date Sun Jun 29 01:42:29 2025
; FORMAT={-:-/ absolute / inch / decimal}
; #@! TF.CreationDate,2025-06-29T01:42:29+02:00
; #@! TF.GenerationSoftware,Kicad,Pcbnew,(6.0.4)
; #@! TF.FileFunction,Plated,1,2,PTH
FMAT,2
INCH
; #@! TA.AperFunction,Plated,PTH,ViaDrill
T1C0.0157
; #@! TA.AperFunction,Plated,PTH,ComponentDrill
T2C0.0394
; #@! TA.AperFunction,Plated,PTH,ComponentDrill
T3C0.0472
%
G90
G05
T1
X4.916Y-3.532
X4.922Y-4.322
X4.944Y-2.116
X4.944Y-2.678
X5.218Y-3.642
X5.478Y-2.752
X5.48Y-4.186
X5.498Y-2.42
X5.524Y-3.26
X5.532Y-2.91
X5.714Y-2.052
X5.902Y-3.322
T2
X5.276Y-2.14
X5.276Y-2.24
X5.276Y-2.34
X5.276Y-2.44
X5.276Y-2.54
X5.276Y-2.64
X5.28Y-3.83
X5.28Y-3.93
X5.28Y-4.03
X5.28Y-4.13
X5.28Y-4.23
X5.28Y-4.33
X5.362Y-2.9182
X5.362Y-3.0182
X5.362Y-3.1182
X5.362Y-3.2182
X5.362Y-3.3182
X5.362Y-3.4182
X5.362Y-3.5182
X5.6878Y-2.2808
X5.6878Y-2.3808
X5.6878Y-2.4808
X5.6878Y-2.5808
X5.6878Y-2.6808
X5.6878Y-2.7808
X5.6878Y-2.8808
X5.6878Y-2.9808
X5.6878Y-3.0808
X5.6878Y-3.1808
X5.6878Y-3.2808
X5.6878Y-3.3808
X5.6878Y-3.4808
X5.6878Y-3.5808
X5.6878Y-3.6808
X5.6878Y-3.7808
X5.6878Y-3.8808
X5.6878Y-3.9808
X5.6878Y-4.0808
X5.6878Y-4.1808
X5.7878Y-2.2808
X5.7878Y-2.3808
X5.7878Y-2.4808
X5.7878Y-2.5808
X5.7878Y-2.6808
X5.7878Y-2.7808
X5.7878Y-2.8808
X5.7878Y-2.9808
X5.7878Y-3.0808
X5.7878Y-3.1808
X5.7878Y-3.2808
X5.7878Y-3.3808
X5.7878Y-3.4808
X5.7878Y-3.5808
X5.7878Y-3.6808
X5.7878Y-3.7808
X5.7878Y-3.8808
X5.7878Y-3.9808
X5.7878Y-4.0808
X5.7878Y-4.1808
T3
X4.862Y-4.612
X4.89Y-1.89
X5.362Y-4.612
X5.39Y-1.89
X5.5502Y-4.5303
X5.562Y-1.934
X5.688Y-4.5303
X5.6998Y-1.934
X5.8258Y-4.5303
X5.8376Y-1.934
T0
M30
