%TF.GenerationSoftware,KiCad,Pcbnew,(6.0.4)*%
%TF.CreationDate,2025-06-28T19:34:05+02:00*%
%TF.ProjectId,OVOS_sat,4f564f53-5f73-4617-942e-6b696361645f,rev?*%
%TF.SameCoordinates,Original*%
%TF.FileFunction,AssemblyDrawing,Top*%
%FSLAX46Y46*%
G04 Gerber Fmt 4.6, Leading zero omitted, Abs format (unit mm)*
G04 Created by KiCad (PCBNEW (6.0.4)) date 2025-06-28 19:34:05*
%MOMM*%
%LPD*%
G01*
G04 APERTURE LIST*
%ADD10C,0.150000*%
%ADD11C,0.100000*%
G04 APERTURE END LIST*
D10*
%TO.C,R1*%
X128365523Y-45538380D02*
X128032190Y-45062190D01*
X127794095Y-45538380D02*
X127794095Y-44538380D01*
X128175047Y-44538380D01*
X128270285Y-44586000D01*
X128317904Y-44633619D01*
X128365523Y-44728857D01*
X128365523Y-44871714D01*
X128317904Y-44966952D01*
X128270285Y-45014571D01*
X128175047Y-45062190D01*
X127794095Y-45062190D01*
X128556000Y-45633619D02*
X129317904Y-45633619D01*
X129508380Y-45490761D02*
X129651238Y-45538380D01*
X129889333Y-45538380D01*
X129984571Y-45490761D01*
X130032190Y-45443142D01*
X130079809Y-45347904D01*
X130079809Y-45252666D01*
X130032190Y-45157428D01*
X129984571Y-45109809D01*
X129889333Y-45062190D01*
X129698857Y-45014571D01*
X129603619Y-44966952D01*
X129556000Y-44919333D01*
X129508380Y-44824095D01*
X129508380Y-44728857D01*
X129556000Y-44633619D01*
X129603619Y-44586000D01*
X129698857Y-44538380D01*
X129936952Y-44538380D01*
X130079809Y-44586000D01*
X130508380Y-45538380D02*
X130508380Y-44871714D01*
X130508380Y-44966952D02*
X130556000Y-44919333D01*
X130651238Y-44871714D01*
X130794095Y-44871714D01*
X130889333Y-44919333D01*
X130936952Y-45014571D01*
X130936952Y-45538380D01*
X130936952Y-45014571D02*
X130984571Y-44919333D01*
X131079809Y-44871714D01*
X131222666Y-44871714D01*
X131317904Y-44919333D01*
X131365523Y-45014571D01*
X131365523Y-45538380D01*
X132270285Y-45538380D02*
X132270285Y-45014571D01*
X132222666Y-44919333D01*
X132127428Y-44871714D01*
X131936952Y-44871714D01*
X131841714Y-44919333D01*
X132270285Y-45490761D02*
X132175047Y-45538380D01*
X131936952Y-45538380D01*
X131841714Y-45490761D01*
X131794095Y-45395523D01*
X131794095Y-45300285D01*
X131841714Y-45205047D01*
X131936952Y-45157428D01*
X132175047Y-45157428D01*
X132270285Y-45109809D01*
X132889333Y-45538380D02*
X132794095Y-45490761D01*
X132746476Y-45395523D01*
X132746476Y-44538380D01*
X133413142Y-45538380D02*
X133317904Y-45490761D01*
X133270285Y-45395523D01*
X133270285Y-44538380D01*
X130389333Y-48458380D02*
X130056000Y-47982190D01*
X129817904Y-48458380D02*
X129817904Y-47458380D01*
X130198857Y-47458380D01*
X130294095Y-47506000D01*
X130341714Y-47553619D01*
X130389333Y-47648857D01*
X130389333Y-47791714D01*
X130341714Y-47886952D01*
X130294095Y-47934571D01*
X130198857Y-47982190D01*
X129817904Y-47982190D01*
X131341714Y-48458380D02*
X130770285Y-48458380D01*
X131056000Y-48458380D02*
X131056000Y-47458380D01*
X130960761Y-47601238D01*
X130865523Y-47696476D01*
X130770285Y-47744095D01*
%TO.C,J3 Volume*%
X141879961Y-119281580D02*
X142213295Y-120281580D01*
X142546628Y-119281580D01*
X143022819Y-120281580D02*
X142927580Y-120233961D01*
X142879961Y-120186342D01*
X142832342Y-120091104D01*
X142832342Y-119805390D01*
X142879961Y-119710152D01*
X142927580Y-119662533D01*
X143022819Y-119614914D01*
X143165676Y-119614914D01*
X143260914Y-119662533D01*
X143308533Y-119710152D01*
X143356152Y-119805390D01*
X143356152Y-120091104D01*
X143308533Y-120186342D01*
X143260914Y-120233961D01*
X143165676Y-120281580D01*
X143022819Y-120281580D01*
X143927580Y-120281580D02*
X143832342Y-120233961D01*
X143784723Y-120138723D01*
X143784723Y-119281580D01*
X144737104Y-119614914D02*
X144737104Y-120281580D01*
X144308533Y-119614914D02*
X144308533Y-120138723D01*
X144356152Y-120233961D01*
X144451390Y-120281580D01*
X144594247Y-120281580D01*
X144689485Y-120233961D01*
X144737104Y-120186342D01*
X145213295Y-120281580D02*
X145213295Y-119614914D01*
X145213295Y-119710152D02*
X145260914Y-119662533D01*
X145356152Y-119614914D01*
X145499009Y-119614914D01*
X145594247Y-119662533D01*
X145641866Y-119757771D01*
X145641866Y-120281580D01*
X145641866Y-119757771D02*
X145689485Y-119662533D01*
X145784723Y-119614914D01*
X145927580Y-119614914D01*
X146022819Y-119662533D01*
X146070438Y-119757771D01*
X146070438Y-120281580D01*
X146927580Y-120233961D02*
X146832342Y-120281580D01*
X146641866Y-120281580D01*
X146546628Y-120233961D01*
X146499009Y-120138723D01*
X146499009Y-119757771D01*
X146546628Y-119662533D01*
X146641866Y-119614914D01*
X146832342Y-119614914D01*
X146927580Y-119662533D01*
X146975200Y-119757771D01*
X146975200Y-119853009D01*
X146499009Y-119948247D01*
X141070438Y-117471580D02*
X141070438Y-118185866D01*
X141022819Y-118328723D01*
X140927580Y-118423961D01*
X140784723Y-118471580D01*
X140689485Y-118471580D01*
X141451390Y-117471580D02*
X142070438Y-117471580D01*
X141737104Y-117852533D01*
X141879961Y-117852533D01*
X141975200Y-117900152D01*
X142022819Y-117947771D01*
X142070438Y-118043009D01*
X142070438Y-118281104D01*
X142022819Y-118376342D01*
X141975200Y-118423961D01*
X141879961Y-118471580D01*
X141594247Y-118471580D01*
X141499009Y-118423961D01*
X141451390Y-118376342D01*
X143118057Y-117471580D02*
X143451390Y-118471580D01*
X143784723Y-117471580D01*
X144260914Y-118471580D02*
X144165676Y-118423961D01*
X144118057Y-118376342D01*
X144070438Y-118281104D01*
X144070438Y-117995390D01*
X144118057Y-117900152D01*
X144165676Y-117852533D01*
X144260914Y-117804914D01*
X144403771Y-117804914D01*
X144499009Y-117852533D01*
X144546628Y-117900152D01*
X144594247Y-117995390D01*
X144594247Y-118281104D01*
X144546628Y-118376342D01*
X144499009Y-118423961D01*
X144403771Y-118471580D01*
X144260914Y-118471580D01*
X145165676Y-118471580D02*
X145070438Y-118423961D01*
X145022819Y-118328723D01*
X145022819Y-117471580D01*
X145975200Y-117804914D02*
X145975200Y-118471580D01*
X145546628Y-117804914D02*
X145546628Y-118328723D01*
X145594247Y-118423961D01*
X145689485Y-118471580D01*
X145832342Y-118471580D01*
X145927580Y-118423961D01*
X145975200Y-118376342D01*
X146451390Y-118471580D02*
X146451390Y-117804914D01*
X146451390Y-117900152D02*
X146499009Y-117852533D01*
X146594247Y-117804914D01*
X146737104Y-117804914D01*
X146832342Y-117852533D01*
X146879961Y-117947771D01*
X146879961Y-118471580D01*
X146879961Y-117947771D02*
X146927580Y-117852533D01*
X147022819Y-117804914D01*
X147165676Y-117804914D01*
X147260914Y-117852533D01*
X147308533Y-117947771D01*
X147308533Y-118471580D01*
X148165676Y-118423961D02*
X148070438Y-118471580D01*
X147879961Y-118471580D01*
X147784723Y-118423961D01*
X147737104Y-118328723D01*
X147737104Y-117947771D01*
X147784723Y-117852533D01*
X147879961Y-117804914D01*
X148070438Y-117804914D01*
X148165676Y-117852533D01*
X148213295Y-117947771D01*
X148213295Y-118043009D01*
X147737104Y-118138247D01*
%TO.C,R2*%
X127654323Y-114677180D02*
X127320990Y-114200990D01*
X127082895Y-114677180D02*
X127082895Y-113677180D01*
X127463847Y-113677180D01*
X127559085Y-113724800D01*
X127606704Y-113772419D01*
X127654323Y-113867657D01*
X127654323Y-114010514D01*
X127606704Y-114105752D01*
X127559085Y-114153371D01*
X127463847Y-114200990D01*
X127082895Y-114200990D01*
X127844800Y-114772419D02*
X128606704Y-114772419D01*
X128797180Y-114629561D02*
X128940038Y-114677180D01*
X129178133Y-114677180D01*
X129273371Y-114629561D01*
X129320990Y-114581942D01*
X129368609Y-114486704D01*
X129368609Y-114391466D01*
X129320990Y-114296228D01*
X129273371Y-114248609D01*
X129178133Y-114200990D01*
X128987657Y-114153371D01*
X128892419Y-114105752D01*
X128844800Y-114058133D01*
X128797180Y-113962895D01*
X128797180Y-113867657D01*
X128844800Y-113772419D01*
X128892419Y-113724800D01*
X128987657Y-113677180D01*
X129225752Y-113677180D01*
X129368609Y-113724800D01*
X129797180Y-114677180D02*
X129797180Y-114010514D01*
X129797180Y-114105752D02*
X129844800Y-114058133D01*
X129940038Y-114010514D01*
X130082895Y-114010514D01*
X130178133Y-114058133D01*
X130225752Y-114153371D01*
X130225752Y-114677180D01*
X130225752Y-114153371D02*
X130273371Y-114058133D01*
X130368609Y-114010514D01*
X130511466Y-114010514D01*
X130606704Y-114058133D01*
X130654323Y-114153371D01*
X130654323Y-114677180D01*
X131559085Y-114677180D02*
X131559085Y-114153371D01*
X131511466Y-114058133D01*
X131416228Y-114010514D01*
X131225752Y-114010514D01*
X131130514Y-114058133D01*
X131559085Y-114629561D02*
X131463847Y-114677180D01*
X131225752Y-114677180D01*
X131130514Y-114629561D01*
X131082895Y-114534323D01*
X131082895Y-114439085D01*
X131130514Y-114343847D01*
X131225752Y-114296228D01*
X131463847Y-114296228D01*
X131559085Y-114248609D01*
X132178133Y-114677180D02*
X132082895Y-114629561D01*
X132035276Y-114534323D01*
X132035276Y-113677180D01*
X132701942Y-114677180D02*
X132606704Y-114629561D01*
X132559085Y-114534323D01*
X132559085Y-113677180D01*
X129678133Y-117597180D02*
X129344800Y-117120990D01*
X129106704Y-117597180D02*
X129106704Y-116597180D01*
X129487657Y-116597180D01*
X129582895Y-116644800D01*
X129630514Y-116692419D01*
X129678133Y-116787657D01*
X129678133Y-116930514D01*
X129630514Y-117025752D01*
X129582895Y-117073371D01*
X129487657Y-117120990D01*
X129106704Y-117120990D01*
X130059085Y-116692419D02*
X130106704Y-116644800D01*
X130201942Y-116597180D01*
X130440038Y-116597180D01*
X130535276Y-116644800D01*
X130582895Y-116692419D01*
X130630514Y-116787657D01*
X130630514Y-116882895D01*
X130582895Y-117025752D01*
X130011466Y-117597180D01*
X130630514Y-117597180D01*
%TO.C,LED*%
X144131942Y-54335980D02*
X143655752Y-54335980D01*
X143655752Y-53335980D01*
X144465276Y-53812171D02*
X144798609Y-53812171D01*
X144941466Y-54335980D02*
X144465276Y-54335980D01*
X144465276Y-53335980D01*
X144941466Y-53335980D01*
X145370038Y-54335980D02*
X145370038Y-53335980D01*
X145608133Y-53335980D01*
X145750990Y-53383600D01*
X145846228Y-53478838D01*
X145893847Y-53574076D01*
X145941466Y-53764552D01*
X145941466Y-53907409D01*
X145893847Y-54097885D01*
X145846228Y-54193123D01*
X145750990Y-54288361D01*
X145608133Y-54335980D01*
X145370038Y-54335980D01*
X144131942Y-52525980D02*
X143655752Y-52525980D01*
X143655752Y-51525980D01*
X144465276Y-52002171D02*
X144798609Y-52002171D01*
X144941466Y-52525980D02*
X144465276Y-52525980D01*
X144465276Y-51525980D01*
X144941466Y-51525980D01*
X145370038Y-52525980D02*
X145370038Y-51525980D01*
X145608133Y-51525980D01*
X145750990Y-51573600D01*
X145846228Y-51668838D01*
X145893847Y-51764076D01*
X145941466Y-51954552D01*
X145941466Y-52097409D01*
X145893847Y-52287885D01*
X145846228Y-52383123D01*
X145750990Y-52478361D01*
X145608133Y-52525980D01*
X145370038Y-52525980D01*
D11*
%TO.C,R1*%
X125606000Y-49806000D02*
X135506000Y-49806000D01*
X136906000Y-48006000D02*
X135506000Y-48006000D01*
X124206000Y-48006000D02*
X125606000Y-48006000D01*
X125606000Y-46206000D02*
X125606000Y-49806000D01*
X135506000Y-49806000D02*
X135506000Y-46206000D01*
X135506000Y-46206000D02*
X125606000Y-46206000D01*
%TO.C,J3 Volume*%
X139225200Y-112269200D02*
X149725200Y-112269200D01*
X148851200Y-114026200D02*
X146933200Y-115944200D01*
X145351200Y-114026200D02*
X143433200Y-115944200D01*
X149725200Y-112269200D02*
X149725200Y-118769200D01*
X141851200Y-114026200D02*
X139932200Y-115944200D01*
X149018200Y-114194200D02*
X147100200Y-116112200D01*
X142018200Y-114194200D02*
X140099200Y-116112200D01*
X139225200Y-117269200D02*
X139225200Y-112269200D01*
X140725200Y-118769200D02*
X139225200Y-117269200D01*
X145518200Y-114194200D02*
X143600200Y-116112200D01*
X139225200Y-117269200D02*
X149725200Y-117269200D01*
X149725200Y-118769200D02*
X140725200Y-118769200D01*
X149350200Y-115069200D02*
G75*
G03*
X149350200Y-115069200I-1375000J0D01*
G01*
X142350200Y-115069200D02*
G75*
G03*
X142350200Y-115069200I-1375000J0D01*
G01*
X145850200Y-115069200D02*
G75*
G03*
X145850200Y-115069200I-1375000J0D01*
G01*
%TO.C,U1*%
X134924800Y-90632200D02*
X134924800Y-72852200D01*
X137464800Y-89997200D02*
X136829800Y-90632200D01*
X136829800Y-90632200D02*
X134924800Y-90632200D01*
X134924800Y-72852200D02*
X137464800Y-72852200D01*
X137464800Y-72852200D02*
X137464800Y-89997200D01*
%TO.C,MicRight*%
X132842000Y-96012000D02*
X135382000Y-96012000D01*
X135382000Y-96012000D02*
X135382000Y-110617000D01*
X135382000Y-110617000D02*
X134747000Y-111252000D01*
X132842000Y-111252000D02*
X132842000Y-96012000D01*
X134747000Y-111252000D02*
X132842000Y-111252000D01*
%TO.C,R2*%
X124894800Y-115344800D02*
X124894800Y-118944800D01*
X124894800Y-118944800D02*
X134794800Y-118944800D01*
X136194800Y-117144800D02*
X134794800Y-117144800D01*
X134794800Y-118944800D02*
X134794800Y-115344800D01*
X134794800Y-115344800D02*
X124894800Y-115344800D01*
X123494800Y-117144800D02*
X124894800Y-117144800D01*
%TO.C,LED*%
X139524800Y-51323600D02*
X139524800Y-46323600D01*
X141024800Y-52823600D02*
X139524800Y-51323600D01*
X139524800Y-46323600D02*
X150024800Y-46323600D01*
X150024800Y-46323600D02*
X150024800Y-52823600D01*
X150024800Y-52823600D02*
X141024800Y-52823600D01*
X142150800Y-48080600D02*
X140231800Y-49998600D01*
X149150800Y-48080600D02*
X147232800Y-49998600D01*
X145817800Y-48248600D02*
X143899800Y-50166600D01*
X142317800Y-48248600D02*
X140398800Y-50166600D01*
X149317800Y-48248600D02*
X147399800Y-50166600D01*
X145650800Y-48080600D02*
X143732800Y-49998600D01*
X139524800Y-51323600D02*
X150024800Y-51323600D01*
X146149800Y-49123600D02*
G75*
G03*
X146149800Y-49123600I-1375000J0D01*
G01*
X149649800Y-49123600D02*
G75*
G03*
X149649800Y-49123600I-1375000J0D01*
G01*
X142649800Y-49123600D02*
G75*
G03*
X142649800Y-49123600I-1375000J0D01*
G01*
%TO.C,MicLeft*%
X132740400Y-68326000D02*
X132740400Y-53086000D01*
X134645400Y-68326000D02*
X132740400Y-68326000D01*
X135280400Y-53086000D02*
X135280400Y-67691000D01*
X135280400Y-67691000D02*
X134645400Y-68326000D01*
X132740400Y-53086000D02*
X135280400Y-53086000D01*
%TO.C,J1*%
X148279089Y-107463501D02*
X143199089Y-107463501D01*
X143199089Y-107463501D02*
X143199089Y-57933501D01*
X148279089Y-56663501D02*
X148279089Y-107463501D01*
X144469089Y-56663501D02*
X148279089Y-56663501D01*
X143199089Y-57933501D02*
X144469089Y-56663501D01*
%TD*%
M02*
